<?xml version="1.0" encoding="utf-8"?>
<!-- Generator: Adobe Illustrator 26.0.1, SVG Export Plug-In . SVG Version: 6.00 Build 0)  -->
<svg version="1.1" id="Слой_2" xmlns="http://www.w3.org/2000/svg" xmlns:xlink="http://www.w3.org/1999/xlink" x="0px" y="0px"
	 viewBox="0 0 3800 2000" style="enable-background:new 0 0 3800 2000;" xml:space="preserve">
<style type="text/css">
	.st0{fill:#EBF3FA;}
	.st1{fill:#E49963;}
	.st2{fill:#C65447;}
	.st3{fill:#FFB27D;}
	.st4{fill:#365DA4;}
	.st5{fill:#466AA5;}
	.st6{fill:#B74B42;}
	.st7{fill:#E8945B;}
	.st8{fill:#F1A34F;}
	.st9{fill:#FFFFFF;}
	.st10{fill:#E58638;}
	.st11{fill:#AD7041;}
	.st12{fill:#415DA5;}
	.st13{fill:#355493;}
	.st14{fill:#B84C42;}
	.st15{fill:#2B478B;}
	.st16{fill:#B64C41;}
	.st17{fill:#A53D38;}
	.st18{fill:#699FF0;}
	.st19{fill:#5F9AA8;}
	.st20{fill:#233862;}
	.st21{fill:#4A75CB;}
	.st22{fill:#283250;}
	.st23{fill:#DEEDFF;}
	.st24{fill:#739AF0;}
	.st25{fill:#82B378;}
	.st26{fill:#A8D29F;}
	.st27{fill:#FFB973;}
	.st28{fill:#D86713;}
	.st29{fill:#163560;}
	.st30{fill:#E37970;}
	.st31{fill:#D68D5D;}
	.st32{fill:#80BDCC;}
	.st33{fill:#C45446;}
	.st34{opacity:0.9;fill:#AFCDFB;}
	.st35{fill:#AA413E;}
	.st36{fill:#D9935C;}
	.st37{fill:#CB8757;}
	.st38{fill:#E7F0FD;}
	.st39{fill:#DA935B;}
	.st40{opacity:0.4;fill:#D86713;}
	.st41{fill:#AB7041;}
	.st42{fill:#9C5F33;}
	.st43{fill:#AFCDFB;}
</style>
<g>
	<path class="st0" d="M3257.2,751.8c-175.3-54.9-236.5-823.4-1015.1-439.1c-309.7,152.8-755.5-32.1-1182.5,69
		c-392.1,92.8-401.2,360.6-351.6,457c54.2,105.3-161.9,231.2-383.1,317.7C-22.2,1292,233,1768.7,560.9,1771s2736.8-4.5,2736.8-4.5
		S3953.2,969.7,3257.2,751.8z"/>
	<g>
		<path class="st1" d="M1190.9,1562.1c0,3.9-1.9,6.6-5.2,8.5c0,0,0,0-0.1,0c-6.1,3.4-16.8,3.7-28.4,3.2c-1.5-0.1-2.8-0.1-4-0.1
			c-0.3,0-0.6,0-0.9,0c-0.2,0-0.5,0-0.7,0c-11.5,0.3-10.3,3.7-32.2,5.6c-25,2.1-34.2-5.5-35.6-9c-1.2-3,9.5-6.3,21.4-10.1
			c0.6-0.2,1.2-0.4,1.7-0.6c1.6-0.5,3.2-1,4.8-1.6c14.3-4.7,28.3-10.4,31.8-24.8c3.7-15.3-7.4-58-7.4-58l39.6-4.3
			c0,0,3.8,44.6,6.3,58.6c1.3,7.4,4.7,13.3,6.7,19.7c0.1,0.4,0.3,0.9,0.4,1.3C1189.9,1554.3,1190.9,1558.1,1190.9,1562.1z"/>
		<path class="st2" d="M1190.9,1562.1c0,3.9-1.9,6.6-5.2,8.5c0,0,0,0-0.1,0c-6.5,3-17,3.4-28.4,3.1c-1.5,0-2.8,0-4,0
			c-0.3,0-0.6,0-0.9,0c-0.2,0-0.5,0-0.7,0c-11.5,0.3-10.3,3.7-32.2,5.6c-25,2.1-34.2-5.5-35.6-9c-1.2-3,9.5-6.3,21.4-10.1
			c3.4,1.3,19.4,6.9,38.3,3.3c16.7-3.1,33.2-11.4,45.1-14.2c0.1,0.4,0.3,0.9,0.4,1.3C1189.9,1554.3,1190.9,1558.1,1190.9,1562.1z"/>
		<path class="st1" d="M934.2,1511.6c-2.2,11-17.9,9.2-35.4,4.9c-17.5-4.3-13.3,0.8-38.2-1.9c-24.9-2.8-32.5-12-33.2-15.7
			c-0.7-3.3,11.6-4.4,24.8-6c1.7-0.2,3.3-0.4,5-0.6c14.9-1.9,25.8-11.5,39.4-19.4c12.8-7.5,32-38,32-38l34.2,2.7
			c0,0-17.9,27.2-24.9,39.1c-4.1,7-3.9,16.2-3.4,23.3C934.7,1503.7,934.9,1507.7,934.2,1511.6z"/>
		<path class="st2" d="M898.8,1516.4c-17.5-4.3-13.3,0.8-38.2-1.9c-24.9-2.8-32.5-12-33.2-15.7c-0.7-3.3,11.6-4.4,24.8-6l0.1,0.3
			c0,0,14.9,10.6,35.7,11.1c16.9,0.4,34.8-4.4,46.5-4.2c0.3,3.9,0.5,7.8-0.3,11.7C932,1522.5,916.3,1520.7,898.8,1516.4z"/>
		<path class="st3" d="M1010.2,1009.9c0,0-8.1-19.9-17.1-20.8c-9-0.8-37.4-5.3-39.5-1.2c-2,4.1,0,18.7,6.1,24
			c6.1,5.3,43.9,13.8,43.9,13.8L1010.2,1009.9z"/>
		<path class="st4" d="M1065.1,1293.1l73.6,198.1c0,0,11.3,1.1,22.2-2c10-2.9,21.4-10.4,21.4-10.4s-18.3-190.2-51.7-229.8
			C1097,1209.4,1065.1,1293.1,1065.1,1293.1z"/>
		<path class="st5" d="M1356.2,1213c0,0-211.5-71.5-258.7-56.3c-47.2,15.2-188.8,297-188.8,297s3.2,4.3,11.9,7.5
			c8.1,3,27.8,2.8,27.8,2.8s127.8-109.6,143.1-141.5s21.3-62.4,36.5-59.4s196.3,74.6,237.4,32c41.1-42.6,30.3-98,30.3-98
			L1356.2,1213z"/>
		<path class="st6" d="M1227,880.2c-3.4-7-7.2-19.4-9-41.4c0.3,2.2,4.1,30,14.8,45.8c44,28.9,128.3,125.3,126.6,143.6
			c0,0,29.7-50.4,30.2-50.7c0,0,54.8-69.7-10.1-109.6c-33-20.3-32.8-46.3-31.5-68.9c1.4-22.6-9-120-75.1-94.5c0,0-10.6-4.7-15.4-4
			c0,0,3.9,0.7,5.9,2.8c-7.7-0.5-18.6,0.1-27.8,5.3C1211.4,722.4,1189.7,846,1227,880.2z"/>
		<path class="st3" d="M1235.4,886c-0.2,0.1,21.2,11.2,37.4,6.8c15.2-4.1,25.1-23.8,24.9-23.9c-6.4-1.3-8.3-10.1-8.1-48.1l-2.9,0.6
			l-48.9,9.7c0,0,1.1,15.4,1.1,29.9C1238.9,873.2,1238.2,884.7,1235.4,886z"/>
		<path class="st7" d="M1237.7,831.2c0,0,1.1,15.4,1.1,29.9c27.4-0.8,41.8-25.7,47.7-39.6L1237.7,831.2z"/>
		<path class="st6" d="M1291.6,816.2c0,0,14.3-22.6,17.8-42c2.5-13.8-4.6-65.1-56.1-57.7c0,0-15,1.5-29,11
			c-11.2,7.6-27.3,23.9-9.3,68.6l4.7,15.1L1291.6,816.2z"/>
		<path class="st3" d="M1228.6,844.9c0,0,64.7,1.1,64.8-39.2c0-40.3,8.4-67.3-32.9-69.7c-41.3-2.4-49.4,13-52.6,26.4
			C1204.5,775.8,1211.7,843.6,1228.6,844.9z"/>
		<path class="st6" d="M1289.7,743.4c0,0-44.2-30.2-58.2-9.3c-4.2-3.6-11.8-6.3-21.8,5.8c-15,18.2-1.7,50.3-1.7,50.3
			c6.2,0.7,7.6-20.4,10.8-30.7c2.4-7.7,10.6-15.6,14.4-19.1c5.6,12.7,21.2,43.2,42.6,48.7c27.2,7,39-0.3,39-0.3
			S1294,772.4,1289.7,743.4z"/>
		<path class="st8" d="M1379.5,1060.1c6.4-26.8-15.3-78.7-38-121.7c-20.6-39-41.9-70.6-43.8-69.4c-54.2,32.2-59.1,5.4-59.1,5.4
			s-49.3,6.5-63.2,30.6c-19.3,33.2-40.3,132.9-61,131.4c-9.5-0.7-104.8-36.5-104.8-36.5s-15.9,14.9-12.8,33.1
			c0,0,47.1,31.5,86.9,51.7c21.1,10.6,40.1,18.1,49,16c18.1-4.3,46.5-46.3,61.8-71.1c0-0.1,0.1-0.1,0.1-0.2
			c19.5,110.6-7,135.8,6.4,147.5c14.2,12.3,34.5-5.9,79.1,13.5c29.3,12.7,69.9,31.1,97.3,34.3c14.3,1.7,25.1-0.8,28.5-10.5
			C1416,1185.9,1367.3,1111.2,1379.5,1060.1z"/>
		<path class="st9" d="M1243,820.5c0,0-1.2,5.1-13.9,4.3c0,0-10.7-0.7-10.4-6.3C1218.6,818.5,1229,814.5,1243,820.5z"/>
		<path class="st10" d="M1405.9,1214.1c-3.5,9.7-14.2,12.2-28.5,10.5c-18.9-8.2-100.7-39.9-99.8-61.4c1.4-31.8,15.7-32.8,5.6-72
			c-8.1-31.5,47.2-96.3,59.3-109c22.7,43,43.5,51.2,37.1,78C1367.3,1111.2,1416,1185.9,1405.9,1214.1z"/>
		<path class="st10" d="M1194.4,1029.5c-15.3,24.8-43.6,66.8-61.8,71.1c-8.9,2.1-28-5.3-49-16c15.4,4,30.3,3.9,44.8,2.5
			c15.7-1.5,20.3-20.8,45.1-49.7C1189.6,1018.6,1193.6,1023.4,1194.4,1029.5z"/>
		<path class="st3" d="M1270.2,1090.4c0,0-13.7-10.7-26.6-8.1c-12.9,2.5-19.3,11.4-18.8,15.5c0.5,4.1,7.4,15.5,17.2,16.5
			c9.9,1,38-6.1,38-6.1L1270.2,1090.4z"/>
		<path class="st8" d="M1297.6,869c0,0,52.7,3.2,71,28.7c25.7,35.8,70.3,182.2,58.2,215.7l-160.5-0.7c0,0-3.9-18.2,1.5-27
			c5.4-8.8,93.3-23,97.4-27.1c4.1-4.1-50.7-79.1-50.7-91.3C1314.5,955.2,1297.6,869,1297.6,869z"/>
	</g>
	<g>
		<path class="st3" d="M1504.6,1099.2c0,0-14.7-4.9-21.7-3.4c-7.1,1.5-29,11.7-29.5,13.9c-0.5,2.2,0,3.8,0,3.8h51.3
			c0,0,11.5-2.2,13.4-9C1520,1097.8,1504.6,1099.2,1504.6,1099.2z"/>
		<path class="st11" d="M1695.8,1745.1c-0.4,4.2-2.7,6.9-6.4,8.5c0,0,0,0-0.1,0c-6.8,3-18.3,2.3-30.6,0.6c-1.6-0.2-3-0.4-4.3-0.5
			c-0.3,0-0.7-0.1-1-0.1c-0.3,0-0.5,0-0.8-0.1c-12.3-0.8-11.4,3-34.9,2.9c-26.8-0.1-35.9-9.2-37.1-13c-1-3.3,10.7-5.8,23.9-8.7
			c0.6-0.1,1.3-0.3,1.9-0.4c1.7-0.4,3.5-0.8,5.3-1.2c15.7-3.7,31.2-8.3,36.3-23.4c5.4-16,4.2-63.3,4.2-63.3h47.5
			c0,0-12.5,52.3-11.2,67.4c0.7,8,4.6,10.3,6,17.3c0.1,0.5,0.2,1,0.3,1.5C1695.5,1736.7,1696.2,1740.9,1695.8,1745.1z"/>
		<g>
			<path class="st12" d="M1751.1,1233.4c-4,22.5-9.7,45.8-14.7,70c-8,38.9-14,80.2-7.8,124.7c0.8,5.7,1.2,12.1,1.3,18.8
				c1.2,78.7-34,221.2-34,221.2s-9.5,4.1-25.5,3.3c-8.2-0.4-20.9-5.7-20.9-5.7s-3.3-88.4-3.5-207.3c-0.1-86.2-17.1-199.6-20.5-266.3
				c-2.1-40.3,2.4-94.1,2.4-94.1s70.1-56.3,95.2-27.5C1748,1099.1,1766.1,1149.2,1751.1,1233.4z"/>
		</g>
		<path class="st13" d="M1728.6,1428.1c0.8,5.7,1.2,12.1,1.3,18.8c-52.5-76-64.1-241.8-64.1-241.8l57.6,28c0,0,6.3,31.1,13,70.2
			C1728.5,1342.3,1722.4,1383.6,1728.6,1428.1z"/>
		<path class="st11" d="M1847.4,1745.1c-0.4,4.2-2.7,6.9-6.4,8.5c0,0,0,0-0.1,0c-6.8,3-18.3,2.3-30.6,0.6c-1.6-0.2-3-0.4-4.3-0.5
			c-0.3,0-0.7-0.1-1-0.1c-0.3,0-0.5,0-0.8-0.1c-12.3-0.8-11.4,3-34.9,2.9c-26.8-0.1-35.9-9.2-37.1-13c-1-3.3,10.7-5.8,23.9-8.7
			c0.6-0.1,1.3-0.3,1.9-0.4c1.7-0.4,3.5-0.8,5.3-1.2c15.7-3.7,31.2-8.3,36.3-23.4c5.4-16-2.3-62.6-2.3-62.6l44-3.7
			c0,0-2.7,53.1-1.4,68.2c0.7,8,4.8,12.5,6.3,19.5c0.1,0.5,0.2,1,0.3,1.5C1847.1,1736.7,1847.8,1740.9,1847.4,1745.1z"/>
		<path class="st12" d="M1841.2,1672.2c0,0-11.3,5.4-19.5,7s-25.1-1.6-25.1-1.6c-3.1-34.2-10.1-87.8-23.9-148.2
			c-15.7-68.8-39.1-150-71.6-227c-7-16.4-35.6-94.2-40.5-113.9c-14.7-59.3,0.1-52.9,0.1-52.9l128.6-15.1c0,0,15.8,8.1,23.1,91.9
			c2.2,25.1,2.5,133.4,5.7,153.9c3.1,19.4,6.8,35.6,11,46.1C1853.2,1471.2,1841.2,1672.2,1841.2,1672.2z"/>
		<path class="st14" d="M1847.4,1745.1c-0.4,4.2-2.7,6.9-6.4,8.5c0,0,0,0-0.1,0c-7.2,2.6-18.5,2-30.6,0.6c-1.6-0.2-3-0.3-4.3-0.4
			c-0.3,0-0.7-0.1-1-0.1c-0.3,0-0.5,0-0.8-0.1c-12.3-0.8-11.4,3-34.9,2.9c-26.8-0.1-35.9-9.2-37.1-13c-1-3.3,10.7-5.8,23.9-8.7
			c3.5,1.7,20,9.2,40.5,7.2c18.1-1.7,36.5-9,49.5-10.8c0.1,0.5,0.2,1,0.3,1.5C1847.1,1736.7,1847.8,1740.9,1847.4,1745.1z"/>
		<path class="st14" d="M1695.8,1745.1c-0.4,4.2-2.7,6.9-6.4,8.5c0,0,0,0-0.1,0c-7.2,2.6-18.5,2-30.6,0.6c-1.6-0.2-3-0.3-4.3-0.4
			c-0.3,0-0.7-0.1-1-0.1c-0.3,0-0.5,0-0.8-0.1c-12.3-0.8-11.4,3-34.9,2.9c-26.8-0.1-35.9-9.2-37.1-13c-1-3.3,10.7-5.8,23.9-8.7
			c3.5,1.7,20,9.2,40.5,7.2c18.1-1.7,36.5-9,49.5-10.8c0.1,0.5,0.2,1,0.3,1.5C1695.5,1736.7,1696.2,1740.9,1695.8,1745.1z"/>
		<path class="st15" d="M1644.4,735.4c-4.3-35.5,6.7-92.3,77.6-83.2c70.8,9.1,93.1,78.7,78.9,109.6c-14.3,31,20.6,38.4,31.5,71.7
			c9.4,28.6,12.7,64.1,27.9,80c49,51.4-47.1,130.4-105,113.7c-105.5-30.3-119.1-34.9-115.4-117.8c1.9-42.5,35-58.9,14-71.2
			C1603.1,808.6,1654.2,815.7,1644.4,735.4z"/>
		<path class="st3" d="M1748.5,828.4l-19.5,50.4l-42.2,2.1l-21-31.4c23.8-18.1,22.8-52.6,21.6-64.7c-0.3-2.7-0.5-4.3-0.5-4.3
			l52.7-16c0.6,13.9,1.4,24.8,2.3,33.3C1744.8,827.6,1748.5,828.4,1748.5,828.4z"/>
		<path class="st3" d="M1665.7,826.5c2.7,0,48.7-9.4,126.4,10.5c0,0-42.5,194.9-28.1,231.6c14.5,36.7,19.9,69.3,19.9,69.3
			l-156.8,1.9c0,0,2.2-126.1-5-170.7C1614.9,924.6,1665.7,826.5,1665.7,826.5z"/>
		<path class="st8" d="M1781.3,1043.9c2.3,25.8,26.4,84.8,21.2,97.3c-5.5,13.2-13.1,19.9-29.7,23.7c-11.5,2.6-27.2,3.9-49.5,5
			c-47.2,2.3-97.8-3.6-104.7-26c-3.3-10.8-2-52.5-0.3-71.7c3.6-39.8-4-97-5.1-134c-0.9-30.9,17.7-101.1,17.7-101.1
			s8.4-5.3,34.7-10.6c0,0,2.8,36.5,21.8,39.6c32.9,5.4,59.4-24.7,67.2-36.8c0,0,37.8,9.5,48.9,22.2c10.5,12-3.9,100.7-7.1,109.2
			c-2.8,7.3-5.4,14.4-7.6,21.6C1782.8,1001.1,1779.1,1020.3,1781.3,1043.9z"/>
		<path class="st3" d="M1915.8,1099.4c0,0,14.7-4.8,21.7-3.4c7.1,1.5,29,11.6,29.5,13.8c0.5,2.2,0,3.7,0,3.7h-51.3
			c0,0-11.5-2.2-13.4-8.9C1900.5,1097.9,1915.8,1099.4,1915.8,1099.4z"/>
		<path class="st7" d="M1741.9,801c-19.2-12.9-43.4-13.5-54.4-13c-0.3-2.7-0.5-4.3-0.5-4.3l52.7-16
			C1740.3,781.6,1741.1,792.5,1741.9,801z"/>
		<path class="st3" d="M1673.2,784c0,0,63.1,12.7,70.4-26.7c7.3-39.4,20.3-64.3-19.6-74.1c-40-9.8-50.6,3.8-56.2,16.4
			S1657,779.7,1673.2,784z"/>
		<path class="st15" d="M1755.8,685.8c-10.7-12-26.1-14.3-37.3-14.2c6.8-8.2-20.5-26.2-51.6,4.5c-13.4,13.2-11.4,39.2-4.2,54.3
			c0,0,11-32.3,31.1-39.3c4.5-1.6,8.7-4.2,12.6-7.3c2.4,6.1,7.4,14.8,17.3,25.6c20.7,22.7,16.7,68.5,16.7,68.5
			S1774.4,706.8,1755.8,685.8z"/>
		<path class="st9" d="M1692.8,764.6c0,0-1.7,4.7-13.6,2.6c0,0-10-1.8-9.1-7C1670.2,760.1,1680.4,757.5,1692.8,764.6z"/>
		<path class="st16" d="M1865.9,1005c-23.9-92.1-37-144.7-56.5-160.6c-17.3-14.1-54.6-15.4-54.6-15.4c-0.6,11.1-0.1,22.2,1.3,33.2
			l-45.9,87.4c0,0-23.5,46.5-31.9,97.4c-6.3-50.5-12.6-97.4-12.6-97.4s-5.9-29.9-7.8-57.2c5.5-21.3,5-43.6,7.5-65.9l-2.9,0.2
			c-9.1,0.6-37.3,3.5-51.7,15.3c-19.6,16.1-23.9,86.6-56.5,162c0,0-39.5,66.4-52,92.7c0,0,2.4,3.6,7.1,6.3
			c4.6,2.6,10.3,3.7,10.3,3.7s71.2-70.1,75.9-81.2c1.5-3.6,10.2-16.4,20.8-35.2v0c0,0,2.8,100.2-3.4,143.4
			c-1.3,9.2,3.1,18.2,11.1,22.7c44,24.8,175.7,92.5,200.2,26.8c2.7-7.4-45.4-132.5-38.8-159.6c2.1-8.7,4.9-28.4,7.7-51.3
			c15.1,28.9,29.3,49.2,31.3,54c4.7,11,75.9,80.5,75.9,80.5s5.8-1,10.3-3.6c4.7-2.7,7.1-6.3,7.1-6.3
			C1905.4,1070.8,1865.9,1005,1865.9,1005z"/>
		<path class="st17" d="M1752.3,828.8l-42.1,120.9l42.1-39.8l-3.2-12.4c0,0,9.7,0.9,13.6-1.7c3.9-2.5,13.1-64.3,13.1-64.3
			s-8.6-1.4-11.4-1.8C1761.4,829.4,1752.3,828.8,1752.3,828.8z"/>
		<path class="st17" d="M1665.6,826.5c0,0-8.9,95.6,0.2,123.1c0,0-26-41.2-21.2-49.8l9.4-6.2c0,0-18.2-2.4-14.8-12.8
			c3.4-10.5,18.1-52.9,18.1-52.9L1665.6,826.5z"/>
	</g>
	<g>
		<polygon class="st18" points="736,1772.1 2189.7,1772.1 2189.7,1442.6 736,1439.3 		"/>
		<rect x="736" y="1175.7" class="st18" width="1453.6" height="86.2"/>
	</g>
	<path class="st5" d="M2252.6,1175.7H635c-15.3,0-27.7-12.4-27.7-27.7v-6.6c0-15.3,12.4-27.7,27.7-27.7h1617.7
		c15.3,0,27.7,12.4,27.7,27.7v6.6C2280.4,1163.2,2268,1175.7,2252.6,1175.7z"/>
	<path class="st19" d="M933.2,1113.8c-0.1,0.1-0.3,0.2-0.5,0.3l0.1-0.3H933.2z"/>
	<g>
		<path class="st20" d="M542,1768.5H437.4c-1.4-2.4-2.2-6.4-2.7-10.9c-1.1-11.5,0.5-26.2,0.5-26.2s34.7-29,40.1-7.5
			c5.3,21.5,34.2,30.7,50.6,33C537.3,1758.5,540.9,1764.8,542,1768.5z"/>
		<path class="st20" d="M450,1768.5H342.2c-4.4-9.8-1.6-37.1-1.6-37.1s34.7-29,40.1-7.5c5.3,21.5,34.2,30.7,50.6,33
			c1.2,0.2,2.3,0.4,3.4,0.7C443.2,1759.8,447.7,1764.9,450,1768.5z"/>
		<path class="st15" d="M389.8,1187.6c0,0,0.1,3.9,0.2,10.9c1,45.1,4.8,219.6,8.5,316.8c0.2,3.5,0.3,7,0.4,10.3
			c0.1,1.8,0.1,3.5,0.2,5.3c2.2,47,8.6,93.1,15,129.9c8.2,47,16.6,78.9,16.6,78.9c31.3,6.3,51.6-5.6,51.6-5.6s8.4-72.9,11.7-117
			c1.1-14.3,6.2-63.1,12.7-122.6c5-45.9,10.8-98.2,16.1-145.7c0.3-2.5,0.6-5.1,0.8-7.6c8.6-76.8,15.7-139.4,15.7-139.4l-55.4-5.3
			L389.8,1187.6z"/>
		<path class="st20" d="M414.1,1660.8l92.5-166.2c5-45.9,10.8-98.2,16.1-145.7c0.3-2.5,0.6-5.1,0.8-7.6
			c8.6-76.8,15.7-139.4,15.7-139.4l-55.4-5.3l-94,1.9L414.1,1660.8z"/>
		<path class="st15" d="M529.1,1202.3c0,0-51.8,255.9-94,379.4c-42.2,123.5-42.7,157.8-42.7,157.8s-38.7,8.4-55.8-1.4
			c0,0-9.7-234.2,15.8-296.3c16.9-41.1,29.8-128.7,25.4-160.2c-4.4-31.5-8.5-94.8-8.5-94.8L529.1,1202.3z"/>
		<path class="st3" d="M468.1,852.9L417,838.5c0,0,8.7-21.2,11.7-43.4c1.7-12.3,1.6-24.9-2.7-34.2c-0.3-0.6-0.6-1.2-0.8-1.7
			c-1.9-3.6-0.8-5.3,1.8-5.7c4.6-0.8,13.8,2.5,17.6,5.7c5.9,4.9,34.1,19.2,35.6,20c0.1,0,0.1,0,0.1,0s0,0.2,0.1,0.6l0,0
			c0.2,1,0.5,3.1,0.8,6C482.5,799.4,483.8,831.1,468.1,852.9z"/>
		<path class="st18" d="M383.2,1216c12.2,8.7,31.5,11.8,52.8,11.5c24.8-0.4,52.3-5.5,74.2-12.1c11.8-3.5,22-7.5,29.4-11.3
			c32.8-17.1,28.1-39.9,27.3-125c-0.8-86.9-54.3-199.3-63.9-218.1c-17.1-33.5-94.1-21.1-94.1-21.1c-16.9,8.1-22.9,35.1-24.5,70.3
			c-1.8,39.1,1.7,88.5,1.7,133.5c0,37.2-7,70.1-12.1,97.4C367.3,1176.3,363.8,1202.3,383.2,1216z"/>
		<path class="st21" d="M373.9,1140.9c14.8,31.2,44,66.3,62,86.5c24.8-0.4,52.3-5.5,74.2-12.1c9.2-22.1,13.3-59,4.7-119.9
			c-6.5-46.4-53.9-233.3-53.9-233.3c-38.3-5-62.1,15.9-76.7,47.9c-1.8,39.1,1.7,88.5,1.7,133.5C386,1080.7,379,1113.6,373.9,1140.9z
			"/>
		<path class="st21" d="M552.6,1289.4h-34.8v-10.8c0-17.9-14.6-32.5-32.5-32.5h-28.8c-17.9,0-32.5,14.6-32.5,32.5v10.8h-34.8
			c-10.4,0-19,8.5-19,19v88.5c0,10.4,8.5,19,19,19h163.3c10.4,0,19-8.5,19-19v-88.5C571.6,1297.9,563,1289.4,552.6,1289.4z
			 M436.9,1278.6c0-10.8,8.8-19.6,19.6-19.6h28.8c10.8,0,19.6,8.8,19.6,19.6v10.8h-68V1278.6z"/>
		<path class="st3" d="M480.9,1224.3c0,0,20,38.6,10,53.6c-10,15-45.8-4.3-48.6-12.9c-2.9-8.6,0-50.1,0-50.1L480.9,1224.3z"/>
		<path class="st18" d="M395.3,922.2c0,0,7.4,106.3,7.4,150.2c-0.1,44,34.9,160.9,34.9,160.9s23.2,1.9,32.2,0.7
			c10.5-1.3,16.7-6.2,16.7-6.2s-7.7-138.1,7-191.1c14.7-52.9,15.4-159.3,15.4-159.3s-8.1-23-56.9-15.7
			C394.1,870.4,395.3,922.2,395.3,922.2z"/>
		<path class="st21" d="M416,802.2c-3.7,12.8-8.9,32.7-7.1,37.6c0,0,72.2,7.6,101.1,35.7c0,0-10.4-38.4-22-48.5
			c-8.4-7.4-40.9-23.1-58-31.2C424.3,793.1,417.7,796.2,416,802.2z"/>
		<path class="st7" d="M481.1,785.8c-5.7,0-41.4,0.1-51.5,8.6c-0.4,0.3-0.7,0.5-1,0.7c1.7-12.3,1.6-24.9-2.7-34.2
			c0.4-2.9,0.7-5.4,1-7.4c4.6-0.8,13.8,2.5,17.6,5.7c5.9,4.9,34.1,19.2,35.6,20l0.2,0.6l0,0C480.5,780.8,480.8,782.9,481.1,785.8z"
			/>
		<path class="st3" d="M504.1,783.5c0,0-59.1,11.3-65.5-25.6c-6.5-36.9-18.5-60.3,19-69c37.4-8.8,47.2,4,52.4,15.8
			C515.1,716.5,519.3,779.7,504.1,783.5z"/>
		<path class="st20" d="M428,774c0,0,3.1-2.3-8.9-20.5c-12-18.1-17.6-13.1-17.8-32.5c-0.1-19.3-7.3-30.9,15.1-43.5
			c22.4-12.6,18.8-24.2,32.3-27c13.4-2.8,33,8.3,44.5,6c11.5-2.3,47.7,44.7,24.5,55.8c0,0-10.8,0.5-18.3-4.1
			c-7.6-4.7-35.3-9.4-38.5-0.9C457.7,715.8,440.1,767.5,428,774z"/>
	</g>
	<path class="st22" d="M3648.3,1774.2H243c-1.5,0-2.8-1.2-2.8-2.8l0,0c0-1.5,1.2-2.8,2.8-2.8h3405.3c1.5,0,2.8,1.2,2.8,2.8l0,0
		C3651,1773,3649.8,1774.2,3648.3,1774.2z"/>
	<g>
		<path class="st23" d="M1267.6,965l-31.4-4.5c-2.1-0.3-3.6-2.3-3.3-4.4l2-14.1c0.3-2.1,2.3-3.6,4.4-3.3l31.4,4.5
			c2.1,0.3,3.6,2.3,3.3,4.4l-2,14.1C1271.7,963.8,1269.7,965.3,1267.6,965z"/>
		
			<rect x="1238.7" y="943.4" transform="matrix(0.99 0.1411 -0.1411 0.99 146.5022 -165.9694)" class="st24" width="10.3" height="13.9"/>
		<path class="st24" d="M1267.5,950.2l-12.7-1.8c-0.9-0.1-1.6-1-1.5-2l0,0c0.1-0.9,1-1.6,2-1.5l12.7,1.8c0.9,0.1,1.6,1,1.5,2l0,0
			C1269.3,949.6,1268.5,950.3,1267.5,950.2z"/>
		<path class="st24" d="M1267.9,955.1l-14.9-2.1c-0.4-0.1-0.6-0.4-0.6-0.7l0,0c0.1-0.4,0.4-0.6,0.7-0.6l14.9,2.1
			c0.4,0.1,0.6,0.4,0.6,0.7l0,0C1268.6,954.9,1268.3,955.1,1267.9,955.1z"/>
		<path class="st24" d="M1267.6,957.2l-14.9-2.1c-0.4-0.1-0.6-0.4-0.6-0.7l0,0c0.1-0.4,0.4-0.6,0.7-0.6l14.9,2.1
			c0.4,0.1,0.6,0.4,0.6,0.7l0,0C1268.3,957,1268,957.2,1267.6,957.2z"/>
	</g>
	<g>
		<path class="st23" d="M1776.1,947.4l-28.9-1.8c-1.9-0.1-3.4-1.8-3.3-3.7l0.8-12.9c0.1-1.9,1.8-3.4,3.7-3.3l28.9,1.8
			c1.9,0.1,3.4,1.8,3.3,3.7l-0.8,12.9C1779.8,946,1778.1,947.5,1776.1,947.4z"/>
		
			<rect x="1748.7" y="929.4" transform="matrix(0.9981 6.146153e-02 -6.146153e-02 0.9981 60.8275 -106.0001)" class="st24" width="9.4" height="12.7"/>
		<path class="st24" d="M1775,933.9l-11.7-0.7c-0.9-0.1-1.5-0.8-1.5-1.7l0,0c0.1-0.9,0.8-1.5,1.7-1.5l11.7,0.7
			c0.9,0.1,1.5,0.8,1.5,1.7l0,0C1776.6,933.3,1775.8,934,1775,933.9z"/>
		<path class="st24" d="M1775.7,938.3l-13.7-0.8c-0.3,0-0.6-0.3-0.6-0.6l0,0c0-0.3,0.3-0.6,0.6-0.6l13.7,0.8c0.3,0,0.6,0.3,0.6,0.6
			l0,0C1776.3,938.1,1776,938.3,1775.7,938.3z"/>
		<path class="st24" d="M1775.6,940.3l-13.7-0.8c-0.3,0-0.6-0.3-0.6-0.6l0,0c0-0.3,0.3-0.6,0.6-0.6l13.7,0.8c0.3,0,0.6,0.3,0.6,0.6
			l0,0C1776.2,940,1775.9,940.3,1775.6,940.3z"/>
	</g>
	<path class="st17" d="M1684.2,1051.5c0-2.5,2-4.5,4.5-4.5s4.5,2,4.5,4.5c0,2.5-2,4.5-4.5,4.5S1684.2,1054,1684.2,1051.5z"/>
	<path class="st17" d="M1684.2,1080c0-2.5,2-4.5,4.5-4.5s4.5,2,4.5,4.5c0,2.5-2,4.5-4.5,4.5S1684.2,1082.5,1684.2,1080z"/>
	<g>
		<g>
			<path class="st25" d="M3470.8,1571.5c0,0-31.6-36.9-2-60.4c0,0,21.7-13.1,39.4-12.1c0,0-25.1,42-17,46.2
				c8.1,4.2,24.5-48.8,24.5-48.8s49.4-4.8,65.2,2.8c0,0-42.2,34.5-33.3,36.6s54.5-31.8,54.5-31.8s45.9,7.8,43.5,35.8
				c-2.4,28-18.3,36.7-25.2,35.9c-7-0.7-47.6-16.3-48.5-10.6c-0.9,5.7,23.6,24.3,40.8,25.2c0,0-32.4,35.7-53.9,25.4
				c-21.5-10.3-23.4-26.6-36.8-32.8c-13.4-6.1-24.9-6.1-19.3,0.1s29.8,12.3,37.5,25.9c7.7,13.6,14.6,22.7-7.7,19.4
				c-22.3-3.4-58.5-19.6-60.1-38.3C3470.8,1571.5,3470.8,1571.5,3470.8,1571.5z"/>
			<g>
				<path class="st25" d="M3623.1,1540.6c0,0-124.8-4.8-152.3,30.9c0,0-6.1,18.2-24.8,34.9l-2.9,8c0,0,21.6-22.8,29.4-24.2
					C3472.4,1590.2,3460.3,1545.9,3623.1,1540.6z"/>
				<path class="st25" d="M3445.9,1606.4c0,0-26.8,19.8-28.6,55.2l4.9,0.4c0,0,8.6-36.6,24-50.9
					C3461.6,1596.8,3445.9,1606.4,3445.9,1606.4z"/>
			</g>
		</g>
		<g>
			<path class="st26" d="M3360.2,1525.1c0,0,50.3-28.2,26.8-66.4c0,0-18.8-23.5-38.9-29.5c0,0,10.7,57,0,58.4
				c-10.7,1.3-7.4-64.4-7.4-64.4s-53-25.5-73.8-23.5c0,0,32.9,55.7,22.1,54.4c-10.7-1.3-47.6-57.7-47.6-57.7s-54.4-10.1-63.1,22.1
				s5.4,48.3,13.4,50.3c8.1,2,59.7,1.3,58.4,8.1c-1.3,6.7-36.2,17.4-55.7,11.4c0,0,21.5,53,49.7,50.3c28.2-2.7,36.9-20.1,54.4-21.5
				c17.4-1.3,30.2,3.4,21.5,8.1c-8.7,4.7-38.3,1.5-52.3,13.5c-14.1,12-25.5,19.4,0.7,24.7c26.2,5.4,73.2,2,82.5-18.1
				C3360.2,1525.1,3360.2,1525.1,3360.2,1525.1z"/>
			<g>
				<path class="st25" d="M3203.1,1428.4c0,0,140.9,45.6,157,96.6c0,0-0.7,22.8,13.4,49v10.1c0,0-14.8-34.2-22.8-38.9
					C3350.8,1545.2,3382.3,1500.9,3203.1,1428.4z"/>
				<path class="st25" d="M3373.6,1574.1c0,0,21.7,33,9.3,73.2l-5.6-1.5c0,0,5.4-44.3-5.9-66.5S3373.6,1574.1,3373.6,1574.1z"/>
			</g>
		</g>
		<g>
			<path class="st26" d="M3440.2,1486.2c0,0-66.3-37.2-35.4-87.6c0,0,24.8-31,51.3-38.9c0,0-14.2,75.2,0,77
				c14.2,1.8,9.7-84.9,9.7-84.9s69.9-33.6,97.3-31c0,0-43.3,73.4-29.2,71.7s62.8-76.1,62.8-76.1s71.7-13.3,83.2,29.2
				c11.5,42.5-7.1,63.7-17.7,66.3c-10.6,2.7-78.7,1.8-77,10.6c1.8,8.8,47.8,23,73.4,15c0,0-28.3,69.9-65.5,66.3
				c-37.2-3.5-48.7-26.5-71.7-28.3c-23-1.8-39.8,4.4-28.3,10.6c11.5,6.2,50.4,2,69,17.8c18.6,15.8,33.6,25.5-0.9,32.6
				c-34.5,7.1-96.4,2.7-108.8-23.9C3440.2,1486.2,3440.2,1486.2,3440.2,1486.2z"/>
			<g>
				<path class="st25" d="M3647.2,1358.8c0,0-185.8,60.2-207,127.4c0,0,0.9,30.1-17.7,64.6v13.3c0,0,19.5-45.1,30.1-51.3
					C3452.6,1512.7,3411,1454.3,3647.2,1358.8z"/>
				<path class="st25" d="M3422.5,1550.8c0,0-28.6,43.5-12.3,96.5l7.4-2c0,0-7.2-58.3,7.8-87.7
					C3440.4,1528.3,3422.5,1550.8,3422.5,1550.8z"/>
			</g>
		</g>
		<path class="st8" d="M3438,1762.1c71.8,0,130-58.2,130-130H3308C3308,1703.9,3366.2,1762.1,3438,1762.1z"/>
		<path class="st27" d="M3470,1761.1c-5.3,0.7-10.7,1-16.1,1c-71.8,0-130-58.2-130-130h32.3
			C3356.2,1698.4,3405.8,1753.1,3470,1761.1z"/>
		<path class="st8" d="M3569.8,1768.7h-263.5l0,0c0-8.9,7.2-16,16-16h231.5C3562.6,1752.7,3569.8,1759.8,3569.8,1768.7
			L3569.8,1768.7z"/>
		<rect x="3303.8" y="1632.1" class="st28" width="267.2" height="4"/>
	</g>
	<g>
		<path class="st3" d="M3230.4,1753.8c0,0-34.7-39.7-44.5-57.8l-27-49.9l-35.4,8.7l44.9,63.6l46.9,39.7L3230.4,1753.8z"/>
		<path class="st29" d="M3006.8,779.1c-8.2-4.6-17.9-5.1-24.8-4.7c1.8-1.8,5.2-2.5,5.2-2.5c-4.2-0.6-13.7,3.6-13.7,3.6
			c-59-22.7-68.2,64.1-67,84.3c1.2,20.2-19.8,26.8-50.5,42.7c-58.5,30.3-63.7,70.9-63.7,70.9c0.5,0.3,0.9,0.6,1.4,0.9
			c2.9-4.9,8.9-14.2,13.9-15.6c-0.2,0.4-6,12.7-8.1,19.8c17.3,13.1,49.6,42.2,72.1,62.9c-0.1-4,0.1-9.8,1.5-12.8l2.8,16.8
			c12,11.1,20.4,18.9,20.4,18.9c-1.5-16.3,73.7-102.3,113-128.1c9.6-14.1,12.9-38.9,13.2-40.9c-1.6,19.7-5,30.8-8,37
			C3047.8,901.6,3028.4,791.3,3006.8,779.1z"/>
		<path class="st3" d="M3007,937.3c0.2,0.1-18.9,10-33.3,6.1c-13.5-3.7-22.4-21.3-22.2-21.3c5.7-1.1,7.4-9,7.3-42.9l2.6,0.5
			l43.6,8.6c0,0-1,13.7-1,26.6C3003.9,925.9,3004.6,936.2,3007,937.3z"/>
		<path class="st30" d="M2957.7,793.3c0,0,21.5-22.9,48.5-1.2C3006.3,792.1,2990.5,789.4,2957.7,793.3z"/>
		<path class="st31" d="M3005,888.4c0,0-1,13.7-1,26.6c-24.4-0.7-37.3-22.9-42.6-35.3L3005,888.4z"/>
		<path class="st29" d="M2956.8,875c0,0-12.8-20.2-15.9-37.5c-2.2-12.3,4.1-58.1,50-51.5c0,0,13.3,1.3,25.9,9.8
			c10,6.7,24.4,21.3,8.3,61.2l-4.2,13.5L2956.8,875z"/>
		<path class="st32" d="M3178.8,1678.6l-23.1,0.7l-25,0.8c0,0-57.8-64.3-90.2-167.5c-0.8-2.4-1.6-4.8-2.4-7.3
			c-17.7-51.7-54.5-116.7-73.9-175.4c-3.1-9.4-5.9-18.2-8.3-26.5c-0.8-2.7-1.6-5.3-2.3-7.9c-14.3-49.6-18.4-82.2-22.2-117l139.9,1.1
			C3071.2,1179.6,3093.8,1417.3,3178.8,1678.6z"/>
		<path class="st8" d="M3061.4,1194.4c0,0-59.9,30.4-131.1,8c-0.8-0.3,4.7-275.3,24.9-282.9c4.6,5.8,18.4,11.6,30.7,11.3
			c14.2-0.3,18.8-6.4,18-13c15.1,8.4,27.2,16.4,27.2,16.4C3043.9,956.5,3061.4,1194.4,3061.4,1194.4z"/>
		<path class="st19" d="M2931.2,1106.6c-6.1,8.7-17.8,61.3-47,67.9c15-37.5,26.5-54,28.2-65.5c3.3-21.5,3.4-43.8,1.7-64.8
			c9.8-17.1,17.1-28.9,17.1-28.9c0.8-2.8,15.5-48.4,20.3-7.6C2956.2,1048.6,2938.1,1097,2931.2,1106.6z"/>
		<path class="st3" d="M3013.1,900.6c0,0-57.7,1-57.8-35c0-36-7.5-60.1,29.3-62.2c36.9-2.1,44,11.6,47,23.6
			C3034.6,839,3028.1,899.4,3013.1,900.6z"/>
		<path class="st29" d="M3011,802.5c0,0-15.8,42.2-40.1,48.4c-24.3,6.2-34.8-0.3-34.8-0.3s18.6-14.8,22.5-40.6
			C2958.6,810.1,2999,782.5,3011,802.5z"/>
		<path class="st29" d="M3007,806c0,0,11.8,9.4,14.7,18.6c2.9,9.2,4.2,28,9.7,27.4c0,0,11.9-28.7-1.5-44.9
			C3015.7,789.8,3007,806,3007,806z"/>
		<path class="st3" d="M3245.4,960.3c0,0,8.1-29.3,40.4-25.2c3.7,1.2,14.5,5.5,7.6,17c-5.1,8.5-7.3,4.1-15.3,15.6
			c-8,11.5-16.7,14.1-26.7,12.7L3245.4,960.3z"/>
		<path class="st3" d="M2969.9,1747.9c-2-10.8-5.7-29.5-5.7-29.5l0.9-66.3h-40.3l15.1,63.5c0.3,2.9,1.1,14.4-3.1,26.5
			c0,0-3.9,17.6,13.5,17.9C2967.6,1760.3,2971.8,1758.7,2969.9,1747.9z"/>
		<path class="st33" d="M2971.5,1768.6h-36.1c-1.8-9.4,1.3-26.5,1.3-26.5c19.6,19,31.9-0.5,31.9-0.5
			C2971.6,1749.1,2971.5,1765.8,2971.5,1768.6z"/>
		<path class="st33" d="M3247.3,1768.8h-44.5c-3.9-3.6-7.6-10.7-12.1-19.9c-2.6-5.3-8.5-8.3-14.5-9.9v29.8h-9.2l-8.5-31.7
			c-5.7-10.7-1.3-20.3,2.7-28.7c4.6,0,18,3.2,41.6,30.5c7.8,9,16.3,12.2,24.9,11.9c0.1,0.1,0.2,0.1,0.4,0.2
			C3241.4,1757,3245.8,1764.5,3247.3,1768.8z"/>
		<path class="st16" d="M3245.4,960.3c0,0-37.9,21.2-51.4,27.3c-7.7,3.5-25.5,11.8-38,17.7c-8,3.7-17.4,1.7-23.1-5
			c-20.5-24-74-76-128.9-82.4c0,0,33.4,82.5,34.4,99.2c1,16.7,3.9,273.1,3.9,273.1s-2,11.8,20.6,6.9c22.6-4.9,28.5-9.8,28.5-9.8
			s-21.6-158.2-15.7-213.2c1.2-10.8,0.1-23-2.3-35.6c33.5,20.4,73.1,29.4,73.1,29.4s29.6-12.9,70.1-42.6c12.7-9.3,35-44.8,35-44.8
			L3245.4,960.3z"/>
		<path class="st19" d="M3155.6,1679.3l-25,0.8c0,0-57.8-64.3-90.2-167.5c-0.8-2.4-1.6-4.8-2.4-7.3
			c-17.7-51.7-54.5-116.7-73.9-175.4c-3.1-9.4-5.9-18.2-8.3-26.5c-0.8-2.7-1.6-5.3-2.3-7.9l20.6-15.6c0,0,61.9,100.2,81,194.5
			C3071.7,1556.3,3138.4,1654.8,3155.6,1679.3z"/>
		<path class="st32" d="M2976.2,1483.2c0.4,45.9-2,151.3-7.9,194.9h-22.2c-12.2,0-18.4-0.2-18.4-0.2c-15-75.9-25.6-138.7-33.4-192.8
			c-6.4-44.4-12-82.5-16.4-115.2c-4.4-33-7.4-60.6-8.5-83.9c-0.2-3.7-0.3-7.2-0.4-10.7c-0.1-3.5-0.1-6.9-0.1-10.2l120.9-11.8
			C2988.5,1333.6,2976,1456.5,2976.2,1483.2z"/>
		<path class="st19" d="M2946.1,1678.1c-12.2,0-18.4-0.2-18.4-0.2c-15-75.9-25.6-138.7-33.4-192.8c-6.4-44.4-12-82.5-16.4-115.2
			c-4.4-33-7.4-60.6-8.5-83.9l44.4,26.1c0,0-28.3,10-17.5,85.6C2907.1,1473.3,2931.1,1667.4,2946.1,1678.1z"/>
		<path class="st16" d="M2951.8,1285.2c0,0-8.5,30.8-38,26.8c-29.5-3.9-71.4-21.6-71.4-21.6s12.6-39.8,28.2-92.1
			c0.2-0.5,0.3-1.1,0.5-1.7c18.5-61.7,41.1-140.3,52.3-191.4c0.2-1.1,0.5-2.2,0.7-3.2c3.1-14.4,5.2-26.5,6-35.1l24.9-47.4
			c0,0,36,81.8,38,102.4C2995.1,1042.6,2951.8,1285.2,2951.8,1285.2z"/>
		<path class="st3" d="M2922.4,1018.9l32.7-99.3c-0.1,0-41.2,12.1-61.7,22.4c0,0-12.8,16.5-20.7,54.5c0,0-8.4,91.3,10.3,124.7
			c0,0,58.9,11.8,153.2-20.6v-21.6c0,0-103.1,5.4-124.3,7.9L2922.4,1018.9z"/>
		<path class="st17" d="M2947.7,1065.2c-1.3,33-9,96.5-76.5,131.5c18.5-61.7,41.1-140.3,52.3-191.4
			C2935.8,1024.1,2948.4,1047.8,2947.7,1065.2z"/>
		<path class="st16" d="M2955.1,919.6c0,0-60.3,4.2-74.7,36.3c-14.4,32.1-19,138.8-0.7,170.3c0,0,25.2,7.2,69.9-1.2
			c0.5-0.1,1.1-0.2,1.7-0.3c0,0,14.2-34.9,1.5-41.7c0,0-37.7,2-33.7-10.5C2923,1060,2955.1,919.6,2955.1,919.6z"/>
		<path class="st3" d="M3025.7,1084.7c0,0,8.2-10,10-20.1c1.8-10.2,7.2-17.7,21.4-19.6s20.3-2.1,20.2,1.9c0,4-11.6,31.9-31.9,48.6
			C3025,1112.2,3025.7,1084.7,3025.7,1084.7z"/>
	</g>
	<polygon class="st34" points="747.4,1439.3 2189.7,1442.6 2189.7,1261.9 747.4,1261.9 	"/>
	<g>
		<path class="st3" d="M1063,1113.8h-61.8c-0.1,0.1-0.3,0.2-0.5,0.3l0.1-0.3l6.7-12.8c0,0,2-1,5.1-2.3c6.5-2.7,17.6-6.5,23.2-3.9
			C1043.6,1098.5,1060.7,1107,1063,1113.8z"/>
		<path class="st35" d="M1012.8,1098.9c0,0-2.6,9.7-11.6,14.9c-0.1,0.1-0.3,0.2-0.5,0.3l0.1-0.3H893.3c-3.3-2.9-8.8-8.6-14.3-17.6
			c-1.7-2.8-3.4-6-5.1-9.5c-5.3-11.4-9.8-26.6-11.1-46.1c-2.6-37.8-5.3-100.2-6.7-136.7c-0.7-17.6-1.1-29.1-1.1-29.1l0,0
			c0.7,0.4,42.6,28.1,51.3,113.7c0,0,2.2,68.8,9.9,74.2c7.6,5.4,89.1,27.4,96.5,36.2C1012.7,1098.8,1012.7,1098.8,1012.8,1098.9z"/>
		<g>
			<path class="st15" d="M840.9,748.2c0,0-5.5-79-108.2-49.1c-23.3,6.8-20.3,77.1,36.1,103.9L840.9,748.2z"/>
			<path class="st16" d="M799.9,852.5c0,0,40.2,7.3,55.1,22.2c14.9,14.9,50.1,58.9,27.9,205.4c0,0-1.8,44.2-51.4,48.4
				C781.8,1132.8,799.9,852.5,799.9,852.5z"/>
			<path class="st36" d="M707.5,1217c6.9,48.1,53.3,173.1,51.9,216.3c-1.1,34-0.5,112.7,4,165c1.2,14.2,2.7,26.4,4.6,35.3
				c4,19.3,9.1,41.5,11.9,55.5c6.1,31.4,2.9,49.7,7.9,66.6c5.5,18.4,68.7,15.1,49.7,3.9c-6.8-4-16.7-12.5-21.6-23.4
				c-17.8-39.8,7.1-211.3,14.6-277.4c1-8.3,1.6-14.8,1.9-19.3c2.5-40.8,30.5-313,30.5-313C794.7,1088.4,700.7,1168.9,707.5,1217z"/>
			<path class="st37" d="M707.5,1217c6.9,48.1,53.3,173.1,51.9,216.3c-1.1,34-0.5,112.7,4,165l67-139.7c1-8.3,1.6-14.8,1.9-19.3
				c2.5-40.8,31.2-313.1,31.2-313.1C795.5,1088.3,700.7,1168.9,707.5,1217z"/>
			<path class="st36" d="M855.3,1135.1c0,0-58.5,268.8-65.1,309.2c-6.6,40.4-59.9,230.4-48.3,278c6.8,28.1,18.8,36.4,18.8,36.4
				c2.8,5.2-43.4,15.4-47.2-4.3c-4.7-25-5.7-60.2-12.7-119.7c-12-102.5,11.8-160.9,17.5-203.7c5.8-42.9-19.3-179.1-5.4-225.6
				C737.2,1123.9,791.5,1090.5,855.3,1135.1z"/>
			<path class="st16" d="M871,1372.3c-10.3,4.3-21.7,7.4-33.6,9.7c0,0-0.1,0-0.1,0c-11.6,2.2-23.7,3.6-35.7,4.5
				c-16.9,1.1-33.5,1.1-48.3,0.5l-4.3-49.8l-4.5,18l-7.7,30.9c-7.1-0.5-13.5-1.1-18.9-1.6c-11.6-1.2-18.7-2.3-18.7-2.3
				c-13.1-108,2.6-176.1,20.4-216.3c0,0,0,0,0,0c5.6-12.7,11.5-22.7,16.6-30.2c2.8-4,5.4-7.4,7.7-10.1c1.9-2.2,3.5-4,4.9-5.4
				c2.6-2.7,4.2-3.9,4.2-3.9c6.1,2.3,12,4.3,17.8,5.9c4.2,1.2,8.2,2.2,12.2,3.1c0.1,0,0.1,0,0.2,0c2.7,0.6,5.4,1.1,8.1,1.6
				c1,0.2,2,0.3,2.9,0.5c3.1,0.5,6.2,0.9,9.2,1.3c17.2,2,31.8,1.5,42.4,0.4c9.1-0.9,15.1-2.2,17.1-2.7c0.5-0.1,0.7-0.2,0.7-0.2
				l0.1,2.8l1.4,46.9L871,1372.3z"/>
			<path class="st16" d="M770.2,1768.7H715c-4.3-7.8-10-30.9-14.3-35.8c-0.3-0.3-0.7-0.7-1-1.2l-0.4,37h-5
				c-0.1-7.9-0.7-35.5-3.4-50.9c-3-5.6-5.1-11.1-4.1-13.4c1.9-4.8,19.6-15.5,19.6-15.5s13.1,65.5,19.3,67.1
				c14.8,3.7,29.6,2.3,33.8,1.8c0.8-0.1,7.4,2.9,9.9,6.8C770.1,1765.9,770.6,1767.2,770.2,1768.7z"/>
			<path class="st16" d="M844.2,1768.7h-55.3c-4.2-7.7-9.8-30.4-14.1-35.6l-0.4,35.6h-5c0-1,0-2.4-0.1-4.1
				c-0.2-10.1-0.9-30.2-2.9-43.8c-3.8-6.6-6.9-13.7-5.8-16.5c1.9-4.8,19.2-15.4,19.2-15.4s0.1,0.6,0.3,1.5c0,0.1,0,0.3,0.1,0.4
				c0,0.2,0.1,0.4,0.1,0.6c0,0.2,0.1,0.3,0.1,0.5c2.5,12.7,12.8,62.4,19.1,64c16.9,4.2,33.8,1.8,35,1.7c0,0,0.1,0,0.1,0
				S845.6,1762.9,844.2,1768.7z"/>
			<path class="st38" d="M874,1086.6c-1.8,10.1-3.7,18.9-5.3,25.7c-0.1,0.5-0.2,1-0.3,1.4c-2.2,9.5-3.8,14.9-3.8,14.9
				c-0.3,0.1-0.6,0.2-0.8,0.3c-0.1,0.1-0.3,0.1-0.4,0.1c-0.2,0.1-0.5,0.2-0.7,0.2c-3.8,1.2-7.5,2.3-11.2,3.2
				c-20.4,5.1-38.4,5.5-53.5,3.8c-8.2-0.9-15.5-2.5-21.8-4.3c-1.5-0.4-2.9-0.8-4.2-1.3c-0.1,0-0.1,0-0.2-0.1
				c-3.5-1.1-6.6-2.3-9.3-3.5c-8.4-3.5-13.2-6.7-13.6-7c0,0,0,0,0,0c0.7-1.7,1.3-3.9,1.8-6.4c1-4.7,1.6-10.8,1.9-17.9
				c0.6-12.2,0.4-27.6-0.2-44.4c0-0.5,0-1-0.1-1.5c-0.9-21.1-2.4-44.5-4.1-67.3c-1.3-17.5-2.5-34.5-3.6-49.8
				c-0.3-4.7-0.6-9.2-0.9-13.5c-1.4-24.1-1.8-41.9,0.3-46.6c3.3-7.1,13.4-11.4,24.1-14c1.5-0.4,3.1-0.7,4.6-1c0.2,0-0.5-1.7-0.2-1.8
				c1.5-0.3,3.8,1.1,5.3,0.9c0.6-0.1,1.2-0.2,1.9-0.3c9.6-1.4,18-1.7,20-1.8c0.3,0,0.5,0,0.5,0s6.8,3.3,16.5,10.2
				c0.7,0.5,10.2-5.6,11-5.1c11,8.1,24.1,22.7,30.2,42.4c8.2,26.8,20.4,40.1,22.9,66.5C884.9,1011.9,879.6,1055.8,874,1086.6z"/>
			<path class="st16" d="M712.4,1133.5c20.6,4.2,53.4,2.1,77.7-4.9c8.1-2.3,15.2-5.2,20.6-8.5c21.7-13.4,32.3-112.4,28.5-149.8
				c-3.7-37.4-66.7-114.3-66.7-114.3c-15.5,11.5-22.3,38.1-31.5,73.1C718.7,1013.4,712.4,1133.5,712.4,1133.5z"/>
			<path class="st35" d="M712.4,1133.5c20.6,4.2,53.4,2.1,77.7-4.9c8.9-12.7,16.1-28.2,19.9-47.1c11.1-54.6-32.6-113.9-69-152.3
				C718.7,1013.4,712.4,1133.5,712.4,1133.5z"/>
			<path class="st20" d="M843.4,1050.3l-48.4-35c-6-4.3-14.4-3-18.8,3l-54,74.9c-4.3,6-3,14.4,3,18.8l48.4,35c6,4.3,14.4,3,18.8-3
				l54-74.9C850.7,1063.1,849.3,1054.7,843.4,1050.3z"/>
			<path class="st39" d="M800.4,1087.8c0,0,23.7-2.4,26.6,1.6c2.9,4,0.3,19.4-13,21c-13.3,1.6-28.5-9.3-28.5-9.3L800.4,1087.8z"/>
			<path class="st16" d="M772.5,856c0,0-42.1,5-60.4,42.9c-18.3,37.9-37.9,135.5-33,144.7c4.9,9.1,63.9,58.3,112.4,64.6
				c0,0,10.5-13.3,9.8-25.3c0,0-65.3-40.7-70.9-52c-5.6-11.2,49.9-104.6,49.2-120.8C778.9,894,772.5,856,772.5,856z"/>
			<path class="st15" d="M820,732.5c0,0,24.7,3,26.1,31.5c0,0,10.8-45.2-28.3-44.3C778.7,720.7,820,732.5,820,732.5z"/>
			<path class="st3" d="M827.7,859.9c0,0-2.2-23.8-1.7-30v0c0.3-3.1,0.6-5,0.6-5l-0.6-0.2l-49.4-15.1c0,0.4,0,0.8,0,1.2
				c-0.6,13.4-1.4,23.7-2.2,31.8c-0.1,1-0.2,2.1-0.3,3c-0.4,4.1-0.9,7.5-1.4,10.4c9.6,4.2,17.5,7.1,24,9c17.7,5.2,25.4,3.1,28.7,0
				C828,862.4,827.7,860.3,827.7,859.9z"/>
			<path class="st7" d="M822.1,824.7v5.2c0,0-28.5,0.3-47.8,12.7c0.8-8,1.6-18.4,2.2-31.8L822.1,824.7z"/>
			<path class="st3" d="M835.7,828.3c0,0-59.9,12-66.8-25.4c-6.9-37.4-19.3-61.1,18.6-70.3c38-9.3,48,3.6,53.4,15.6
				C846.3,760.1,851.1,824.2,835.7,828.3z"/>
			<path class="st15" d="M815.4,724.3c0,0,16.9,21.2-14,40.6c-30.9,19.4-28.5,58.2-20.3,69.1c0,0-61.5-60-33-95.8
				C776.6,702.5,815.4,724.3,815.4,724.3z"/>
		</g>
	</g>
	<g>
		<g>
			<path class="st28" d="M1985.4,1677.6c0,13.7-11.1,24.7-24.7,24.7s-24.7-11.1-24.7-24.7s11.1-24.7,24.7-24.7
				S1985.4,1664,1985.4,1677.6z"/>
			<path class="st8" d="M1995.1,1677.6c0,13.7-11.1,24.7-24.7,24.7c-13.7,0-24.7-11.1-24.7-24.7s11.1-24.7,24.7-24.7
				C1984,1652.9,1995.1,1664,1995.1,1677.6z"/>
		</g>
		<g>
			<circle class="st28" cx="2125.5" cy="1743.6" r="24.7"/>
			<circle class="st8" cx="2135.2" cy="1743.6" r="24.7"/>
		</g>
		<path class="st28" d="M1941.2,1650.8l27.4,25.5c2.8,2.6,6,4.6,9.5,6.1l184.3,76.7l34.3-24.6L1941.2,1650.8z"/>
		<g>
			<path class="st28" d="M2329.3,1374.4l-8.8-6.1c40.4-58.5,118.5-173.7,125-191.2c4.1-11,4.1-20.2,0.1-27.3
				c-6.4-11.4-21.4-14.5-21.5-14.5l-0.6-0.1l-40.9-12.6c-46.9-18.7-66.9,18.1-67.8,19.7l-0.3,0.5L2205.1,1308l-8.9-5.9l109.3-165.1
				c1-1.9,7.2-12.4,19.3-20.6c12.1-8.1,32.5-15.4,61.5-3.9l40.1,12.4c2.7,0.6,20.1,4.8,28.4,19.6c5.7,10,5.9,22.2,0.7,36.3
				C2447,1203.9,2334.1,1367.5,2329.3,1374.4z"/>
		</g>
		<path class="st28" d="M2317,1332.9l90.6,62.2c0,0,23.9,24.1-3.5,72.3c-24.1,42.4-153.1,282.8-153.1,282.8s-26.9,50-131.5-12.6
			L2317,1332.9z"/>
		<path class="st8" d="M2342.4,1425.1l-146.4,268.4c-5.9,10.9-14.4,19.5-24.3,25.6c-18.3,11.3-41.6,13.7-62.8,4.8l-92.1-38.7l-2.3-1
			l-57.7-24.3c-5.8-2.4-11.1-5.6-15.8-9.2c-1.1-0.9-2.2-1.7-3.2-2.7c-17.1-15.1-25.5-37.9-22.6-60.3c1.2-9.5,4.5-19,9.9-27.7
			l156.3-249.9c16.7-26.6,49.3-38.6,79.2-29l16.9,5.4l4,1.3h0l3.4,1.1l56.5,18l6.9,2.2l54.5,17.4c8.5,2.7,16.1,6.9,22.6,12.2
			c0.4,0.3,0.8,0.7,1.3,1.1l2.6,2.3C2351.2,1362.9,2358,1396.7,2342.4,1425.1z"/>
		<path class="st40" d="M2171.8,1719.2c-18.3,11.3-41.6,13.7-62.8,4.8l-92.1-38.7l-2.3-1l-57.7-24.3c-5.8-2.4-11.1-5.6-15.8-9.2
			c-1.1-0.9-2.2-1.7-3.2-2.7c-17.1-15.1-29.7-49.1-19.1-74.8c0,0,195.4,80.6,233.3,104.3C2171.8,1689.8,2171.8,1707.2,2171.8,1719.2
			z"/>
		<g>
			<g>
				<path class="st28" d="M2185.1,1289c-0.5,0.1-54.2,7.8-69.6,28.2c-15.8,21-171.2,277.8-172.7,280.3c-0.1,0.2-12.5,26.2,1,55.2
					l-2.6-1.9c-1.1-0.9-2.2-1.7-3.2-2.7c-11.8-29.2,1-51.6,1.6-52.5c6.4-10.6,157.1-259.5,173-280.7c13.9-18.5,52.8-26.3,65.2-28.3
					l4,1.3h0L2185.1,1289z"/>
			</g>
			<g>
				<path class="st28" d="M2248.5,1309.2c-7.9,1.5-38.9,9.3-57.9,40c-22.3,36-164.9,305.9-166.3,308.6l-0.1,0.2l-0.1,0.2
					c-0.1,0.1-9.8,13.8-4.8,28.1l-2.3-1l-2.3-1c-4.3-14.8,5-26.8,6.4-28.5c4.4-8.3,144.2-272.9,166.3-308.6
					c16.4-26.4,41.3-36.6,54.2-40.2L2248.5,1309.2z"/>
			</g>
			<g>
				<path class="st28" d="M2329.5,1342.3c-0.2,0-11.2,1.2-22.5,6.6c-11.3,5.4-25.3,15.2-36.2,32.8c-22.3,36-159.7,306.9-161.1,309.6
					l-0.1,0.2l-0.2,0.2c-0.1,0.1-8.2,16.8-3.2,31.1l-5.8-2.4c-3.2-12.4,4.5-29.2,6-31c4.4-8.7,139-274,161.2-309.7
					c20.8-33.6,51.7-39.8,58.1-40.8c0.4,0.3,0.8,0.7,1.3,1.1L2329.5,1342.3z"/>
			</g>
		</g>
	</g>
	<g id="man_7_">
		<g>
			<path class="st20" d="M2377.1,1676c0,0-19.7,18.2-15.8,31.2c3.8,12.9,21.6,21.6,24,37.4s12,24.4,20.6,24.4c8.6,0,41.1,0,41.1,0
				s6.4-11.1-9-14.5c-15.3-3.4-21.1-21.9-20.2-39.2c1-17.3-1.4-40.3-1.4-40.3l-32.6-7.7L2377.1,1676z"/>
			<path class="st20" d="M2733.4,1769h-109.2c-0.9-0.2-1.7-0.4-2.1-0.6c-7.3-3.6-5-31.5-4.1-40.1c0.2-1.6,0.3-2.5,0.3-2.5
				s38.4-30.7,43.6-7.2c0.2,0.7,0.4,1.5,0.6,2.2c6.6,22,36.4,32,53.6,34.7C2729.1,1757.5,2732.5,1765.2,2733.4,1769z"/>
			<path class="st15" d="M2711.4,1140.2c0,0-5.8,72.7-12.7,160c-9.3,118.6-20.5,264.4-21.6,292c-1.9,47.9-9.6,124.6-9.6,124.6
				s-18.2,18.2-54.6,10.5c0,0-32.5-109.5-41.7-225.3c-0.1-1.9-0.3-3.8-0.4-5.7c-8.6-117.9-22-366.2-22-366.2L2711.4,1140.2z"/>
			<path class="st20" d="M2711.4,1140.2c0,0-5.8,72.7-12.7,160L2571.2,1502c-0.1-1.9-0.3-3.8-0.4-5.7c-8.6-117.9-22-366.2-22-366.2
				L2711.4,1140.2z"/>
			<path class="st15" d="M2684.8,1148.8c0,0-105,263.1-174,386.8c-69,123.7-90.6,158.2-90.6,158.2s-39.5-15.8-43.1-26.6
				c0,0,26.4-238.7,72.6-296.9c26.1-32.9,56.8-131.6,58.2-166.1c1.4-34.5,9.3-102.8,9.3-102.8L2684.8,1148.8z"/>
		</g>
		<path class="st41" d="M2791,1076.2l6,12c0,0,30.5,4.3,22.1,36.1c0,0-4.5,13.1-12.9,8.9c-8.4-4.1-4.3-3.8-16.3-9.4
			c-12.1-5.6-19-16.3-16.3-26.1l-1.9-10.4L2791,1076.2z"/>
		<path class="st42" d="M2631,742.7c4.7-27.6,4.8-43.9,4.8-43.9l-53.3-42.9c2,59-35.8,87.4-35.8,87.4s71,34.9,112,22
			C2658.7,765.2,2648.6,752.3,2631,742.7z"/>
		<path class="st41" d="M2648.4,697.8c0,0-67.8,11.3-74.1-31c-6.4-42.3-19.4-69.3,23.6-78.3c43-9,53.8,5.9,59.4,19.5
			C2662.8,621.5,2665.8,693.8,2648.4,697.8z"/>
		<path class="st20" d="M2574.7,669.7c0,0,1.4-56.7,63.1-65.8c42.3-6.2,16.7-41.6,11.8-47.2c0,0-32.3,6.2-65.4,13.4
			C2514.8,585.4,2567.4,661.2,2574.7,669.7z"/>
		<path class="st21" d="M2783.9,1092.8c9.1-9.3,15.8-21.4,15.8-21.4s-77-95.6-83.2-105.6c-6.3-9.9-53-169-53-169l-118.2-23.9
			c0,0,98.7,203.6,115,228.4c27,41,107.8,102.1,107.8,102.1S2776.8,1100.1,2783.9,1092.8z"/>
		<path class="st24" d="M2716,1146.2c-1.2,1-2.7,1.6-4.3,1.6c-15.4-0.2-60.3,8.3-98.3,4.4c-32-3.1-60.4-12.6-90.9-26.2
			c-4-1.8-13.4-6.8-13.1-11.3c0.1-4.9,0.6-12.1,1.2-21.2c2.2-31.4,5.9-85.5,2.2-147.9c-0.7-11.6-1-23.1-1-34.5
			c-0.3-84.5,16.2-159.3,49.8-184.5c2.9-2.1,20.8,7,37.1,15c15,7.4,25.5,7.2,39.6,4.4l18.7,13.5c17.3,16,36.2,37.8,44.4,70.9
			c7,28.1,11.1,78.9,13.4,131.5c1,23.8,1.9,47.9,2.1,70.7v0.8c0.2,2.3,0.2,4.7,0.2,7C2717.8,1099,2717,1145.4,2716,1146.2z"/>
		<path class="st21" d="M2510.6,1093.6c2.2-31.4,5.9-85.5,2.2-147.9c-0.7-11.6-1-23.1-1-34.5c14-34,25.5-58.7,25.5-58.7h35.4
			C2572.6,852.6,2598.6,1029.7,2510.6,1093.6z"/>
		<g>
			<path class="st41" d="M2441.8,1104.7l-6.7,11.6c0,0,13.2,27.9-18.1,38.3c0,0-13.4,3.4-14.6-5.9c-1.1-9.3,0.8-5.6-1.1-18.8
				c-1.9-13.1,3.2-24.8,12.9-28l7.6-7.3L2441.8,1104.7z"/>
			<path class="st24" d="M2424,1107.8c12.7,2.5,26.5,1.5,26.5,1.5s37.8-116.8,42.7-127.5c4.9-10.7,112.3-137,112.3-137l-44.8-112
				c0,0-116.2,194.1-128,221.4c-19.5,45.1-26.3,146.1-26.3,146.1S2414,1105.9,2424,1107.8z"/>
		</g>
	</g>
	<g>
		<path class="st23" d="M2971.2,1006.2l-22.1,5.8c-1.5,0.4-3-0.5-3.4-2l-2.6-9.9c-0.4-1.5,0.5-3,2-3.4l22.1-5.8c1.5-0.4,3,0.5,3.4,2
			l2.6,9.9C2973.6,1004.3,2972.7,1005.8,2971.2,1006.2z"/>
		
			<rect x="2947.6" y="998.2" transform="matrix(0.9672 -0.2539 0.2539 0.9672 -157.9921 782.3497)" class="st24" width="7.4" height="10"/>
		<path class="st24" d="M2967,996.5l-9,2.4c-0.7,0.2-1.3-0.2-1.5-0.9l0,0c-0.2-0.7,0.2-1.3,0.9-1.5l9-2.4c0.7-0.2,1.3,0.2,1.5,0.9
			l0,0C2968.1,995.6,2967.7,996.3,2967,996.5z"/>
		<path class="st24" d="M2968.6,999.6l-10.5,2.7c-0.3,0.1-0.5-0.1-0.6-0.3l0,0c-0.1-0.3,0.1-0.5,0.3-0.6l10.5-2.7
			c0.3-0.1,0.5,0.1,0.6,0.3l0,0C2969,999.3,2968.9,999.5,2968.6,999.6z"/>
		<path class="st24" d="M2969,1001.1l-10.5,2.7c-0.3,0.1-0.5-0.1-0.6-0.3l0,0c-0.1-0.3,0.1-0.5,0.3-0.6l10.5-2.7
			c0.3-0.1,0.5,0.1,0.6,0.3l0,0C2969.4,1000.8,2969.3,1001,2969,1001.1z"/>
	</g>
	<g>
		<polygon class="st18" points="2090.8,964.1 2058.6,1113.5 2184,1113.5 2212,964.1 		"/>
		<polygon class="st43" points="2095.1,968.8 2066,1103.8 2179.3,1103.8 2204.6,968.8 		"/>
	</g>
	<g>
		<path class="st18" d="M2189.7,979.7h-86.2c-1.6,0-2.9,1.3-2.9,2.9c0,1.6,1.3,2.9,2.9,2.9h86.2c1.6,0,2.9-1.3,2.9-2.9
			C2192.6,981,2191.3,979.7,2189.7,979.7z"/>
		<path class="st18" d="M2185.3,993.3h-86.2c-1.6,0-2.9,1.3-2.9,2.9c0,1.6,1.3,2.9,2.9,2.9h86.2c1.6,0,2.9-1.3,2.9-2.9
			C2188.2,994.6,2186.9,993.3,2185.3,993.3z"/>
		<path class="st18" d="M2182.6,1006.3h-86.2c-1.6,0-2.9,1.3-2.9,2.9c0,1.6,1.3,2.9,2.9,2.9h86.2c1.6,0,2.9-1.3,2.9-2.9
			C2185.5,1007.6,2184.2,1006.3,2182.6,1006.3z"/>
		<path class="st18" d="M2178.6,1033.3h-86.2c-1.6,0-2.9,1.3-2.9,2.9s1.3,2.9,2.9,2.9h86.2c1.6,0,2.9-1.3,2.9-2.9
			S2180.2,1033.3,2178.6,1033.3z"/>
		<path class="st18" d="M2174.2,1046.9H2088c-1.6,0-2.9,1.3-2.9,2.9s1.3,2.9,2.9,2.9h86.2c1.6,0,2.9-1.3,2.9-2.9
			S2175.8,1046.9,2174.2,1046.9z"/>
		<path class="st18" d="M2171.5,1059.9h-86.2c-1.6,0-2.9,1.3-2.9,2.9c0,1.6,1.3,2.9,2.9,2.9h86.2c1.6,0,2.9-1.3,2.9-2.9
			C2174.3,1061.2,2173,1059.9,2171.5,1059.9z"/>
	</g>
	
		<rect x="1997.5" y="1077" transform="matrix(0.2888 -0.9574 0.9574 0.2888 410.699 2710.4932)" class="st17" width="64.6" height="3.6"/>
	<path class="st16" d="M2021.2,1103.3c-6.4,0-11.7,4.5-12.5,10.3h25C2032.8,1107.7,2027.6,1103.3,2021.2,1103.3z"/>
	<g>
		<path class="st16" d="M2037.5,1111.9c-4.8,0-9.5-0.8-9.9-0.9l0.1-0.8c4.8,0.8,17.5,2.1,18.9-1.9c0.6-1.8,0-4.8-0.8-8.9
			c-1.5-7.5-3.7-18.9-1.1-34.8c2.1-12.4,0.5-16.2-1.1-17.2c-1.7-1-4.1,0.8-4.1,0.9l-0.5-0.6c0.1-0.1,2.8-2.2,5-0.9
			c2.7,1.6,3.2,7.7,1.5,18c-2.6,15.7-0.4,27,1.1,34.5c0.8,4.3,1.5,7.4,0.7,9.3C2046.5,1111.2,2042,1111.9,2037.5,1111.9z"/>
	</g>
	<g>
		<polygon class="st8" points="1818.4,1194.4 1825.8,1209.3 1842.2,1211.7 1830.3,1223.3 1833.2,1239.6 1818.4,1231.9 
			1803.7,1239.6 1806.5,1223.3 1794.6,1211.7 1811.1,1209.3 		"/>
		<polygon class="st8" points="1884.4,1194.4 1891.8,1209.3 1908.2,1211.7 1896.3,1223.3 1899.1,1239.6 1884.4,1231.9 
			1869.7,1239.6 1872.5,1223.3 1860.6,1211.7 1877.1,1209.3 		"/>
		<polygon class="st8" points="1954.1,1194.4 1961.5,1209.3 1977.9,1211.7 1966,1223.3 1968.8,1239.6 1954.1,1231.9 1939.4,1239.6 
			1942.2,1223.3 1930.3,1211.7 1946.8,1209.3 		"/>
		<polygon class="st8" points="2024.1,1194.4 2031.5,1209.3 2047.9,1211.7 2036,1223.3 2038.8,1239.6 2024.1,1231.9 2009.4,1239.6 
			2012.2,1223.3 2000.3,1211.7 2016.8,1209.3 		"/>
		<polygon class="st8" points="2084.8,1194.4 2092.2,1209.3 2108.6,1211.7 2096.7,1223.3 2099.5,1239.6 2084.8,1231.9 
			2070.1,1239.6 2072.9,1223.3 2061,1211.7 2077.5,1209.3 		"/>
	</g>
</g>
</svg>
