<svg xmlns="http://www.w3.org/2000/svg" viewBox="0 0 412.91 259.42">
  <defs>
    <style>
      .cls-1 {
        isolation: isolate;
      }

      .cls-2 {
        mix-blend-mode: hard-light;
      }

      .cls-3 {
        fill: #586168;
      }
    </style>
  </defs>
  <g class="cls-1">
    <g id="Layer_2" data-name="Layer 2">
      <g id="Layer_1-2" data-name="Layer 1">
        <g class="cls-2">
          <path class="cls-3" d="M406.61,93.51l.27.06c-2.57,9.64-3.58,11.66-6.08,19.51-26.48,82.83-118.12,154.65-224.92,143a233.67,233.67,0,0,1-33.3-6.06,231.64,231.64,0,0,0,41.82,8.24C291.23,269.41,380,199.45,408.28,113.62c2.53-7.71,2.94-10.5,4.63-18.6Z"/>
          <path class="cls-3" d="M.5,64.35a285.28,285.28,0,0,0,6.3,38c21.14,82.51,80.06,137.32,167.57,146.45C276,259.46,358.52,197.19,389.2,110.7c2.95-8.28,3-9,5.94-17.77L6.51,0C1,22.38-1,48.47.5,64.35ZM324.29,94.44c1.62,1,4.69,2.93,4.27,5.91a8.22,8.22,0,0,1-5.3,6c-9.23,3.15-9.15-15.83-9.15-15.83S320.91,92.25,324.29,94.44Zm-10.75,49.11s7.88,3.78,11.47,7.23c1.73,1.67,5,4.67,3.78,8.22a10.14,10.14,0,0,1-7.88,6C308.94,166.66,313.54,143.55,313.54,143.55ZM278.34,112s5.63,4.18,8,7.48c1.12,1.58,3.25,4.45,1.75,7.08a8.28,8.28,0,0,1-7.15,3.54C271.19,129.56,278.34,112,278.34,112ZM266.9,174.59s7.21,4.91,10.25,8.86c1.46,1.9,4.27,5.37,2.53,8.68a10.19,10.19,0,0,1-8.71,4.79C258.9,196.75,266.9,174.59,266.9,174.59Zm-33-51.92s4.53,5.38,6,9.12c.74,1.79,2.15,5.09.08,7.29a8.21,8.21,0,0,1-7.77,1.81C222.89,138.16,233.88,122.67,233.88,122.67Zm-24.39,66.92s5.34,6.87,7,11.58c.83,2.26,2.44,6.4-.24,9a10.27,10.27,0,0,1-9.74,1.89C195.1,208.28,209.49,189.59,209.49,189.59ZM188.74,122s2.66,6.49,3,10.5c.12,1.93.47,5.47-2.16,7a8.32,8.32,0,0,1-8-.63C173.53,133.34,188.74,122,188.74,122Zm-42.5-13.19s1.3,6.9.78,10.88c-.27,1.91-.62,5.47-3.53,6.38a8.2,8.2,0,0,1-7.66-2.25C129,116.82,146.24,108.77,146.24,108.77Zm.2,73.66s2.35,8.41,2.12,13.41c-.1,2.38-.21,6.83-3.67,8.26a10.24,10.24,0,0,1-9.73-2C126,194.23,146.44,182.43,146.44,182.43Zm-41-101s-1.46,6.89-3.47,10.38c-1,1.67-2.67,4.82-5.67,4.56a8.19,8.19,0,0,1-6.23-5C86.42,82.31,105.41,81.43,105.41,81.43Zm-20,78c-1.07,2.15-3,6.17-6.71,6.07a10.22,10.22,0,0,1-8.1-5.73c-5.15-10.91,18.29-13.45,18.29-13.45S87.6,155,85.39,159.44ZM73.24,36.94s-3.61,6-6.66,8.66c-1.45,1.26-4.12,3.68-6.86,2.43a8.15,8.15,0,0,1-4.23-6.76C55,31.56,73.24,36.94,73.24,36.94ZM55.73,92.81s-4.34,7.56-8.07,10.9c-1.79,1.59-5,4.65-8.47,3.17a10.2,10.2,0,0,1-5.41-8.32C33,86.52,55.73,92.81,55.73,92.81Z"/>
        </g>
      </g>
    </g>
  </g>
</svg>
