<svg xmlns="http://www.w3.org/2000/svg" viewBox="0 0 484.06 409.37">
  <defs>
    <style>
      .cls-1 {
        fill: #586168;
      }
    </style>
  </defs>
  <g id="Layer_2" data-name="Layer 2">
    <g id="Layer_1-2" data-name="Layer 1">
      <g>
        <path class="cls-1" d="M231.3,104.14h0l-1-.85,9.44-11.42v-.79l-.87-1L0,409.37H161.12L241,291.48v-197L232.34,105ZM157.72,407.91,135.45,366l100.88-74.67Z"/>
        <path class="cls-1" d="M245,89.71l-1.43,1.74,10.15,11.81-2,1.76L243,95V291.48l79.9,117.89H484.06ZM248.16,291,349,365.7l-22.28,41.92Z"/>
        <polygon class="cls-1" points="243.02 87.11 243.02 87.86 243.31 87.5 243.02 87.11"/>
        <polygon class="cls-1" points="241.04 87.11 241.04 0 239.7 0 239.7 86.97 240.47 87.87 241.04 87.11"/>
        <polygon class="cls-1" points="241.04 88.53 241.77 89.38 242.39 88.62 242.39 0 241.04 0 241.04 87.11 241.04 88.53"/>
        <polygon class="cls-1" points="241.04 87.11 240.47 87.87 241.04 88.53 241.04 87.11"/>
        <polygon class="cls-1" points="239.7 91.08 239.7 91.88 240.03 91.47 239.7 91.08"/>
        <polygon class="cls-1" points="242.67 92.49 242.39 92.84 242.39 93.33 241.98 93.33 241.8 93.54 243.02 94.95 243.02 92.9 242.67 92.49"/>
        <polygon class="cls-1" points="243.02 92.9 243.02 92.07 242.67 92.49 243.02 92.9"/>
        <polygon class="cls-1" points="199.12 41.75 239.65 88.97 239.7 88.9 239.7 86.97 200.13 40.88 198.1 42.63 238.82 90.07 239.65 88.97 199.12 41.75"/>
        <polygon class="cls-1" points="239.7 89.03 239.65 88.97 238.82 90.07 239.7 91.08 239.7 89.03"/>
        <polygon class="cls-1" points="239.65 88.97 239.7 89.03 239.7 88.9 239.65 88.97"/>
        <polygon class="cls-1" points="253.69 103.26 243.53 91.45 243.02 92.07 243.02 92.9 252.67 104.14 243.02 92.9 243.02 94.95 251.66 105.02 253.69 103.26"/>
        <polygon class="cls-1" points="241.77 89.38 241.04 88.53 241.04 90.26 241.77 89.38"/>
        <polygon class="cls-1" points="240.47 87.87 239.7 86.97 239.7 88.9 240.47 87.87"/>
        <polygon class="cls-1" points="242.39 93.33 242.39 92.84 241.98 93.33 242.39 93.33"/>
        <polygon class="cls-1" points="241.04 90.26 241.04 88.53 240.47 87.87 239.7 88.9 239.7 89.03 240.9 90.42 241.04 90.26"/>
        <polygon class="cls-1" points="240.9 90.42 239.7 89.03 239.7 91.08 240.03 91.47 240.9 90.42"/>
        <polygon class="cls-1" points="282.88 41.75 281.84 40.9 243.31 87.5 244.14 88.61 282.88 41.75"/>
        <polygon class="cls-1" points="244.97 89.71 283.93 42.6 282.88 41.75 244.14 88.61 244.97 89.71"/>
        <polygon class="cls-1" points="243.02 89.96 242.65 90.41 243.02 90.84 243.02 89.96"/>
        <polygon class="cls-1" points="241.04 93.33 241.04 94.47 241.8 93.54 241.63 93.33 241.04 93.33"/>
        <polygon class="cls-1" points="242.65 90.41 243.02 89.96 243.02 87.86 242.39 88.62 242.39 90.11 242.65 90.41"/>
        <polygon class="cls-1" points="240.23 93.33 231.3 104.14 232.34 104.99 241.04 94.47 241.04 93.33 240.23 93.33"/>
        <polygon class="cls-1" points="239.7 91.88 230.26 103.29 231.3 104.14 240.23 93.33 239.7 93.33 239.7 91.88"/>
        <polygon class="cls-1" points="243.02 89.96 243.02 90.84 243.53 91.45 244.97 89.71 244.14 88.61 243.02 89.96"/>
        <polygon class="cls-1" points="244.14 88.61 243.31 87.5 243.02 87.86 243.02 89.96 244.14 88.61"/>
        <polygon class="cls-1" points="241.04 93.33 241.63 93.33 241.04 92.64 241.04 93.33"/>
        <polygon class="cls-1" points="242.39 90.11 242.39 88.62 241.77 89.38 242.39 90.11"/>
        <polygon class="cls-1" points="240.91 92.51 240.23 93.33 241.04 93.33 241.04 92.64 240.91 92.51"/>
        <polygon class="cls-1" points="240.03 91.47 239.7 91.88 239.7 93.33 240.23 93.33 240.91 92.51 240.03 91.47"/>
        <polygon class="cls-1" points="242.39 92.84 242.67 92.49 242.39 92.16 242.39 92.84"/>
        <polygon class="cls-1" points="242.65 90.41 242.39 90.11 242.39 90.73 242.65 90.41"/>
        <polygon class="cls-1" points="242.65 90.41 242.39 90.73 242.39 92.16 242.67 92.49 243.02 92.07 243.02 90.84 242.65 90.41"/>
        <polygon class="cls-1" points="241.63 93.33 241.8 93.54 241.98 93.33 241.63 93.33"/>
        <polygon class="cls-1" points="243.02 92.07 243.53 91.45 243.02 90.84 243.02 92.07"/>
        <polygon class="cls-1" points="241.04 92.36 241.78 91.46 241.04 90.59 241.04 92.36"/>
        <polygon class="cls-1" points="241.04 90.59 241.78 91.46 242.39 90.73 242.39 90.11 241.77 89.38 241.04 90.26 241.04 90.59"/>
        <polygon class="cls-1" points="241.78 91.46 241.04 92.36 241.04 92.64 241.63 93.33 241.98 93.33 242.39 92.84 242.39 92.16 241.78 91.46"/>
        <polygon class="cls-1" points="242.39 92.16 242.39 90.73 241.78 91.46 242.39 92.16"/>
        <polygon class="cls-1" points="241.04 92.64 241.04 92.36 240.91 92.51 241.04 92.64"/>
        <polygon class="cls-1" points="241.04 90.26 240.9 90.42 241.04 90.59 241.04 90.26"/>
        <polygon class="cls-1" points="240.9 90.42 240.03 91.47 240.91 92.51 241.04 92.36 241.04 90.59 240.9 90.42"/>
      </g>
    </g>
  </g>
</svg>
