<svg xmlns="http://www.w3.org/2000/svg" viewBox="0 0 597.67 354.48">
  <defs>
    <style>
      .cls-1 {
        isolation: isolate;
      }

      .cls-2 {
        mix-blend-mode: hard-light;
      }

      .cls-3 {
        fill: #586168;
      }
    </style>
  </defs>
  <g class="cls-1">
    <g id="Layer_2" data-name="Layer 2">
      <g id="Layer_1-2" data-name="Layer 1">
        <g class="cls-2">
          <path class="cls-3" d="M310.75,0C138.67-1.28,140,190.05,140,190.05H466.12S482.81,1.29,310.75,0Z"/>
          <path class="cls-3" d="M149.83,320.57c80.93.75,135.11-12,167.4-19.65,9.17-2.17,16.4-3.89,21.72-4.65,7.95-1.13,26-6.44,46.88-12.59,40.42-11.89,90.76-26.69,110.54-24.36,31,3.62,49.25-22.65,50-23.78-32.61-18.84-68.72-38.22-68.72-38.22H122L27.44,257l1.9-.41C29.48,257.25,44.23,319.53,149.83,320.57Z"/>
          <path class="cls-3" d="M548.07,236.51l1.64,1.08c-.2.3-20,29.57-53.79,25.58-19-2.19-71,13.07-109,24.25-21,6.19-39.21,11.54-47.44,12.71-5.13.73-12.3,2.42-21.37,4.57-31.49,7.46-83.56,19.79-161.09,19.79l-7.23,0c-103-1-122.2-59.47-124.09-66.34L0,274.36S3.84,348.84,132.26,354,375,323.17,375,323.17c85.17-29,88.13-30.93,121.56-33.39,38.5-2.84,85.18-13.91,100.58-19.27C601.86,268.85,576.57,253,548.07,236.51Z"/>
        </g>
      </g>
    </g>
  </g>
</svg>
