<svg xmlns="http://www.w3.org/2000/svg" viewBox="0 0 393.21 393.1">
  <defs>
    <style>
      .cls-1 {
        fill: #586168;
      }
    </style>
  </defs>
  <g id="Layer_2" data-name="Layer 2">
    <g id="Layer_1-2" data-name="Layer 1">
      <g>
        <path class="cls-1" d="M382.79,187.48c-8.89-.42-32.81,4.71-36,4l-5.93-3.14L339.25,190l-3.56-.16v-1.41h-7.88l0-1.08h-1a130.28,130.28,0,0,0-31.69-76.73l.48-.49-.45-.48,5.6-5.55-.91-.92,2.39-2.63,2.24-.09,2-6.52c1.75-2.63,22.26-15.93,28.3-22.6S337,59,335.62,57.68c-1.39-1.5-7-5.21-13.72.72s-20,26.65-22.58,28.4l-6.47,2.06L292.69,91l-2.56,2.38-1-.9-5.62,5.61-1.31-1.3-.42.47a131.06,131.06,0,0,0-76.73-31.76v-.18h-.15V57.59h-1.42L203.34,54l1.59-1.65-3.23-5.94c-.59-3.16,4.52-27.08,4-36.07S198.57,0,196.58,0s-8.68,1.46-9,10.3c-.52,9,4.53,32.91,4,36.07l-3.24,5.94L189.91,54l-.2,3.63h-1.33v7.74l-1.94.11v.07l-10.61,1.23a130.73,130.73,0,0,0-66,31.49l-5.75-5.74-1,.9L100.52,91l-.07-2.15L93.92,86.8C91.28,85.05,78,64.43,71.3,58.4S59,56.18,57.61,57.68c-1.42,1.3-5.21,7,.82,13.61s26.57,20,28.3,22.6l2.08,6.52,2.22.09,2.38,2.63-1,.92,5.69,5.61a130.79,130.79,0,0,0-32.23,78.72H57.54v1.41L54,190l-1.64-1.57-6,3.14c-3,.67-27.1-4.46-36-4S0,194.64,0,196.72c0,1.82,1.41,8.57,10.33,9s32.94-4.6,36-4l6,3.14L54,203.23l3.57.24v1.33h8.38a130.24,130.24,0,0,0,32.45,78.47l-5.94,5.86,1,1L91,292.76l-2.22.09-2.08,6.44c-1.73,2.55-22.28,16-28.3,22.61s-2.24,12.36-.82,13.69,7.11,5.13,13.69-.82,20-26.49,22.62-28.37l6.53-1.91.07-2.22,2.56-2.49,1,.9,5.87-5.82a130.21,130.21,0,0,0,78.44,32.47v8.34h1.33l.2,3.55-1.53,1.66,3.24,5.94c.5,3.14-4.55,27.13-4,36.13.31,8.92,7.09,10.15,9,10.15s8.64-1.23,9.15-10.15-4.62-33-4-36.13l3.23-5.94-1.59-1.66.17-3.55h1.42v-7.83h.15v-.09A130.48,130.48,0,0,0,281.81,296l.42.4,1.31-1.27,5.62,5.56,1-.9,2.56,2.49.16,2.22,6.47,1.91c2.54,1.88,15.89,22.34,22.58,28.37s12.33,2.16,13.72.82,5.19-7.1-.84-13.69-26.55-20.06-28.3-22.61l-2-6.44-2.24-.09-2.39-2.63.91-1-5.54-5.51.32-.35-.41-.56a130.22,130.22,0,0,0,31.69-76.77h1l0-1.14h7.88v-1.33l3.56-.24,1.64,1.57,5.93-3.14c3.16-.56,27.08,4.46,36,4s10.42-7.16,10.42-9C393.21,194.64,391.82,187.88,382.79,187.48Zm-87.29,18-4.78.47a95,95,0,0,1-20,49.3l3.19,3.78a97.41,97.41,0,0,1-13.62,13.77l-3.77-3.08a95,95,0,0,1-48.93,21l-.44,4.57-10.55.56-8.84-.4-.44-4.38a95.12,95.12,0,0,1-50.18-19.65l-2.85,2.42a95,95,0,0,1-13.87-13.62l2.26-2.71a94.84,94.84,0,0,1-21.75-50.17l-3.12-.26-.57-10.39.49-8.92,2.94-.3a94.82,94.82,0,0,1,20.47-51.23l-1.71-2a98.45,98.45,0,0,1,13.53-13.77l2.12,1.67A95.15,95.15,0,0,1,185.86,101l.22-3.14,10.5-.59,8.82.43.35,3.3A95.21,95.21,0,0,1,256,121.86l3-2.47A97.49,97.49,0,0,1,272.81,133l-2.59,3.1a94.88,94.88,0,0,1,20.46,49.62l4.63.42.61,10.57Z"/>
        <path class="cls-1" d="M290.68,185.73a19.79,19.79,0,0,0-10.83,2.4c-9.91,5.45-22.3.25-24.59-1.5a58.37,58.37,0,0,0-10.76-25.4c.43-3,5.3-15.26,16-18.57a20.11,20.11,0,0,0,9.7-6.55A97,97,0,0,0,256,121.86a19.87,19.87,0,0,0-6.67,9.83c-3.14,10.9-15.59,16-18.29,16.33l-4.3-2.87a64.85,64.85,0,0,0-21.2-7.43c-1.91-2.33-7.11-14.45-1.91-24.43A19.77,19.77,0,0,0,205.75,101l-10-1-9.87,1a19.81,19.81,0,0,0,2.29,12.45c5.38,9.93.23,22.21-1.57,24.43a58.88,58.88,0,0,0-25.33,10.81c-3-.41-15.18-5.27-18.57-16a19.58,19.58,0,0,0-7.62-10.53,97,97,0,0,0-13.94,14.13,20.08,20.08,0,0,0,10.67,7.55c10.82,3.14,15.92,15.59,16.25,18.4l-2.7,4.3a56.46,56.46,0,0,0-7.6,21.18c-2.4,1.82-14.53,6.94-24.43,1.82a19.75,19.75,0,0,0-12.66-2l-.87,8.57a93.6,93.6,0,0,0,1.13,11.3,19.85,19.85,0,0,0,12.58-2.32c9.81-5.37,22.26-.16,24.42,1.48A61.6,61.6,0,0,0,148.62,232c-.34,3-5.26,15.19-15.93,18.48a20.17,20.17,0,0,0-10,7,95.64,95.64,0,0,0,14.46,13.91,20,20,0,0,0,6.72-10.12c3.14-10.72,15.59-15.86,18.31-16.19l4.3,2.8a59.35,59.35,0,0,0,21.29,7.53c1.8,2.38,7,14.52,1.8,24.43a20.32,20.32,0,0,0-2.24,11.2l8.43.85a94.2,94.2,0,0,0,11.84-1.2,18.92,18.92,0,0,0-2.49-10.85c-5.38-10-.15-22.36,1.55-24.69a58.94,58.94,0,0,0,25.42-10.8c2.89.59,15.1,5.36,18.5,16.09a19.76,19.76,0,0,0,5.95,9.21,99.11,99.11,0,0,0,14.2-14.47,20.23,20.23,0,0,0-9.2-5.8c-10.77-3.21-16-15.59-16.33-18.38l2.79-4.32a60.55,60.55,0,0,0,7.55-21.18c2.38-1.91,14.5-7,24.41-1.91a19.63,19.63,0,0,0,10.8,2.29l1-9.87Zm-58.46,31.78A41.28,41.28,0,1,1,217.45,161,41.31,41.31,0,0,1,232.22,217.51Z"/>
      </g>
    </g>
  </g>
</svg>
