<svg xmlns="http://www.w3.org/2000/svg" viewBox="0 0 454.1 160.03">
  <defs>
    <style>
      .cls-1 {
        isolation: isolate;
      }

      .cls-2 {
        mix-blend-mode: hard-light;
      }

      .cls-3 {
        fill: #586168;
      }
    </style>
  </defs>
  <g class="cls-1">
    <g id="Layer_2" data-name="Layer 2">
      <g id="Layer_1-2" data-name="Layer 1">
        <g class="cls-2">
          <path class="cls-3" d="M448.62,6.74C443.05,3,422.54-.33,406.76,0a473.93,473.93,0,0,0-65.48,5.54C313.16,10,279.18,24.62,258.6,35.18s-31.56,9-31.56,9-11,1.51-31.54-9S140.93,10,112.82,5.57A474.29,474.29,0,0,0,47.33,0C31.56-.33,11.05,3,5.48,6.74S-2.12,13,2.73,35.18C8.91,63.37,19.57,83.35,23.32,91c4.45,9.09,31.44,49.37,63.11,62.11,27.1,10.88,47.5,7.51,64-.28,15.41-7.26,38.15-30.08,47.58-50.23,6-12.77,14.1-33.74,23.27-34.59,3.29-.31,5-.41,5.73-.43s2.45.12,5.75.43c9.17.85,17.29,21.82,23.26,34.59,9.44,20.15,32.18,43,47.59,50.23,16.53,7.79,36.94,11.16,64,.28,31.66-12.74,58.64-53,63.1-62.11,3.76-7.64,14.41-27.62,20.59-55.81C456.22,13,454.18,10.52,448.62,6.74Zm-253,76.14c-4.89,15.14-13.06,30.71-31.9,48.59-21.25,20.17-51.08,17.25-64.46,13.31S57.52,124.59,43.88,102.9C29.66,80.29,31,46.22,38.73,29.53,45.31,15.3,68.58,12.69,81.18,11.85S122.85,14.49,156.81,25s39.62,30.77,39.62,30.77S200.54,67.75,195.65,82.88Zm214.57,20c-13.64,21.69-42,37.94-55.41,41.88s-43.22,6.86-64.46-13.31c-18.85-17.88-27-33.45-31.9-48.59s-.79-27.11-.79-27.11S263.34,35.5,297.29,25s63-14,75.63-13.15,35.86,3.45,42.44,17.68C423.08,46.22,424.43,80.29,410.22,102.9Z"/>
        </g>
      </g>
    </g>
  </g>
</svg>
