<svg xmlns="http://www.w3.org/2000/svg" viewBox="0 0 191.28 349.9">
  <defs>
    <style>
      .cls-1 {
        fill: #586168;
      }
    </style>
  </defs>
  <g id="Layer_2" data-name="Layer 2">
    <g id="Layer_1-2" data-name="Layer 1">
      <g>
        <path class="cls-1" d="M170.37,0H20.91C9.36,0,0,8.78,0,19.6V330.3c0,10.81,9.36,19.6,20.91,19.6H170.37c11.56,0,20.91-8.79,20.91-19.6V19.6C191.28,8.78,181.93,0,170.37,0ZM70.52,23.73h48.63a1.6,1.6,0,0,1,0,3.2H70.52a1.6,1.6,0,0,1,0-3.2ZM94,336.74a11.81,11.81,0,1,1,11.8-11.81A11.79,11.79,0,0,1,94,336.74Zm83.76-35.68H11.88V46.2H177.77Z"/>
        <path class="cls-1" d="M95.65,175.17c8.09,11.58,45.21,19.85,53.07,4.28,1.64-3.21,4.94-15.24-5.2-15.68,0,0,6.08,3.24,3.45,8.72-26.77,2.91-31.88-28.3-51.32-14.66C76.24,144.19,71.1,175.4,44.33,172.49c-2.62-5.48,3.46-8.72,3.46-8.72-10.18.44-6.84,12.47-5.24,15.68C50.45,195,87.56,186.75,95.65,175.17Z"/>
      </g>
    </g>
  </g>
</svg>
