<svg xmlns="http://www.w3.org/2000/svg" viewBox="0 0 297.96 424.66">
  <defs>
    <style>
      .cls-1 {
        isolation: isolate;
      }

      .cls-2 {
        mix-blend-mode: hard-light;
      }

      .cls-3 {
        fill: #586168;
      }
    </style>
  </defs>
  <g class="cls-1">
    <g id="Layer_2" data-name="Layer 2">
      <g id="Layer_1-2" data-name="Layer 1">
        <g class="cls-2">
          <polygon class="cls-3" points="181.82 186.88 221.89 0 297.96 17.95 296.27 25.25 228.35 9.54 188.86 186.88 181.82 186.88"/>
          <path class="cls-3" d="M96.77,49.2a62.71,62.71,0,1,0,18.62,86.71A62.7,62.7,0,0,0,96.77,49.2ZM92,56.65A53.63,53.63,0,0,1,116,94.79l-48.26,4L94,58.23l-2.17-1.41L89.66,55.4l-1,1.53L62.58,97.29,34.3,58.9l-1.08-1.43-4.16,3.09L58,99.76,10,112.57A53.8,53.8,0,0,1,92,56.65ZM59,104.86l-5.73,50a53.73,53.73,0,0,1-42-37.26Zm-.58,50.65,5.86-51.18L116.47,100a53.72,53.72,0,0,1-58,55.54Z"/>
          <path class="cls-3" d="M190.82,216.31c4.75-6.67,68.18-94.41,78.66-108.22s-3.34-11.93-3.34-11.93H70s-13.85-1.91-3.35,11.93,73.9,101.55,78.67,108.22,13.34,16.7,15.73,37.19,2.38,112.53-3.33,128.74-9.07,19.56-21,24.33-33.84,6.18-33.84,10.47,12.4,7.62,29.08,7.62h72.21c16.67,0,29.07-3.32,29.07-7.62s-21.91-5.72-33.84-10.47-15.25-8.12-21-24.33S172.69,274,175.07,253.5,186,223,190.82,216.31Z"/>
        </g>
      </g>
    </g>
  </g>
</svg>
