<svg xmlns="http://www.w3.org/2000/svg" viewBox="0 0 301.08 203.15">
  <defs>
    <style>
      .cls-1 {
        isolation: isolate;
      }

      .cls-2 {
        mix-blend-mode: hard-light;
      }

      .cls-3 {
        fill: #586168;
      }
    </style>
  </defs>
  <g class="cls-1">
    <g id="Layer_2" data-name="Layer 2">
      <g id="Layer_1-2" data-name="Layer 1">
        <g class="cls-2">
          <path class="cls-3" d="M291.86,3s-8,21.54-58,33.61-89.3-7.19-122.9,4-65.74,35-61.45,77.24S64.74,191.1,77.66,198s48.81,12.35,72.07-32.46,17-47.21,30.15-65.37C187.26,90,200.57,79.7,217.36,73.05c13-5.22,29.48-7.09,38.31-12.6,11.47-7.1,53.74-42.31,44-57.71C295.61-3.58,291.86,3,291.86,3Z"/>
          <path class="cls-3" d="M165.65,187a98.76,98.76,0,0,1-22.41-2.46,29.54,29.54,0,0,0-3.42-.61h-2.33l-2-2.13c-1.78-3.05-.21-5.77,8.46-20.92,8.05-14.07,19.09-33.35,22.2-46.09,6.15-25.16,41.19-49.75,58-49.75,13.8,0,56-30.69,59-36.25l.64-2.5,2.45-.1a8.08,8.08,0,0,1,1.36-.11,6,6,0,0,1,5.26,2.6c.83,1.25,1.49,3.42.07,6.66l-.45,1c-12,26-13,48.32-11.73,62.48,3.24,36.47-42.45,76-82.45,84.44A159.57,159.57,0,0,1,165.65,187Zm-21.1-10.47c.12,0,.26.05.38.09a91.34,91.34,0,0,0,20.72,2.28,150.34,150.34,0,0,0,31-3.62c36.58-7.7,78.85-44.18,76.06-75.77-1.2-13.51-.47-33.95,8.72-57.81-15.24,13-44.63,31.46-57.22,31.46-12.43,0-44.85,21.86-50.14,43.55-3.39,13.86-14.76,33.71-23.05,48.2C148.68,169,146.14,173.46,144.55,176.51Z"/>
          <path class="cls-3" d="M47.31,121.31s1,55.09,19.44,72.08c5.92,5.47-19.8,15.52-28.43,5.47S19.67,160.27,22,145.44,42.72,109.82,47.31,121.31Z"/>
          <path class="cls-3" d="M20.31,163.61c-.29,9.76,1.05,22,13.14,32.31,6,5.13-12,5.68-15.51,2.5-6.46-5.74-11.69-20.3-8-29.2C12.64,162.84,20.48,157.46,20.31,163.61Z"/>
          <path class="cls-3" d="M7.39,181.69s.42,12.51,8.18,17-13.34.85-15.07-6.9,1.42-13.28,3.38-13.05S7.41,179.55,7.39,181.69Z"/>
        </g>
      </g>
    </g>
  </g>
</svg>
