<svg xmlns="http://www.w3.org/2000/svg" viewBox="0 0 434.4 314.87">
  <defs>
    <style>
      .cls-1 {
        isolation: isolate;
      }

      .cls-2 {
        mix-blend-mode: hard-light;
      }

      .cls-3 {
        fill: #586168;
      }
    </style>
  </defs>
  <g class="cls-1">
    <g id="Layer_2" data-name="Layer 2">
      <g id="Layer_1-2" data-name="Layer 1">
        <g class="cls-2">
          <g>
            <path class="cls-3" d="M282.67,153.84c-.88-13.82-.63-27.23,8.42-37.93a21.29,21.29,0,0,1,6.8-4.8c1-4.09,2-8.28,2.82-12.52a113.49,113.49,0,0,0-21.61,24c-13.6,20.39-14,40.46-15.24,57.83-.18,2.23-.36,4.68-.45,7.17,7.39-12.72,13.82-23.78,17-29.55C281.19,156.71,281.93,155.28,282.67,153.84Z"/>
            <path class="cls-3" d="M400.11,155.68q-2.83,4.27-6,8.78-4,5.7-7.65,11c.5,9.83-.29,19.45-4.07,27-5.63,11.23-15.58,14.61-26,17.22-6.58,9.88-11.86,18-16,24.37,9.79-1.81,19.3-7.53,25.77-12.75C390.9,211.46,399.6,183.53,400.11,155.68Z"/>
            <path class="cls-3" d="M372.75,67.73c7.59-8.68-6.21-13.57,1.3-19.3,1,.24,1.7-.58,2.84,0,7.59,2.15,5.43,15.11,3.78,23.34,9.5,19.25,20,51.53,19.44,83.9,41.33-62.2,33.74-84.35,33.74-84.35.83-9.56-18.37-73.56-64.17-71.27-39.06,1.95-68.13,94.3-68.13,94.3-.27,1.42-.54,2.81-.84,4.23C322.68,80.17,349.62,71.18,372.75,67.73Z"/>
            <path class="cls-3" d="M356.46,219.68c8-12,17.92-26.65,30-44.17-.57-11.08-2.76-22.48-4.15-31.57-3-19.84-5.58-38.36-13.74-54.09-14.42-1.7-25.19,5.61-39.87,11-7.25,2.69-21.61,5.68-30.83,10.24-4.05,16.14-9.25,30.87-15.22,42.73,1.28,20.07,5,41-12.24,55.64-6.57-3.87-7.34-13.17-7-21.85C250,210.7,233.56,239.19,227.8,251.42c-9,19-5.09,30.91,22,46.18s37.1,14,47.67,7.23S328.66,263,328.66,263s3.57-6,11.84-18.94c-6.13,1.13-12.38.73-18.07-2.31C328.64,225.19,342.9,223.1,356.46,219.68Z"/>
            <path class="cls-3" d="M322.43,241.74c5.69,3,11.94,3.44,18.07,2.31,4.1-6.38,9.38-14.49,16-24.37C342.9,223.1,328.64,225.19,322.43,241.74Z"/>
            <path class="cls-3" d="M270.43,209.48c17.26-14.63,13.52-35.57,12.24-55.64-.74,1.44-1.48,2.87-2.23,4.24-3.21,5.77-9.64,16.83-17,29.55C263.09,196.31,263.86,205.61,270.43,209.48Z"/>
          </g>
          <g>
            <path class="cls-3" d="M151.73,159.06c.88-13.82.62-27.23-8.43-37.92a21.23,21.23,0,0,0-6.77-4.79c-1-4.12-2-8.3-2.86-12.55a112.71,112.71,0,0,1,21.62,24c13.59,20.41,14,40.45,15.26,57.82.17,2.25.34,4.71.43,7.19-7.38-12.72-13.82-23.78-17-29.56C153.2,161.94,152.45,160.51,151.73,159.06Z"/>
            <path class="cls-3" d="M34.29,160.92c1.89,2.84,3.87,5.76,6,8.77q4,5.69,7.66,11c-.5,9.85.28,19.44,4.06,27,5.64,11.23,15.59,14.62,26,17.22,6.58,9.87,11.85,18,16,24.37-9.81-1.81-19.3-7.54-25.77-12.75C43.49,216.69,34.79,188.77,34.29,160.92Z"/>
            <path class="cls-3" d="M61.64,73c-7.59-8.69,6.22-13.59-1.3-19.33-1,.26-1.7-.55-2.83,0C49.9,55.81,52.08,68.76,53.73,77c-9.51,19.25-20,51.53-19.44,83.91C-7.06,98.71.55,76.55.55,76.55-.29,67,18.93,3,64.72,5.29c39,1.94,68.13,94.3,68.13,94.3.27,1.41.54,2.83.82,4.21C111.71,85.4,84.79,76.42,61.64,73Z"/>
            <path class="cls-3" d="M77.93,224.91c-8-12-17.89-26.66-30-44.18.57-11.07,2.75-22.47,4.14-31.56,3-19.83,5.58-38.37,13.75-54.09,14.44-1.71,25.19,5.62,39.86,11,7.26,2.69,21.62,5.69,30.86,10.26,4,16.12,9.21,30.86,15.2,42.71-1.29,20.09-5,41,12.22,55.67,6.6-3.88,7.36-13.18,7-21.87,13.38,23.08,29.85,51.57,35.62,63.79,9,19,5.1,30.92-22.06,46.19s-37.09,14-47.65,7.24-31.15-41.87-31.15-41.87-3.56-6-11.84-18.93C100,250.4,106.27,250,112,247,105.76,230.42,91.49,228.33,77.93,224.91Z"/>
            <path class="cls-3" d="M112,247C106.27,250,100,250.4,93.9,249.28c-4.12-6.4-9.39-14.5-16-24.37C91.49,228.33,105.76,230.42,112,247Z"/>
            <path class="cls-3" d="M164,214.73c-17.23-14.65-13.51-35.58-12.22-55.67.72,1.45,1.47,2.88,2.23,4.24,3.2,5.78,9.64,16.84,17,29.56C171.31,201.55,170.55,210.85,164,214.73Z"/>
          </g>
        </g>
      </g>
    </g>
  </g>
</svg>
