<svg xmlns="http://www.w3.org/2000/svg" viewBox="0 0 642.3 596.41">
  <defs>
    <style>
      .cls-1 {
        isolation: isolate;
      }

      .cls-2 {
        mix-blend-mode: hard-light;
      }

      .cls-3 {
        fill: #586168;
        fill-rule: evenodd;
      }
    </style>
  </defs>
  <g class="cls-1">
    <g id="Layer_2" data-name="Layer 2">
      <g id="Layer_1-2" data-name="Layer 1">
        <g class="cls-2">
          <path class="cls-3" d="M537.56,69.83c-19.9,3-383.27,497.09-383.27,497.09s-7.32,41.52,24.64,26c7.58-3.66,378.75-501.81,378.75-501.81S561.23,66.28,537.56,69.83Z"/>
          <path class="cls-3" d="M499.09,161.07,548,416.91s27,9,28.67-9.89-58.93-278.61-58.93-278.61Z"/>
          <path class="cls-3" d="M371.85,0,156.61,278.91l33-5.2L386.05,18.93S389.61,1.18,371.85,0Z"/>
          <polygon class="cls-3" points="32.16 459.22 170.64 544.75 158.14 561.7 20.32 473.43 32.16 459.22"/>
          <path class="cls-3" d="M87.79,362.17s-72.19,93.49-84,110.06,6.64,30.37,22.49,13c12.37-13.54,80-109.9,80-109.9Z"/>
          <path class="cls-3" d="M202.6,395.31s-21.3,23.4,4.73,32.41l52.09-16.22,22.47-31.57Z"/>
          <path class="cls-3" d="M570.06,341.29,577,365.43l64.93-10.33s4.14-22.29-13.6-20.3Z"/>
          <polygon class="cls-3" points="403.52 314.95 537.35 385.16 533.79 362.97 413.1 298.16 403.52 314.95"/>
          <path class="cls-3" d="M58.5,347.68l16,8.48s2.58-40.66,64.22-33C186.62,329,260.59,271,287.82,229S373.11,86.45,386.34,57.4C392.77,43.31,406.17,29,406.17,29s-3.57-7.42-19.83-5.92c0,0-12.71,11.31-30.62,46.4-19.39,37.94-49.46,96.18-64.94,119.39C278,208,242.91,259,213.84,279.32c-19.44,13.62-42,33.14-92.31,36.7S61.17,316.59,58.5,347.68Z"/>
          <path class="cls-3" d="M102.64,372.77s-8.34-28.37,45.52-31.91,61.45-11.49,75.16-16c32.55-10.65,58-39.06,74.56-59.18s45.77-62.39,60.94-86.4c15-23.74,36.26-67.12,47.35-96.47,9-23.76,21.31-45,40.83-39s17.17,8.87,17.17,8.87S444.88,56,419.79,119.55C402.6,163,377.17,199.44,359.43,228.44c-19.24,31.43-53.86,85.34-100,104.51,0,0-48.53,16.79-84,18s-54.45,8.28-54.45,33.43Z"/>
          <path class="cls-3" d="M157,396.49s-8.28-37.94,49.12-34.07S304.39,336.88,310.3,333s74.58-79.67,85.22-101,66.84-116.9,72.93-136.11c5.71-18,17.89-31.81,27.08-31.95,14.2-.24,20.73,3.54,20.13,11.83s-27.81,11.84-40.59,65.68-91.51,118.44-91.51,118.44-66.16,90.38-90.42,102.55-65.69-2-95.87,12.77-20.12,28.63-20.12,28.63Z"/>
          <path class="cls-3" d="M226.27,269.2S66.64,297.36,40.75,305.35c-6.69,2.07-22,24.21,6.21,35.51S28.32,323.11,58.5,316s128.43-18.66,128.43-18.66l42.64-31.27"/>
          <path class="cls-3" d="M313.27,69.48s-29.3-40.78-24,32.74Z"/>
          <polygon class="cls-3" points="321.83 105.77 321.83 131.96 300.94 161.55 300.94 133.67 321.83 105.77"/>
        </g>
      </g>
    </g>
  </g>
</svg>
