<svg xmlns="http://www.w3.org/2000/svg" viewBox="0 0 190.63 180.92">
  <defs>
    <style>
      .cls-1 {
        fill: #73a48e;
      }
    </style>
  </defs>
  <g id="Layer_2" data-name="Layer 2">
    <g id="Layer_1-2" data-name="Layer 1">
      <g>
        <g>
          <path class="cls-1" d="M56.67,17.21,0,107.37s18.55,1.33,28.35-13.76S56.67,17.21,56.67,17.21Z"/>
          <path class="cls-1" d="M64.4,15.14,39.17,91.46s25.23,2.15,35-17.95Z"/>
          <path class="cls-1" d="M71.63,15.14l7.71,56.15s17.52,5.16,29.37-13.9Z"/>
          <path class="cls-1" d="M77.29,11.53l37.09,44.83s19.07,0,35-12.83Z"/>
          <path class="cls-1" d="M82.44,6.89,190.63,26s-15.53,17.3-34,14.93Z"/>
          <path class="cls-1" d="M68.84,11c-2.06,1-4.24.7-4.85-.61L61.36,4.7c-.62-1.31.56-3.16,2.62-4.12h0c2.06-1,4.23-.69,4.86.62l2.62,5.65c.6,1.32-.57,3.16-2.62,4.1Z"/>
        </g>
        <polygon class="cls-1" points="149.05 180.92 95.31 62.34 99.06 60.64 152.81 179.23 149.05 180.92"/>
      </g>
    </g>
  </g>
</svg>
