<svg xmlns="http://www.w3.org/2000/svg" viewBox="0 0 416.65 494.78">
  <defs>
    <style>
      .cls-1 {
        isolation: isolate;
      }

      .cls-2 {
        mix-blend-mode: hard-light;
      }

      .cls-3 {
        fill: #586168;
      }
    </style>
  </defs>
  <g class="cls-1">
    <g id="Layer_2" data-name="Layer 2">
      <g id="Layer_1-2" data-name="Layer 1">
        <g class="cls-2">
          <rect class="cls-3" x="376.21" width="40.24" height="51.31"/>
          <g>
            <path class="cls-3" d="M416.46,395.62V68.17H376.21V260.84H361.32c-13.43-41.19-46.59-63.79-79.72-76.19-3.23-15.41-17.85-50.52-84.27-51.83-69.83-1.37-89.68,37.39-95,54.3C69.65,200.68,38.22,224.75,27,267.36A14.76,14.76,0,0,0,0,275.6v22.54A14.73,14.73,0,0,0,22.77,310.5c1,23.53,7.29,41.83,19,54.36,11,11.75,26.41,18,44.52,18,30.18,0,62.86-18.14,67.24-37.32,8.05-35.32,20.91-51.26,41.69-51.68h.67c24.47,0,36,32.43,40.73,51.77,4.77,19.54,36.87,37.34,67.37,37.34,18,0,33.36-6.2,44.35-17.92s17.22-28.2,18.84-49.39h9v80s3.74,47.72-32.14,36.75c-11.41-18.67-37-14.73-37-14.73,41.08,57-15.93,77.14,0,77.14,12.53,0,32.79-2.41,39.86-22.8C361.25,473,420.39,472.34,416.46,395.62Zm-77.88-39.79C328,367.14,313.94,369.51,304,369.51c-27.24,0-51.74-16.44-54.33-27.09-9.74-40-28.84-62-53.77-62h-1c-36.31.73-48.48,35.8-54.48,62.1-2.42,10.58-26.77,26.9-54.16,26.9-10,0-24.09-2.38-34.73-13.73-12-12.77-17.11-33.74-15.27-62.35C43.06,188.35,167.5,183,192.38,183c1.57,0,2.44,0,2.93,0,.06,0,.93,0,2.5,0,24.88,0,149.31,5.31,156.06,110.29C355.72,322,350.57,343.05,338.58,355.83Z"/>
            <path class="cls-3" d="M197.33,329c-24.62,0-47.17,23.2-50.87,57.26l101.73.32S234.22,329,197.33,329Z"/>
          </g>
        </g>
      </g>
    </g>
  </g>
</svg>
