<svg xmlns="http://www.w3.org/2000/svg" viewBox="0 0 414.62 393.49">
  <defs>
    <style>
      .cls-1 {
        isolation: isolate;
      }

      .cls-2 {
        mix-blend-mode: hard-light;
      }

      .cls-3 {
        fill: #586168;
      }
    </style>
  </defs>
  <g class="cls-1">
    <g id="Layer_2" data-name="Layer 2">
      <g id="Layer_1-2" data-name="Layer 1">
        <g class="cls-2">
          <g>
            <path class="cls-3" d="M123.26,37.45,0,233.53s40.35,2.89,61.65-29.93S123.26,37.45,123.26,37.45Z"/>
            <path class="cls-3" d="M140.06,33l-54.87,166s54.87,4.67,76.18-39.05Z"/>
            <path class="cls-3" d="M155.78,33l16.79,122.13s38.11,11.21,63.86-30.26Z"/>
            <path class="cls-3" d="M168.09,25.1l80.69,97.49s41.44,0,76.17-27.87Z"/>
            <path class="cls-3" d="M179.31,15,414.62,56.46s-33.79,37.64-74,32.5Z"/>
            <path class="cls-3" d="M149.72,23.83c-4.5,2.1-9.22,1.51-10.56-1.35L133.45,10.2c-1.34-2.84,1.21-6.85,5.69-8.95h0c4.49-2.11,9.21-1.49,10.58,1.37l5.7,12.29c1.32,2.86-1.24,6.86-5.7,8.92Z"/>
          </g>
          <polygon class="cls-3" points="324.18 393.49 207.29 135.57 215.45 131.87 332.36 389.8 324.18 393.49"/>
        </g>
      </g>
    </g>
  </g>
</svg>
