<svg xmlns="http://www.w3.org/2000/svg" viewBox="0 0 313.27 313.25">
  <defs>
    <style>
      .cls-1 {
        fill: #586168;
      }
    </style>
  </defs>
  <g id="Layer_2" data-name="Layer 2">
    <g id="Layer_1-2" data-name="Layer 1">
      <g>
        <path class="cls-1" d="M156.63,313.25C70.26,313.25,0,243,0,156.63S70.26,0,156.63,0,313.27,70.26,313.27,156.63,243,313.25,156.63,313.25Zm0-305.47C74.56,7.78,7.78,74.55,7.78,156.63S74.56,305.47,156.63,305.47,305.49,238.7,305.49,156.63,238.71,7.78,156.63,7.78Z"/>
        <path class="cls-1" d="M148.05,31s27.49,7.47,20.63,31.53c0,0,85.49-8.6,133,72.55l4.3,7.28c1.4.52,2-1.3,2.56-1.53,7.32-3.08-12.53-99-105.86-128C202.72,12.82,168.68,10.65,148.05,31Z"/>
        <path class="cls-1" d="M90.47,109.79s32.76,5.88,53.29-7.88c6.91-4.63,37.67,50.88,60.14,101.8a800.12,800.12,0,0,1,31.3,83.94s-62.13,36.42-135.31,10.81c-19.16-6.72-28.32-59.59-30-85S84.46,116.67,90.47,109.79Z"/>
        <path class="cls-1" d="M96.38,38.91S69.5,53.78,69.73,76.79,8.23,106.74,5.27,136.14-3.45,63.92,79.58,24.73C87.21,21.13,96.38,38.91,96.38,38.91Z"/>
      </g>
    </g>
  </g>
</svg>
