<svg xmlns="http://www.w3.org/2000/svg" viewBox="0 0 261.96 275.29">
  <defs>
    <style>
      .cls-1 {
        fill: #586168;
      }
    </style>
  </defs>
  <g id="Layer_2" data-name="Layer 2">
    <g id="Layer_1-2" data-name="Layer 1">
      <g>
        <path class="cls-1" d="M222.87,159a45.72,45.72,0,0,0-7.11-.89c-9-.53-19.1,1.52-24.51,9.15a17.92,17.92,0,0,0-1.54,2.26,10.36,10.36,0,0,1-2,2.83,1.09,1.09,0,0,1-.19.18c-3.08,2.79-6-1.31-11.3-2.62a17.5,17.5,0,0,0-2.89-.42c-7.84-.72-22.2,1.38-28.88,10.51-9.24,12.6-17.21,47.05,15.46,75.92,16.67,14.71,28.57,17.46,37.22,16.67,7-.64,11.88-3.62,15.35-4.44,7.7-1.82,30.19-1.65,39.82-43.93S236.29,161.89,222.87,159Z"/>
        <path class="cls-1" d="M261.91,115.45c-.64-.15-5.14-9.15-4.84-12.46s-3.32-8.1-3.32-8.1c2.58.26,1.5-2.89.66-4.19-1.14-1.81-7.15-6.16-4.33-5.87s1.3-2.29,1.3-2.29-6.27-7.56-6.16-7.66,3.16,1.12.78-3.16a20.3,20.3,0,0,0-7.07-7c2.61-1.05,2.75-2.08,1.41-3.83-1.77-2.36-9.4-6.51-8.79-6.78s3.66.93.74-3-11.17-7.17-11.17-7.17c2.69-2.14-1-4-1-4s-17.17-3.46-15.91-4.24,2-1.64-.64-2.82c-1.85-.85-8.1-1.51-11.72-1.84h0s6.58-1.48,1.11-1.76a122.14,122.14,0,0,0-12.28.3c-.59,0-1,0-1.59,0-18.09.59-23.34-6.3-24.62-8.89.06-1.13,0-2.24,0-3.33a3.5,3.5,0,0,0,1.7.26c1.61-.49,7.26-10.73,8.19-11.86.53-.68-1.46-3.07-3.75-4.54-1.58-1-3.3-1.61-4.44-.9-2.84,1.77-7.32,13.27-7.32,13.27s.07.29.24.5a2.86,2.86,0,0,0-.84,2.22c0,.38,0,.76,0,1.14-.71.93-2.78,2.89-7.17,3.46-3,.43-7,.22-12.54-1.38-1-.3-2-.56-2.78-.79-8.74-2.42-7.84-1.46-6.49-.64.58.35,1.22.64,1.25.66-1-.14-2.28-.31-3.57-.43a22.4,22.4,0,0,0-4.85-.17c-2,.4-1.66,1.14-.9,1.87.29.29-1.41.41-3.58.46h-3c-2.66,0-5.15-.07-5.15-.07s-2.88.71-1.36,2.64c0,0-6.26.9-8.92,3.19s-.34,2,0,2.25S83.62,30.45,82,31.8c-1.18,1-1.29,1.75.37,2.89a14.52,14.52,0,0,0-6,3.69c-2.34,2.61,0,2.22,0,2.32S70.85,45,70.85,45s-1.45,1.58.55,1.81-2.86,2.34-4,3.41c-.79.77-2,2.78-.23,3,0,0-3.25,2.74-3.58,5.1s-4.9,7.87-5.35,7.88c-.06,0-.09,0-.06.08.1.44,2.69,2.57,11.07,3.27,1,.07,0,2.17,0,2.17s7.37.71,7.87.38-.58,2.16-.58,2.16a18.47,18.47,0,0,0,6.4.18,8.53,8.53,0,0,0,2.42-.76c.22-.12.28.41.31,1a9.15,9.15,0,0,1,0,1.31,18,18,0,0,0,5.41-1.36c.53-.22,1-.36,1.61-.63s1,.94,1,1.52c0,.19,0,.31,0,.31a30.32,30.32,0,0,0,4.59-1.76,10.46,10.46,0,0,0,1.71-1s1.24,1,.66,1.52,5-1.44,6.31-3.28,1.56,1.23,1.56,1.23,4.09-2.64,4.91-4.19,1.37,1.18,1.37,1.18,3.48-2.35,4.35-4.28c.62-1.4,1.36.77,1.2,1l.16-.25s2.28-.91,5.5-5.88c.63-1,1,1.54,1,1.8,0,0,4.12-4,4.73-6.75.26-1.16,1.12.26,1.26.79-2.37,3.18-4.88,6.24-7.51,9.25C116.24,76,105.82,85.73,97.87,93.87c-20.24,20.65-42.33,47.29-42,77.79,0,.54,0,1.08,0,1.61,0,.15.08.24.08.38-2.22-.14-3.66-1.45-7.33-2.75A60.84,60.84,0,0,0,33.84,168c-3.68-.23-7.17-.11-9.59.75-5.93,2.13-14.85,7.34-21.58,24.15s.88,44,6.49,53.64c10.52,18,28.52,24.84,28.52,24.84a55.19,55.19,0,0,0,23.18,3.8c16-.89,28-8.81,33.27-13.11,7.05-5.76,21.73-28.67,22.16-47.3s-6.34-32-15.55-39.66a32.71,32.71,0,0,0-19.52-7.21,54,54,0,0,0-5.58,0,22.16,22.16,0,0,0-8.08,2c-1.46.61-3.16,1.33-5.46,2.25-.73-35.72,29.88-62.75,52.44-86.69,8.91-9.45,20-20.92,28.25-33.58-.29,2.86-.53,5.67-.73,8.51-2.69,40.24,6.31,80.23,37.2,109.12.92.87,1.81,1.78,2.78,2.61a3.16,3.16,0,0,0,4.44-.21,3.68,3.68,0,0,0,.28-.39,2.58,2.58,0,0,0-.35-3.77C149.79,135.69,143.32,88.45,150.17,43A55,55,0,0,0,153.82,58c.37.84.59,1.31.59,1.31.13-.56,2.24-2.59,2-1.45-.6,3.21,1.83,9.94,1.83,9.94.09-.58,2.34-2.66,1.81-.68C158.94,71,163,77.92,163,77.92c.35-.66,2-2.39,2-.72,0,3.91,4.34,10.7,4.34,10.7.09-.35,1.32-3.68,1.88-2.14,2.8,7.79,5.64,9.75,5.64,9.75l.18.4c-.18-.4,1.52-3.13,1.93-1,.56,2.92,4.59,7.22,4.59,7.22s1.62-3.56,2.25-1.19,5.39,7.27,5.39,7.27,1.31-4.12,2.54-1.2,8.13,7.27,7.52,6.45,1.41-1.87,1.41-1.87c2.22,2.79,7.71,5.85,7.71,5.85s.76-2.35,1.72-2.32a.63.63,0,0,1,.38.12,27.72,27.72,0,0,0,2.59,1.81,23.29,23.29,0,0,0,6.34,3.13,17.51,17.51,0,0,1,.49-2.19c.21-.59.44-1,.66-.82a13.09,13.09,0,0,0,4.35,2.3,26.31,26.31,0,0,0,7.48,1.26,6.56,6.56,0,0,0-.12-.69c-.17-1.06-.42-2.87,0-2.44.27.3,2.69.74,5.18,1.15,2.81.46,5.69.84,5.69.84s-.07-.37-.14-.81c-.14-.94-.23-2.35.76-2.2,1.72.24,3.24.39,4.65.5a43.53,43.53,0,0,0,6,0c3.72-.32,5.33-1.19,5.49-1.54A.07.07,0,0,0,261.91,115.45ZM136.09,51.69a6.24,6.24,0,0,0,.74-2.75c0-1.08.61-.38,1,.24C137.24,50,136.67,50.85,136.09,51.69Zm4.42-7.1a5.83,5.83,0,0,0,.32-1.52c0-.35.24-.21.49.08C141.06,43.64,140.77,44.12,140.51,44.59Z"/>
      </g>
    </g>
  </g>
</svg>
