<svg xmlns="http://www.w3.org/2000/svg" viewBox="0 0 246.63 508.17">
  <defs>
    <style>
      .cls-1 {
        fill: #586168;
      }
    </style>
  </defs>
  <g id="Layer_2" data-name="Layer 2">
    <g id="Layer_1-2" data-name="Layer 1">
      <g>
        <polygon class="cls-1" points="103.54 164.7 102.42 70.44 0 4.84 3.12 0 108.13 67.25 109.3 164.62 103.54 164.7"/>
        <path class="cls-1" d="M211.41,493.75c-3.16-15.27-52-13.57-60.44-15.27s-8.5-21.2-8.5-21.2-.83-109.4,0-118.74,5.09-14.43,12.73-19.5,53.42-25.45,56-62.76S195.06,192.67,190,174s-5.1-73.78-5.1-73.78H81.26s0,55.13-5.09,73.78S52.44,219,55,256.28,103.33,314,111,319s11.87,10.18,12.71,19.5,0,118.74,0,118.74,0,19.5-8.48,21.2-57.29,0-60.44,15.27,75.72,14.41,75.72,14.41l2.2,0v0c.24,0,.57,0,.83,0l2.2,0S214.57,509,211.41,493.75ZM85,158.31V104.12h95.87l.33,54.08Z"/>
        <path class="cls-1" d="M225.93,55.49c-40.23-36.57-81.27-8-89.73-1.36l-.22-.2-2.91,3.13,91.87,86.08.37-.4.62.62S272.51,97.85,225.93,55.49ZM222.27,57c38.76,35.81,10.36,69.64,1.07,78.87L186.82,101.6l55-6.27L241.3,91l-50.76,5.8,26.87-43.77C219,54.3,220.66,55.48,222.27,57Zm-6.72-5.39-1.67-1L185.35,97.06q-7-26.76-14.08-53.5c-.08-.25-.38-.4-.7-.52C183.91,39.87,199.88,40.43,215.55,51.57ZM167,44q6.8,25.87,13.63,51.77l-40.5-38A85,85,0,0,1,167,44Z"/>
      </g>
    </g>
  </g>
</svg>
