<?xml version="1.0" encoding="utf-8"?>
<!-- Generator: Adobe Illustrator 27.5.0, SVG Export Plug-In . SVG Version: 6.00 Build 0)  -->
<svg version="1.1" xmlns="http://www.w3.org/2000/svg" xmlns:xlink="http://www.w3.org/1999/xlink" x="0px" y="0px"
	 viewBox="0 0 750 500" style="enable-background:new 0 0 750 500;" xml:space="preserve">
<g id="BACKGROUND">
	<rect style="fill:#FFFFFF;" width="750" height="500"/>
</g>
<g id="OBJECTS">
	<g>
		<defs>
			<rect id="SVGID_1_" width="750" height="500"/>
		</defs>
		<clipPath id="SVGID_00000098922193372320961770000007206585207222518190_">
			<use xlink:href="#SVGID_1_"  style="overflow:visible;"/>
		</clipPath>
		<g style="clip-path:url(#SVGID_00000098922193372320961770000007206585207222518190_);">
			<g>
				<rect y="-8.456" style="fill:#F9EBC8;" width="750" height="500"/>
			</g>
			<g>
				<rect x="516.907" y="-8.456" style="fill:#CCA65D;" width="233.093" height="500"/>
				<rect x="516.907" y="343.458" style="fill:#A88643;" width="233.093" height="148.085"/>
				<g>
					<rect x="571.462" y="55.475" style="fill:#EBD7B2;" width="232.503" height="151.439"/>
					<rect x="577.462" y="61.476" style="fill:#E8C176;" width="220.503" height="139.438"/>
					<g>
						<defs>
							
								<rect id="SVGID_00000051370429175256657890000017408245525696144814_" x="577.462" y="61.476" width="220.503" height="139.438"/>
						</defs>
						<clipPath id="SVGID_00000088816230835459292660000017806608551609670323_">
							<use xlink:href="#SVGID_00000051370429175256657890000017408245525696144814_"  style="overflow:visible;"/>
						</clipPath>
						<path style="opacity:0.47;clip-path:url(#SVGID_00000088816230835459292660000017806608551609670323_);fill:#A88643;" d="
							M719.984,116.29l-17.913,33.136c-8.798,16.275-26.278,16.275-35.076,0l-17.912-33.136c-8.798-16.275-26.278-16.275-35.076,0
							l-48.721,90.129h105.976h26.542h105.976l-48.721-90.129C746.261,100.015,728.781,100.015,719.984,116.29z"/>
					</g>
				</g>
				<g>
					<g>
						<path style="fill:#4C808D;" d="M703.168,249.74c-1.357,1.773-2.587,3.587-3.262,5.631c-0.679-1.775-1.711-3.853-2.8-5.466
							c-0.77-1.141-2.152-1.551-3.57-1.815c-67.883-12.642-129.758,11.677-129.719,19.613c-0.001,0.132,0.013,0.263,0.041,0.392
							c3.281,31.4,6.525,53.779,9.731,85.184c81.427-5.886,171.981-5.886,253.407,0c3.206-31.406,6.45-53.785,9.731-85.184
							c0.028-0.129,0.042-0.26,0.041-0.392c0.04-7.9-67.456-34.877-130.15-19.604C705.295,248.42,703.962,248.702,703.168,249.74z"
							/>
						
							<line style="fill:none;stroke:#3D6F78;stroke-width:1.9131;stroke-linecap:round;stroke-linejoin:round;stroke-miterlimit:10;" x1="699.906" y1="258.809" x2="699.906" y2="315.004"/>
					</g>
					<g>
						<polygon style="fill:#69A6AB;" points="700.293,313.628 699.906,313.628 579.337,313.628 579.337,338.716 699.906,338.716 
							700.293,338.716 820.862,338.716 820.862,313.628 						"/>
						<polygon style="fill:#3D6F78;" points="699.906,329.048 698.318,329.048 574.794,329.048 574.794,362.186 698.318,362.186 
							699.906,362.186 823.43,362.186 823.43,329.048 						"/>
					</g>
					<g>
						<polygon style="fill:#474D4D;" points="579.29,384.428 575.024,384.428 571.785,365.119 582.528,365.119 						"/>
						<polygon style="fill:#474D4D;" points="825.563,384.428 821.297,384.428 818.058,365.119 828.801,365.119 						"/>
					</g>
					<g>
						<g>
							<path style="fill:#3D6F78;" d="M842.606,374.432h-25.809v-59.943c0-5.487,4.448-9.936,9.936-9.936h18.166
								c5.487,0,9.936,4.448,9.936,9.936v47.715C854.834,368.957,849.359,374.432,842.606,374.432z"/>
							<path style="fill:#3D6F78;" d="M852.056,317.676c-11.202-1.08-22.481-1.08-33.683,0c-2.834,0.272-5.427-1.722-5.801-4.553
								c-0.406-3.214-0.812-6.428-1.218-9.642c-0.373-2.828,1.903-5.459,5.094-5.766c12.482-1.203,25.05-1.203,37.531,0
								c3.191,0.306,5.468,2.938,5.094,5.766c-0.406,3.214-0.812,6.428-1.218,9.642C857.483,315.954,854.89,317.948,852.056,317.676
								z"/>
							<path style="fill:#3D6F78;" d="M582.838,374.432h-25.809c-6.753,0-12.228-5.475-12.228-12.228v-47.715
								c0-5.487,4.448-9.936,9.936-9.936h18.166c5.487,0,9.936,4.448,9.936,9.936V374.432z"/>
							<rect x="577.157" y="355.806" style="fill:#4F7F8D;" width="246.273" height="18.626"/>
							<path style="fill:#3D6F78;" d="M580.06,317.676c-11.202-1.08-22.481-1.08-33.683,0c-2.834,0.272-5.427-1.722-5.801-4.553
								c-0.406-3.214-0.812-6.428-1.218-9.642c-0.373-2.828,1.904-5.459,5.094-5.766c12.482-1.203,25.05-1.203,37.532,0
								c3.191,0.306,5.468,2.938,5.094,5.766c-0.406,3.214-0.812,6.428-1.218,9.642C585.487,315.954,582.894,317.948,580.06,317.676
								z"/>
						</g>
					</g>
				</g>
			</g>
			<rect y="401.768" style="fill:#76919C;" width="750" height="98.232"/>
			<g>
				<g>
					
						<ellipse transform="matrix(0.238 -0.9713 0.9713 0.238 26.2896 238.2453)" style="fill:#FFFFFF;" cx="164.977" cy="102.368" rx="23.955" ry="23.955"/>
					<path style="fill:#775064;" d="M164.977,79.485c12.638,0,22.883,10.245,22.883,22.883c0,12.638-10.245,22.883-22.883,22.883
						c-12.638,0-22.883-10.245-22.883-22.883C142.094,89.73,152.339,79.485,164.977,79.485 M164.977,77.341
						c-13.8,0-25.027,11.227-25.027,25.027s11.227,25.027,25.027,25.027c13.8,0,25.027-11.227,25.027-25.027
						S178.777,77.341,164.977,77.341L164.977,77.341z"/>
				</g>
				<g>
					
						<ellipse transform="matrix(0.238 -0.9713 0.9713 0.238 26.2896 238.2453)" style="fill:#FFFFFF;" cx="164.977" cy="102.368" rx="23.955" ry="23.955"/>
					<path style="fill:#D78B57;" d="M164.977,79.485c12.638,0,22.883,10.245,22.883,22.883c0,12.638-10.245,22.883-22.883,22.883
						c-12.638,0-22.883-10.245-22.883-22.883C142.094,89.73,152.339,79.485,164.977,79.485 M164.977,77.341
						c-13.8,0-25.027,11.227-25.027,25.027s11.227,25.027,25.027,25.027c13.8,0,25.027-11.227,25.027-25.027
						S178.777,77.341,164.977,77.341L164.977,77.341z"/>
				</g>
				<g>
					<path style="fill:#D78B57;" d="M166.762,102.369c0,0.986-0.799,1.785-1.785,1.785c-0.986,0-1.785-0.799-1.785-1.785
						c0-0.985,0.799-1.784,1.785-1.784C165.962,100.584,166.762,101.383,166.762,102.369z"/>
				</g>
				<g>
					<path style="fill:#D78B57;" d="M166.005,81.658c0,0.568-0.46,1.028-1.028,1.028c-0.568,0-1.028-0.46-1.028-1.028
						c0-0.567,0.46-1.028,1.028-1.028C165.544,80.63,166.005,81.09,166.005,81.658z"/>
				</g>
				<g>
					<path style="fill:#D78B57;" d="M185.688,103.396c-0.567,0-1.028-0.46-1.028-1.028c0-0.567,0.46-1.028,1.028-1.028
						c0.568,0,1.028,0.46,1.028,1.028C186.715,102.936,186.255,103.396,185.688,103.396z"/>
				</g>
				<g>
					<path style="fill:#D78B57;" d="M163.949,123.079c0-0.568,0.46-1.028,1.028-1.028c0.567,0,1.028,0.46,1.028,1.028
						c0,0.568-0.46,1.028-1.028,1.028C164.409,124.107,163.949,123.647,163.949,123.079z"/>
				</g>
				<g>
					<path style="fill:#D78B57;" d="M144.266,101.341c0.567,0,1.028,0.46,1.028,1.028c0,0.568-0.46,1.028-1.028,1.028
						c-0.568,0-1.028-0.46-1.028-1.028C143.238,101.801,143.699,101.341,144.266,101.341z"/>
				</g>
				<g>
					<path style="fill:#D78B57;" d="M164.767,102.079c2.259-2.046,4.69-3.854,7.165-5.601c2.488-1.729,5.031-3.384,7.758-4.784
						c-2.177,2.159-4.539,4.062-6.956,5.89c-2.429,1.811-4.903,3.561-7.548,5.073L164.767,102.079z"/>
				</g>
				<g>
					<path style="fill:#D78B57;" d="M164.806,102.682c-1.97-0.696-3.797-1.654-5.59-2.675c-1.782-1.041-3.52-2.162-5.107-3.561
						c2.036,0.575,3.92,1.427,5.761,2.361c1.83,0.953,3.625,1.969,5.278,3.247L164.806,102.682z"/>
				</g>
			</g>
			<g>
				<g>
					
						<ellipse transform="matrix(1 -0.0084 0.0084 1 -0.8463 2.1271)" style="fill:#FFFFFF;" cx="254.212" cy="102.368" rx="23.955" ry="23.955"/>
					<path style="fill:#775064;" d="M254.212,79.485c12.638,0,22.883,10.245,22.883,22.883c0,12.638-10.245,22.883-22.883,22.883
						c-12.638,0-22.883-10.245-22.883-22.883C231.328,89.73,241.574,79.485,254.212,79.485 M254.212,77.341
						c-13.8,0-25.027,11.227-25.027,25.027s11.227,25.027,25.027,25.027s25.027-11.227,25.027-25.027S268.012,77.341,254.212,77.341
						L254.212,77.341z"/>
				</g>
				<g>
					
						<ellipse transform="matrix(1 -0.0084 0.0084 1 -0.8463 2.1271)" style="fill:#FFFFFF;" cx="254.212" cy="102.368" rx="23.955" ry="23.955"/>
					<path style="fill:#D78B57;" d="M254.212,79.485c12.638,0,22.883,10.245,22.883,22.883c0,12.638-10.245,22.883-22.883,22.883
						c-12.638,0-22.883-10.245-22.883-22.883C231.328,89.73,241.574,79.485,254.212,79.485 M254.212,77.341
						c-13.8,0-25.027,11.227-25.027,25.027s11.227,25.027,25.027,25.027s25.027-11.227,25.027-25.027S268.012,77.341,254.212,77.341
						L254.212,77.341z"/>
				</g>
				<g>
					<path style="fill:#D78B57;" d="M255.996,102.369c0,0.986-0.799,1.785-1.785,1.785c-0.986,0-1.785-0.799-1.785-1.785
						c0-0.985,0.799-1.784,1.785-1.784C255.197,100.584,255.996,101.383,255.996,102.369z"/>
				</g>
				<g>
					<path style="fill:#D78B57;" d="M255.239,81.658c0,0.568-0.46,1.028-1.028,1.028c-0.568,0-1.028-0.46-1.028-1.028
						c0-0.567,0.46-1.028,1.028-1.028C254.779,80.63,255.239,81.09,255.239,81.658z"/>
				</g>
				<g>
					<path style="fill:#D78B57;" d="M274.922,103.396c-0.567,0-1.028-0.46-1.028-1.028c0-0.567,0.46-1.028,1.028-1.028
						c0.568,0,1.028,0.46,1.028,1.028C275.95,102.936,275.49,103.396,274.922,103.396z"/>
				</g>
				<g>
					<path style="fill:#D78B57;" d="M253.184,123.079c0-0.568,0.46-1.028,1.028-1.028c0.568,0,1.028,0.46,1.028,1.028
						c0,0.568-0.46,1.028-1.028,1.028C253.644,124.107,253.184,123.647,253.184,123.079z"/>
				</g>
				<g>
					<path style="fill:#D78B57;" d="M233.501,101.341c0.568,0,1.028,0.46,1.028,1.028c0,0.568-0.46,1.028-1.028,1.028
						c-0.568,0-1.028-0.46-1.028-1.028C232.473,101.801,232.933,101.341,233.501,101.341z"/>
				</g>
				<g>
					<path style="fill:#D78B57;" d="M253.854,102.369c-0.329-3.073-0.366-6.146-0.326-9.219c0.061-3.073,0.214-6.146,0.683-9.219
						c0.469,3.073,0.622,6.146,0.683,9.219c0.04,3.073,0.003,6.146-0.326,9.219H253.854z"/>
				</g>
				<g>
					<path style="fill:#D78B57;" d="M254.416,102.661c-1.655,1.563-3.482,2.881-5.349,4.14c-1.88,1.241-3.814,2.407-5.928,3.313
						c1.577-1.675,3.334-3.092,5.145-4.433c1.823-1.323,3.688-2.587,5.723-3.606L254.416,102.661z"/>
				</g>
			</g>
			<g>
				<g>
					<path style="fill:#251225;" d="M177.651,152.848c0,0-15.701,2.636-5.874,34.321c0.979,3.156-10.732,9.428-5.405,17.491
						l35.008-1.412c0,0,7.232-4.135,0.83-11.8c-6.764-8.098-2.459-25.567-2.302-33.954L177.651,152.848z"/>
					<g>
						<path style="fill:#FDB9A2;" d="M264.961,271.134l0.321-3.327c0.09-0.936-0.153-1.874-0.687-2.649l-4.973-7.214
							c-0.522-0.757-1.268-1.332-2.133-1.643l-9.857-3.549l-29.928-20.208l-10.891-29.12c-1.298-3.238-7.178-3.219-8.549-0.011
							l-5.115,11.965l16.492,33.213l31.748,9.351l4.924,5.828l7.964,6.86l0.365-0.58c0.544-0.866,0.473-1.984-0.177-2.774
							l-3.375-4.102c-0.399-0.485,0.135-1.175,0.705-0.91l4.663,2.172l6.331,7.385C263.5,272.649,264.856,272.22,264.961,271.134z"
							/>
						<path style="fill:#624363;" d="M246.736,252.146l-29.03-19.602l-10.891-29.12c-1.298-3.238-7.178-3.219-8.549-0.011
							l-5.115,11.965l13.834,32.227l32.737,12.145L246.736,252.146z"/>
						<path style="fill:#332437;" d="M217.973,244.825c-4.033-5.144-10.989-12.72-10.989-12.72s-0.44-10.531-0.87-18.746
							c-0.131-0.138-0.254-0.291-0.361-0.47c-1.303-2.184-2.76-4.299-3.803-6.626c-0.694-1.549-1.093-3.204-1.661-4.795
							c-0.896,0.395-1.638,1.043-2.024,1.945l-5.115,11.965l13.834,32.227l21.049,7.809
							C224.385,252.169,220.984,248.667,217.973,244.825z"/>
					</g>
					<g>
						<g>
							<g>
								<g>
									<path style="fill:#251225;" d="M205.123,260.401c0,0,2.641,5.279,3.416,14.44c1.263,14.925,3.133,39.587,4.229,66.101
										c0.907,21.919-4.313,90.079-4.313,90.079h-8.865c0,0-10.845-45.276-8.609-76.743
										c-10.815-26.627-14.324-47.316-14.324-47.316l3.161-58.523L205.123,260.401z"/>
								</g>
							</g>
							<g>
								<g>
									<g>
										<g>
											<path style="fill:#251225;" d="M186.407,256.738l-16.588-1.206c0,0-3.593,2.933-6.426,7.888
												c-4.26,7.451-9.735,20.278-4.713,37.46c4.503,15.407,2.92,34.912,5.025,55.45c-2.723,34.395,7.51,76.158,7.51,76.158
												l6.992,1.374l6.425-76.436c0,0,5.615-41.903,5.615-65.616C190.247,268.098,186.407,256.738,186.407,256.738z"/>
										</g>
									</g>
								</g>
							</g>
							<g>
								<path style="fill:#464646;" d="M175.353,430.048c-1.168-0.065-2.337-0.115-3.507-0.143c-2.055-0.05-3.913,1.088-4.973,2.85
									c-0.3,0.499-0.666,0.995-1.127,1.467c-4.996,5.104-4.764,7.331-4.764,7.331h20.417c0.025-3.308,0.092-5.612,0.006-7.621
									c-1.274-0.583-2.423-1.447-3.294-2.515C177.436,430.589,176.42,430.107,175.353,430.048z"/>
								<rect x="160.987" y="441.552" style="fill:#464646;" width="20.456" height="3.077"/>
							</g>
							<g>
								<path style="fill:#464646;" d="M198.862,435.232c0.08-0.96-0.115-2.157,0.042-3.061c0.157-0.905,0.251-1.087,1.24-1.258
									c0.988-0.171,2.599,0.065,3.679-0.072c1.68-0.211,2.596-0.85,3.72-2.073c0.369-0.401,0.197-0.841,0.731-1.288
									c1.875-1.57,3.667-2.549,6.178-1.326c2.512,1.223,4.215,3.057,7.191,3.907s6.24,1.788,7.462,5.152
									C219.05,435.233,208.946,435.252,198.862,435.232z"/>
								<path style="fill:#464646;" d="M229.125,438.16c-10.09,0.009-20.181,0.019-30.271,0.029
									c-0.001-0.984-0.002-1.968-0.003-2.953c10.09-0.01,20.181-0.019,30.271-0.029
									C229.123,436.191,229.124,437.176,229.125,438.16z"/>
							</g>
						</g>
						<g>
							<path style="fill:#47334D;" d="M199.128,198.704c-7.203-0.591-11.003-1.448-18.986-0.09
								c-3.268,0.556-5.236,0.175-7.265,0.243c-4.081,0.855-5.733,1.866-9.522,3.766c-2.892,3.404,1.315,19.834,1.315,19.834
								l-2.994,45.493c0,0,13.863,3.801,28.813,3.572s18.747-5.613,18.747-5.613l-5.741-15.176l3.629-12.625l2.776-11.432
								l-5.403-24.455L199.128,198.704z"/>
							<path style="fill:none;stroke:#332437;stroke-width:1.0721;stroke-miterlimit:10;" d="M193.816,219.183
								c0,0,3.242,5.705,3.78,11.22c0.421,4.322-1.808,9.864-1.871,15.195c-0.105,8.975,0.655,18.472,0.876,25.493"/>
							<rect x="197.596" y="216.369" style="fill:#FFFFFF;" width="7.568" height="2.814"/>
							<polygon style="fill:#FFFFFF;" points="180.295,201.715 194.218,220.957 194.582,201.715 							"/>
							<path style="fill:#332437;" d="M176.654,270.727c0.058-0.185-0.905-51.059-0.905-51.059s-1.527-14.464-13.199-8.788
								c0.571,5.52,2.12,11.576,2.12,11.576l-2.994,45.493C161.676,267.949,167.978,269.672,176.654,270.727z"/>
						</g>
					</g>
					<g>
						<path style="fill:#FDB9A2;" d="M241.064,267.503c-0.524-0.512-1.154-0.891-1.851-1.117l-4.495-1.462
							c-0.883-0.287-1.825-0.341-2.735-0.157l-8.395,1.698c0,0-33.485-15.409-37.751-18.064c-2.901,3.738-5.988,7.451-8.671,11.369
							c0.361,0.6,0.695,1.147,0.989,1.625c0.929,1.507,2.41,2.574,4.131,2.987l39.984,9.586c1.363,3.374,7.166,2.05,8.678,1.801
							s2.491,2.421,3.718,2.151c1.548-0.342,5.191-1.205,6.369-1.794c0.341-0.17,0.449-0.602,0.228-0.912l-4.345-6.078l2.892,0.995
							l3.168,2.281c0.408,0.294,0.932,0.374,1.409,0.217c0,0,0.795-0.292,0.847-0.68
							C245.274,271.659,242.478,268.885,241.064,267.503z"/>
						<path style="fill:#624363;" d="M222.559,264.982c-6.913-3.192-33.118-15.279-36.084-17.272
							c-1.287-5.004-11.164-34.411-11.164-34.411c-3.675-10.785-6.931-13.104-6.931-13.104s-6.025,1.292-7.271,3.313
							c-1.612,2.615-2.047,4.852-2.056,8.723c-0.022,8.694,3.054,20.741,6.511,29.128c3.658,8.873,6.609,16.573,9.122,20.649
							c0.929,1.507,1.365,2.317,3.086,2.729l42.337,13.08C220.464,275.18,222.153,267.617,222.559,264.982z"/>
						<path style="fill:#332437;" d="M182.089,256.744l-0.061-0.137c-0.901,0.16-16.759-25.471-22.571-38.291
							c0.937,7.684,3.401,16.482,6.106,23.044c3.658,8.873,6.609,16.573,9.122,20.649c0.929,1.507,1.365,2.317,3.086,2.729
							l42.337,13.08c0.092-0.685,0.502-2.884,0.502-2.884L182.089,256.744z"/>
					</g>
					<g>
						<polygon style="fill:#FDB9A2;" points="179.13,178.077 180.295,201.715 190.088,207.77 194.582,201.715 193.244,185.803 
													"/>
						<path style="fill:#E6A893;" d="M191.417,191.055c0.731-0.348,1.455-0.707,2.179-1.066l-0.352-4.185l-14.114-7.725
							l0.929,18.846C184.048,195.246,188.082,192.644,191.417,191.055z"/>
						<circle style="fill:#251225;" cx="186.794" cy="165.437" r="15.56"/>
						<path style="fill:#FDB9A2;" d="M197.398,157.383c1.975-0.166,3.71,1.3,3.876,3.275l1.842,21.913l0,0
							c0.362,4.31-2.838,8.098-7.148,8.46l-4.213,0.354c-1.206,0.101-2.399-0.307-3.29-1.125l-7.355-4.456
							c-1.057-0.699-6.141-19.768-6.141-19.768c-0.301-3.582,5.116-7.198,8.699-7.499L197.398,157.383z"/>
						<g>
							<g>
								<path style="fill:#340606;" d="M191.831,172.275c-0.272-0.062-0.62-0.096-0.936-0.097c-0.324-0.001-0.649,0.031-0.966,0.096
									c-0.639,0.12-1.238,0.403-1.756,0.803l-0.007,0.006c-0.125,0.097-0.305,0.074-0.402-0.051
									c-0.091-0.118-0.075-0.286,0.032-0.385c0.549-0.506,1.224-0.896,1.952-1.097c0.362-0.105,0.735-0.174,1.111-0.204
									c0.383-0.027,0.74-0.03,1.159,0.028c0.253,0.035,0.429,0.268,0.394,0.521c-0.035,0.253-0.268,0.429-0.521,0.394
									c-0.013-0.002-0.026-0.004-0.038-0.007L191.831,172.275z"/>
							</g>
							<g>
								<path style="fill:#340606;" d="M197.349,170.805c0.3-0.154,0.556-0.231,0.846-0.298c0.283-0.061,0.575-0.088,0.866-0.075
									c0.584,0.016,1.152,0.242,1.592,0.582c0.095,0.073,0.113,0.21,0.04,0.305c-0.066,0.085-0.183,0.108-0.275,0.059
									l-0.007-0.004c-0.42-0.225-0.883-0.324-1.334-0.264c-0.225,0.026-0.446,0.082-0.658,0.165
									c-0.204,0.08-0.43,0.199-0.575,0.308l-0.005,0.004c-0.204,0.154-0.495,0.113-0.649-0.091
									c-0.154-0.204-0.113-0.495,0.091-0.648C197.302,170.832,197.326,170.817,197.349,170.805z"/>
							</g>
						</g>
						<path style="fill:#251225;" d="M189.616,174.527c0.05,0.595,0.439,1.047,0.87,1.011c0.43-0.036,0.739-0.547,0.689-1.142
							c-0.05-0.595-0.439-1.047-0.87-1.011C189.874,173.421,189.566,173.933,189.616,174.527z"/>
						<path style="fill:#251225;" d="M198.325,173.248c0.05,0.595,0.439,1.047,0.87,1.011c0.43-0.036,0.739-0.548,0.689-1.142
							c-0.05-0.595-0.439-1.047-0.87-1.011C198.583,172.142,198.275,172.653,198.325,173.248z"/>
						
							<path style="fill:none;stroke:#FFFFFF;stroke-width:0.814;stroke-linecap:round;stroke-linejoin:round;stroke-miterlimit:10;" d="
							M185.361,182.044c0,0-4.406-10.874-9.061-10.19c-6.603,0.969,0.747,11.233,10.556,17.431"/>
						<path style="fill:#FFFFFF;" d="M203.73,177.133c0,0-8.434-1.924-19.049,4.033l0.425,5.061c0.264,3.136,3.019,5.464,6.155,5.2
							l7.274-0.611c2.958-0.249,5.23-2.727,5.22-5.696L203.73,177.133z"/>
						<path style="fill:#FDB9A2;" d="M174.469,177.133c1.019,2.144,2.999,3.334,4.423,2.657c1.424-0.677,1.752-2.964,0.733-5.108
							c-1.019-2.144-3-3.334-4.423-2.657C173.777,172.702,173.449,174.989,174.469,177.133z"/>
						<path style="fill:#251225;" d="M178.072,174.462c-3.751-3.481-5.855-16.687,1.261-20.301
							c8.377-4.255,14.528-2.203,14.528-2.203s10.824-1.617,8.087,16.701c0,0-3.612-0.357-5.048-7.163
							C196.899,161.496,191.925,172.309,178.072,174.462z"/>
					</g>
					<g>
						<polygon style="fill:#FFFFFF;" points="179.983,195.371 172.877,198.856 182.322,213.947 185.789,205.112 						"/>
						<polygon style="fill:#FFFFFF;" points="192.397,204.659 199.818,211.122 199.128,198.704 194.049,195.371 						"/>
					</g>
				</g>
				<g>
					<g>
						<rect x="42.493" y="445.575" style="fill:#612911;" width="49.324" height="8.379"/>
						<rect x="78.145" y="445.575" style="fill:#943F1A;" width="279.072" height="8.379"/>
					</g>
					<polygon style="fill:#C76C3F;" points="366.805,445.575 76.321,445.575 46.817,274.398 387.989,274.398 					"/>
					<polygon style="fill:#943F1A;" points="380.054,338.863 97.064,338.863 97.064,331.642 380.904,331.642 					"/>
					<polygon style="fill:#943F1A;" points="118.328,445.575 76.321,445.575 46.817,274.398 96.962,274.398 					"/>
					<polygon style="fill:#943F1A;" points="78.145,445.575 36.138,445.575 15.49,338.863 65.634,338.863 					"/>
					<polygon style="fill:#C76C3F;" points="118.328,445.575 76.321,445.575 55.673,338.863 105.817,338.863 					"/>
					
						<text transform="matrix(1 0 0 1 104.0515 385.9146)" style="fill:#612911; font-family:'PublicSans-ExtraBold'; font-size:31.7405px;">RECEPTION</text>
					<polygon style="fill:#943F1A;" points="370.91,412.401 56.288,412.401 56.288,409.164 371.311,409.164 					"/>
					<polygon style="fill:#D78B57;" points="88.914,305.057 433.976,305.057 439.26,274.398 85.087,274.398 					"/>
					<polygon style="fill:#AB6E45;" points="36.1,305.057 88.975,305.057 85.087,274.398 32.274,274.398 					"/>
				</g>
				<g>
					<rect x="254.212" y="271.495" style="fill:#47334D;" width="60.004" height="3.477"/>
					<g>
						<path style="fill:#47334D;" d="M344.037,263.233h-71.9c-2.856,0-5.172-2.315-5.172-5.172v-54.301
							c0-2.856,2.315-5.172,5.172-5.172h71.9c2.856,0,5.172,2.315,5.172,5.172v54.301
							C349.208,260.918,346.893,263.233,344.037,263.233z"/>
						<path style="fill:#47334D;" d="M349.461,263.401h-71.9c-2.856,0-5.172-2.315-5.172-5.172v-54.301
							c0-2.856,2.315-5.172,5.172-5.172h71.9c2.856,0,5.172,2.315,5.172,5.172v54.301
							C354.633,261.086,352.317,263.401,349.461,263.401z"/>
					</g>
					<g>
						<rect x="312.125" y="259.092" style="fill:#C28952;" width="10.842" height="13.109"/>
						<rect x="314.216" y="236.245" style="fill:#47334D;" width="10.841" height="35.956"/>
						<rect x="302.116" y="272.201" style="fill:#47334D;" width="35.042" height="2.771"/>
						<polygon style="fill:#47334D;" points="325.057,236.245 320.244,226.557 309.402,226.557 314.216,236.245 						"/>
					</g>
				</g>
				<g>
					<polygon style="fill:#3A616B;" points="194.436,258.083 135.357,258.083 130.512,274.494 189.591,274.494 					"/>
					<polygon style="fill:#4C808D;" points="135.518,258.083 194.598,258.083 199.442,274.494 140.363,274.494 					"/>
					<g>
						<path style="fill:#FFFFFC;" d="M151.88,270.332h-1.312l-2.044-3.556l-0.037,3.556h-1.293l-3.819-6.54h1.701l2.004,3.509
							l-0.013-3.509h1.23l2.004,3.509l-0.013-3.509h1.701L151.88,270.332z"/>
						<path style="fill:#FFFFFC;" d="M152.761,263.792h4.831l0.402,1.456h-3.049l0.307,1.086h2.551l0.401,1.42h-2.56l0.314,1.113
							h3.076l0.414,1.466h-4.841L152.761,263.792z"/>
						<path style="fill:#FFFFFC;" d="M160.498,263.792l1.437,5.093h2.615l0.408,1.447h-4.378l-1.846-6.54H160.498z"/>
						<path style="fill:#FFFFFC;" d="M170.19,266.098h-1.837c-0.27-0.606-0.739-0.985-1.345-0.985c-0.661,0-1.013,0.452-0.607,1.89
							c0.412,1.456,1.046,2.008,1.707,2.008c0.606,0,0.822-0.516,0.751-1.122h1.836c0.202,1.357-0.036,2.532-2.126,2.532
							c-1.891,0-3.542-1.456-4.103-3.446c-0.562-1.991,0.297-3.275,2.206-3.275C168.229,263.701,169.647,264.687,170.19,266.098z"/>
						<path style="fill:#FFFFFC;" d="M171.237,267.075c-0.576-2.044,0.315-3.374,2.224-3.374c1.9,0,3.533,1.331,4.11,3.374
							c0.572,2.026-0.285,3.347-2.213,3.347C173.412,270.422,171.812,269.111,171.237,267.075z M175.669,267.102
							c-0.411-1.457-1.086-1.99-1.81-1.99c-0.724,0-1.107,0.533-0.696,1.99c0.398,1.411,1.073,1.909,1.797,1.909
							C175.684,269.011,176.067,268.514,175.669,267.102z"/>
						<path style="fill:#FFFFFC;" d="M177.687,263.792h2.615l2.184,3.99l-0.058-3.99h2.606l1.846,6.54h-1.765l-1.338-4.74
							l0.063,4.74h-1.267l-2.613-4.74l1.338,4.74h-1.764L177.687,263.792z"/>
						<path style="fill:#FFFFFC;" d="M186.304,263.792h4.831l0.402,1.456h-3.049l0.307,1.086h2.551l0.401,1.42h-2.56l0.314,1.113
							h3.076l0.414,1.466h-4.841L186.304,263.792z"/>
					</g>
				</g>
				<g>
					<path style="fill:#47334D;" d="M104.015,235.759h1.594c0-0.929-0.376-1.462-0.691-1.748c-0.684-0.616-1.583-0.546-1.679-0.537
						l-5.21-0.004v1.594h5.29c0.146-0.013,0.398,0.005,0.534,0.134C103.987,235.324,104.015,235.573,104.015,235.759z"/>
					
						<rect x="94.263" y="233.196" transform="matrix(-1 -1.224647e-16 1.224647e-16 -1 192.7637 471.5199)" style="fill:#47334D;" width="4.239" height="5.128"/>
					<path style="fill:#D6F4FF;" d="M87.087,274.398h18.58v-25.119c0-2.964-2.403-5.367-5.368-5.367h-7.845
						c-2.964,0-5.368,2.403-5.368,5.367V274.398z"/>
					
						<rect x="95.779" y="243.525" transform="matrix(-1 -1.224647e-16 1.224647e-16 -1 192.7636 504.128)" style="fill:#FFC215;" width="1.206" height="17.077"/>
					<rect x="89.258" y="256.185" style="fill:#FFC215;" width="14.237" height="16.041"/>
					
						<rect x="92.908" y="238.324" transform="matrix(-1 -1.224647e-16 1.224647e-16 -1 192.7538 482.2353)" style="fill:#47334D;" width="6.937" height="5.588"/>
					<path style="fill:#B6CFD9;" d="M102.392,274.398H87.087v-25.119c0-1.42,0.561-2.701,1.461-3.661
						C91.733,252.458,101.18,271.554,102.392,274.398z"/>
				</g>
				<g>
					<path style="opacity:0.47;fill:#9FD1EF;" d="M405.431,261.796H247.096c-4.854,0-8.788-3.934-8.788-8.788V152.514
						c0-4.854,3.934-8.788,8.788-8.788h158.335c4.854,0,8.788,3.934,8.788,8.788v100.494
						C414.219,257.861,410.284,261.796,405.431,261.796z"/>
					
						<linearGradient id="SVGID_00000016058658822443268470000011804078256436083127_" gradientUnits="userSpaceOnUse" x1="422.0705" y1="63.4547" x2="254.1059" y2="227.5283">
						<stop  offset="0" style="stop-color:#FFFFFF"/>
						<stop  offset="1" style="stop-color:#FFFFFF;stop-opacity:0"/>
					</linearGradient>
					<path style="opacity:0.51;fill:url(#SVGID_00000016058658822443268470000011804078256436083127_);" d="M242.198,260.304
						c14.72-14.72,29.44-29.44,44.16-44.16l72.419-72.419H318.25l-79.943,79.943v29.339
						C238.308,256.048,239.852,258.726,242.198,260.304z"/>
					
						<linearGradient id="SVGID_00000061434158396337796850000001191791899819506840_" gradientUnits="userSpaceOnUse" x1="458.3263" y1="100.5702" x2="290.3619" y2="264.6435">
						<stop  offset="0" style="stop-color:#FFFFFF"/>
						<stop  offset="1" style="stop-color:#FFFFFF;stop-opacity:0"/>
					</linearGradient>
					<path style="opacity:0.51;fill:url(#SVGID_00000061434158396337796850000001191791899819506840_);" d="M414.219,161.273v-8.759
						c0-4.854-3.935-8.788-8.788-8.788h-11.703l-118.07,118.07h38.038L414.219,161.273z"/>
					<path style="fill:none;stroke:#D78B57;stroke-width:2.0663;stroke-miterlimit:10;" d="M405.431,261.796H247.096
						c-4.854,0-8.788-3.934-8.788-8.788V152.514c0-4.854,3.934-8.788,8.788-8.788h158.335c4.854,0,8.788,3.934,8.788,8.788v100.494
						C414.219,257.861,410.284,261.796,405.431,261.796z"/>
					
						<line style="fill:none;stroke:#D78B57;stroke-width:2.0663;stroke-miterlimit:10;" x1="238.308" y1="240.618" x2="238.308" y2="284.167"/>
					
						<line style="fill:none;stroke:#D78B57;stroke-width:2.0663;stroke-miterlimit:10;" x1="414.219" y1="240.618" x2="414.219" y2="284.167"/>
				</g>
			</g>
			<g>
				<g>
					<g>
						<g>
							
								<rect x="336.098" y="334.364" transform="matrix(0.9999 -0.0117 0.0117 0.9999 -4.008 3.9581)" style="fill:#332437;" width="1.155" height="21.13"/>
							
								<rect x="355.319" y="334.142" transform="matrix(0.9999 -0.0118 0.0118 0.9999 -4.0332 4.2135)" style="fill:#332437;" width="1.155" height="21.13"/>
							<path style="fill:#47334D;" d="M356.097,335.551l-19.833,0.229c-0.761,0.009-1.385-0.601-1.394-1.362l-0.039-3.368
								c-0.009-0.761,0.601-1.385,1.362-1.394l19.834-0.23c0.761-0.009,1.385,0.601,1.394,1.362l0.039,3.368
								C357.468,334.918,356.858,335.542,356.097,335.551z"/>
						</g>
						<path style="fill:#332437;" d="M338.28,354.952l-2.977,0.034c-0.294,0.003-0.535-0.232-0.539-0.526l-0.015-1.271
							c-0.003-0.294,0.232-0.535,0.526-0.539l2.977-0.034c0.294-0.003,0.536,0.232,0.539,0.526l0.015,1.271
							C338.81,354.707,338.574,354.948,338.28,354.952z"/>
						<path style="fill:#332437;" d="M357.501,354.729l-2.977,0.034c-0.294,0.004-0.535-0.232-0.539-0.526l-0.015-1.271
							c-0.004-0.294,0.232-0.535,0.526-0.539l2.977-0.034c0.294-0.004,0.535,0.232,0.539,0.526l0.015,1.271
							C358.031,354.484,357.795,354.726,357.501,354.729z"/>
						<path style="fill:#332437;" d="M320.644,467.994l-2.981,0.039c-0.798,0.01-1.453-0.818-1.463-1.85l-0.069-6.988
							c-0.01-1.033,0.628-1.878,1.426-1.888l2.98-0.039c0.798-0.01,1.453,0.818,1.463,1.85l0.069,6.988
							C322.08,467.139,321.441,467.984,320.644,467.994z"/>
						<ellipse style="fill:#332437;" cx="319.095" cy="466.824" rx="3.091" ry="4.191"/>
						<path style="fill:#47334D;" d="M319.281,467.565l-2.981,0.039c-0.798,0.01-1.452-0.784-1.462-1.775l-0.067-6.708
							c-0.01-0.991,0.629-1.803,1.426-1.813l2.98-0.039c0.798-0.01,1.452,0.785,1.462,1.775l0.067,6.708
							C320.717,466.742,320.078,467.554,319.281,467.565z"/>
						<path style="fill:#47334D;" d="M320.827,466.824c0,2.315-1.384,4.191-3.091,4.191c-1.707,0-3.091-1.876-3.091-4.191
							s1.384-4.191,3.091-4.191C319.443,462.633,320.827,464.509,320.827,466.824z"/>
						<path style="fill:#332437;" d="M374.238,467.994l-2.981,0.039c-0.798,0.01-1.453-0.818-1.463-1.85l-0.069-6.988
							c-0.01-1.033,0.628-1.878,1.426-1.888l2.98-0.039c0.798-0.01,1.453,0.818,1.463,1.85l0.069,6.988
							C375.675,467.139,375.036,467.984,374.238,467.994z"/>
						<ellipse style="fill:#332437;" cx="372.69" cy="466.824" rx="3.091" ry="4.191"/>
						<path style="fill:#47334D;" d="M372.876,467.565l-2.981,0.039c-0.798,0.01-1.452-0.784-1.462-1.775l-0.067-6.708
							c-0.01-0.991,0.629-1.803,1.426-1.813l2.98-0.039c0.798-0.01,1.453,0.785,1.462,1.775l0.067,6.708
							C374.312,466.742,373.673,467.554,372.876,467.565z"/>
						<path style="fill:#47334D;" d="M374.421,466.824c0,2.315-1.384,4.191-3.091,4.191c-1.707,0-3.091-1.876-3.091-4.191
							s1.384-4.191,3.091-4.191C373.038,462.633,374.421,464.509,374.421,466.824z"/>
						<path style="fill:#3D6F78;" d="M371.023,462.633l-57.817,0.668c-5.494,0.064-9.999-4.339-10.062-9.832l-1.027-88.846
							c-0.064-5.494,4.339-9.999,9.832-10.062l57.817-0.668c5.494-0.064,9.999,4.339,10.062,9.832l1.027,88.846
							C380.918,458.065,376.517,462.57,371.023,462.633z"/>
						<path style="fill:#69A6AB;" d="M376.56,462.633l-57.817,0.668c-5.494,0.064-9.999-4.339-10.062-9.832l-1.027-88.846
							c-0.064-5.494,4.339-9.999,9.832-10.062l57.817-0.668c5.494-0.064,9.999,4.339,10.062,9.832l1.027,88.846
							C386.456,458.065,382.054,462.57,376.56,462.633z"/>
						<path style="opacity:0.31;fill:#AB6E45;" d="M312.282,356.113c-2.812,1.786-4.669,4.934-4.628,8.509l1.027,88.846
							c0.064,5.494,4.569,9.896,10.062,9.832l33.26-0.385L312.282,356.113z"/>
						<g>
							<line style="fill:none;stroke:#3A616B;stroke-miterlimit:10;" x1="322.967" y1="365.983" x2="322.967" y2="450.345"/>
							<line style="fill:none;stroke:#3A616B;stroke-miterlimit:10;" x1="332.971" y1="365.983" x2="332.971" y2="450.345"/>
							<line style="fill:none;stroke:#3A616B;stroke-miterlimit:10;" x1="342.975" y1="365.983" x2="342.975" y2="450.345"/>
							<line style="fill:none;stroke:#3A616B;stroke-miterlimit:10;" x1="352.979" y1="365.983" x2="352.979" y2="450.345"/>
							<line style="fill:none;stroke:#3A616B;stroke-miterlimit:10;" x1="362.983" y1="365.983" x2="362.983" y2="450.345"/>
							<line style="fill:none;stroke:#3A616B;stroke-miterlimit:10;" x1="372.988" y1="365.983" x2="372.988" y2="450.345"/>
						</g>
					</g>
				</g>
			</g>
			<g>
				<g>
					<g>
						<g>
							<path style="fill:#FDB9A2;" d="M411.277,244.723l-2.887-9.336c-0.097-0.314-0.27-0.6-0.502-0.833l-6.61-6.603
								c-0.155-0.155-0.284-0.334-0.382-0.531l-5.728-11.533c-0.646-1.301-2.411-1.518-3.35-0.41
								c-1.894,2.237-4.281,4.956-4.521,5.318c-1.228,1.85,0.101,8.11,2.631,14.854c0.156,0.415,0.2,0.861,0.491,1.196
								l12.702,12.381c0.624,0.719,1.664,0.904,2.498,0.446l4.7-2.581C411.16,246.629,411.56,245.639,411.277,244.723z"/>
							
								<path style="fill:none;stroke:#DBA382;stroke-width:0.9222;stroke-linecap:round;stroke-linejoin:round;stroke-miterlimit:10;" d="
								M399.831,231.762c0,0-0.503,6.164,4.892,7.687"/>
							<polygon style="fill:#FDB9A2;" points="410.117,240.972 408.956,231.497 404.766,227.113 401.425,232.818 							"/>
							<path style="fill:#FDB9A2;" d="M408.956,231.497l-2.429-10.191c-0.11-0.463-0.413-0.857-0.833-1.083l0,0
								c-1.236-0.665-2.691,0.401-2.43,1.78l1.1,5.796l0.534,3.768L408.956,231.497z"/>
							<g>
								<defs>
									<path id="SVGID_00000128477946792494208960000007832173568731828897_" d="M411.277,244.723l-2.887-9.336
										c-0.097-0.314-0.27-0.6-0.502-0.833l-6.61-6.603c-0.155-0.155-0.284-0.334-0.382-0.531l-5.728-11.533
										c-0.646-1.301-2.411-1.518-3.35-0.41c-1.894,2.237-4.281,4.956-4.521,5.318c-1.228,1.85,0.101,8.11,2.631,14.854
										c0.156,0.415,0.2,0.861,0.491,1.196l12.702,12.381c0.624,0.719,1.664,0.904,2.498,0.446l4.7-2.581
										C411.16,246.629,411.56,245.639,411.277,244.723z"/>
								</defs>
								<clipPath id="SVGID_00000004532289777852159360000012559370243854311614_">
									<use xlink:href="#SVGID_00000128477946792494208960000007832173568731828897_"  style="overflow:visible;"/>
								</clipPath>
								<g style="clip-path:url(#SVGID_00000004532289777852159360000012559370243854311614_);">
									<g>
										
											<line style="fill:none;stroke:#DBA382;stroke-width:0.9222;stroke-linecap:round;stroke-linejoin:round;stroke-miterlimit:10;" x1="396.763" y1="227.334" x2="392.22" y2="215.164"/>
										
											<line style="fill:none;stroke:#DBA382;stroke-width:0.9222;stroke-linecap:round;stroke-linejoin:round;stroke-miterlimit:10;" x1="394.491" y1="229.959" x2="389.948" y2="217.789"/>
										
											<line style="fill:none;stroke:#DBA382;stroke-width:0.9222;stroke-linecap:round;stroke-linejoin:round;stroke-miterlimit:10;" x1="392.484" y1="232.191" x2="387.941" y2="220.021"/>
									</g>
								</g>
							</g>
						</g>
						<path style="fill:#4C808D;" d="M442.108,205.442l-16.569,46.133l-15.703-11.756l-8.412,7.601c0,0,24.813,32.966,32.082,32.966
							c7.269,0,24.286-45.157,24.286-45.157L442.108,205.442z"/>
						<path style="fill:#3A616B;" d="M436.808,278.259c9.67-12.039,20.985-43.031,20.985-43.031l-15.684-29.787l-2.084,5.803
							C440.024,211.244,436.119,276.195,436.808,278.259z"/>
					</g>
					<g>
						<path style="fill:#FFBE98;" d="M454.759,437.012c-0.374,5.005-0.747,10.01-1.121,15.014c-3.173-0.036-6.345-0.073-9.518-0.109
							c0.1-5.226,0.2-10.451,0.301-15.677C447.866,436.498,451.312,436.755,454.759,437.012z"/>
						<path style="fill:#332437;" d="M492.774,282.049c-6.137,11.769-25.288,88.587-25.288,88.587s-8.721,61.624-12.106,82.276
							c-4.223,0.09-8.911-0.803-13.191-0.824c-3.028-25.191-0.366-90.03-0.081-96.029c0.619-12.999,5.816-68.069,5.816-68.069
							S480.513,281.218,492.774,282.049z"/>
						<path style="fill:#251225;" d="M455.346,456.351c-0.027-1.031,0.093-2.507,0.034-3.439c-0.058-0.932-0.45-1.263-1.294-1.352
							c-1.236-0.13-2.944-0.004-4.156-0.093c-1.885-0.138-2.936-0.894-3.989-2.335c-0.346-0.473-0.283-0.87-0.702-1.388
							c-1.474-1.819-4.312-3.129-6.821-1.706c-2.509,1.423-4.486,3.469-7.772,4.262c-3.285,0.793-7.741,1.615-8.482,5.554
							C433.212,456.027,444.282,456.202,455.346,456.351z"/>
						<path style="fill:#C28952;" d="M422.108,459.096c11.062,0.167,22.124,0.334,33.186,0.501c0.016-1.079,0.033-2.158,0.049-3.237
							c-11.062-0.167-22.124-0.334-33.186-0.501C422.141,456.938,422.124,458.017,422.108,459.096z"/>
					</g>
					<g>
						<path style="fill:#FFBE98;" d="M502.2,439.202c0.218,5.015,0.429,10.03,0.64,15.045c-3.155,0.334-6.311,0.667-9.466,1.001
							c-0.51-5.204-1.025-10.408-1.543-15.611C495.288,439.491,498.744,439.346,502.2,439.202z"/>
						<path style="fill:#332437;" d="M497.214,370.938l1.228-54.57l-0.688-24.793l-42.199-6.625l6.31,37.149l7.409,50.2
							c0,0,20.35,61.206,22.823,82.621c4.41,1.294,7.962,0.487,12.047,0.395C505.156,428.337,497.214,370.938,497.214,370.938z"/>
						<path style="fill:#47334D;" d="M487.494,360.062c0,0,7.562,16.38,11.47,24.513c-1.005-8.247-1.75-13.637-1.75-13.637
							l1.228-54.57l-0.688-24.793l-42.199-6.625l0.001,0.007C455.715,285.395,487.494,360.062,487.494,360.062z"/>
						<g>
							<path style="fill:#251225;" d="M497.1,448.276c1.227-0.069,2.455-0.121,3.684-0.151c2.16-0.053,4.111,1.143,5.224,2.994
								c0.315,0.524,0.699,1.046,1.184,1.541c5.249,5.362,5.005,7.702,5.005,7.702h-21.45c-0.026-3.475-0.097-5.895-0.006-8.006
								c1.338-0.613,2.545-1.52,3.461-2.642C494.912,448.844,495.98,448.338,497.1,448.276z"/>
							<polyline style="fill:#C28952;" points="512.194,463.595 512.194,460.363 490.703,460.363 490.703,463.595 							"/>
						</g>
					</g>
					<g>
						<g>
							<polygon style="fill:#4C808D;" points="478.049,197.148 466.722,203.391 461.318,198.25 442.108,205.442 446.97,265.758 
								448.078,291.574 497.753,291.574 497.753,205.442 							"/>
						</g>
					</g>
					<g>
						<g>
							<path style="fill:#3A616B;" d="M485.05,220.921c1.943,11.409,8.545,34.137,12.703,44.9V216.35
								C494.365,218.554,488.241,219.074,485.05,220.921z"/>
						</g>
					</g>
					<g>
						<path style="fill:#FFFFFF;" d="M478.856,195.527c0,0-5.757-2.667-5.996-2.744c-0.357-0.114-11.932,2.144-11.932,2.144
							l-5.258,5.437l-3.577,12.755l9.578-4.391l6.425,9.906l16.953-18.538L478.856,195.527z"/>
						<g>
							<polygon style="fill:#FDB9A2;" points="477.922,180.572 478.064,199.176 462.289,207.282 461.318,200.541 462.297,186.034 
															"/>
							<path style="fill:#E6A893;" d="M477.954,184.712l-0.032-4.14l-15.625,5.462l-0.979,14.507l0.109,0.756
								C466.933,195.772,472.556,190.335,477.954,184.712z"/>
							<path style="fill:#251225;" d="M461.162,178.595c0,0-8.46-3.156-8.917-11.059c-0.403-6.971,5.097-10.18,5.097-10.18
								l5.699,1.398L461.162,178.595z"/>
							<path style="fill:#FDB9A2;" d="M458.919,156.762c-1.983-0.113-3.683,1.402-3.796,3.385l-1.26,22.003l0,0
								c-0.248,4.328,3.06,8.037,7.388,8.285l4.23,0.242c1.211,0.069,4.482-0.657,6.985-2.734c4.38-3.634,5.456-7.372,5.456-7.372
								l0.924-16.135c0.206-3.597-2.543-6.68-6.14-6.886L458.919,156.762z"/>
							<path style="fill:#251225;" d="M446.493,157.356c-1.494-4.976,0.623-9.737,8.444-9.081c4.841,0.406,11.308,1.808,14.95,2.62
								c2.731,0.609,7.647,0.078,9.211,5.627c2.346-1.042,4.235,4.075,4.41,5.665c0.808,7.632-2.714,10.841-2.714,10.841
								s-1.947-0.628-3.187-0.16c-0.477,1.325-0.597,4.107-0.597,4.107l-1.702-0.053c-1.882-1.102-2.888-4.124-2.657-6.671
								c0,0-5.297-1.07-2.042-6.902C462.218,163.881,449.55,167.536,446.493,157.356z"/>
							<path style="fill:#251225;" d="M467.174,173.731c-0.034,0.597-0.412,1.061-0.844,1.036c-0.432-0.025-0.755-0.529-0.721-1.126
								c0.034-0.597,0.412-1.061,0.844-1.036C466.886,172.63,467.208,173.134,467.174,173.731z"/>
							<path style="fill:#251225;" d="M458.415,172.681c-0.034,0.597-0.412,1.061-0.845,1.036c-0.432-0.025-0.755-0.529-0.721-1.126
								c0.034-0.597,0.412-1.061,0.845-1.036C458.126,171.58,458.449,172.084,458.415,172.681z"/>
							
								<path style="fill:none;stroke:#FFFFFF;stroke-width:0.9222;stroke-linecap:round;stroke-linejoin:round;stroke-miterlimit:10;" d="
								M471.995,179.836c0,0,1.157-4.303,4.399-6.718c3.261-2.43,6.44,0.997,4.982,4.794c-1.126,2.932-4.178,6.852-12.629,12.084"/>
							<path style="fill:#FDB9A2;" d="M481.19,177.504c-0.964,2.176-2.916,3.42-4.361,2.78c-1.444-0.64-1.834-2.922-0.87-5.098
								c0.964-2.175,2.916-3.42,4.361-2.78C481.764,173.046,482.154,175.329,481.19,177.504z"/>
							<g>
								<path style="fill:#3A1B18;" d="M464.371,169.747c0.422-0.337,0.9-0.497,1.402-0.557c0.501-0.066,1.021-0.009,1.509,0.15
									c0.976,0.315,1.824,1.049,2.145,1.993c0.056,0.163-0.032,0.341-0.195,0.396c-0.073,0.025-0.149,0.021-0.216-0.005
									l-0.026-0.01c-0.434-0.172-0.78-0.368-1.138-0.516c-0.35-0.158-0.691-0.288-1.039-0.398
									c-0.692-0.235-1.426-0.368-2.291-0.573l-0.046-0.011c-0.144-0.034-0.233-0.178-0.199-0.322
									C464.292,169.833,464.326,169.783,464.371,169.747z"/>
							</g>
							<g>
								<path style="fill:#3A1B18;" d="M459.691,169.769c-0.711,0.063-1.212,0.047-1.685,0.098
									c-0.237,0.014-0.471,0.033-0.737,0.061c-0.27,0.02-0.557,0.072-0.949,0.078l-0.028,0.001
									c-0.141,0.002-0.257-0.11-0.259-0.251c-0.001-0.028,0.004-0.056,0.012-0.081c0.123-0.39,0.374-0.72,0.711-0.944
									c0.327-0.245,0.742-0.366,1.153-0.398c0.414-0.018,0.829,0.053,1.184,0.24c0.357,0.182,0.66,0.439,0.855,0.831
									c0.061,0.123,0.011,0.273-0.112,0.335c-0.028,0.014-0.058,0.022-0.088,0.025L459.691,169.769z"/>
							</g>
							<path style="fill:#FFFFFF;" d="M453.667,176.745c0,0,8.399-2.153,19.193,3.531l-0.291,5.082
								c-0.18,3.149-2.879,5.555-6.027,5.375l-7.305-0.418c-2.97-0.17-5.313-2.592-5.383-5.567L453.667,176.745z"/>
						</g>
					</g>
					<g>
						<g>
							<path style="fill:#FDB9A2;" d="M484.964,284.915c-1.075,0.462-1.449,1.395-1.527,2.445l-1.08,3.435l0.273,2.564
								c-0.031,0.412,0.134,0.861,0.452,1.234l0,0c0.938,1.101,2.564,0.961,2.716-0.233l-0.198-3.764l1.703-3.416L484.964,284.915z"
								/>
							<path style="fill:#FDB9A2;" d="M495.833,277.031l-7.125,6.688c-0.24,0.225-0.421,0.505-0.528,0.816l-3.324,7.819
								c-0.071,0.207-0.176,0.402-0.31,0.576l-1.866,0.888c-0.886,1.151-1.072,1.723,0.898,3.189
								c1.834,1.365,4.678,4.259,7.046,4.103c1.569-0.104,5.323,0.236,6.412-0.914c0.305-0.322,0.686-0.557,0.86-0.965l5.559-16.844
								c0.372-0.876,0.083-1.892-0.694-2.441l-4.38-3.092C497.597,276.3,496.532,276.374,495.833,277.031z"/>
							<path style="fill:#E6A893;" d="M484.417,292.991l-1.737,0.827c-0.886,1.151-1.072,1.723,0.899,3.189
								c1.834,1.365,4.678,4.259,7.046,4.103c1.569-0.103,5.323,0.236,6.412-0.914c0.134-0.142,0.281-0.267,0.421-0.397
								C492.921,297.978,488.419,295.703,484.417,292.991z"/>
							<path style="fill:#FDB9A2;" d="M492.97,279.717l-8.007,5.198l-1.391,2.719c-0.505,0.987,0.059,2.186,1.143,2.425l4.738,1.046
								L492.97,279.717z"/>
						</g>
						<path style="fill:#4C808D;" d="M497.753,205.442c0,0,28.605,22.984,37.833,38.739l-33.523,42.999l-11.247-6.247l19.041-35.441
							l-21.956-15.182c0,0-8.824-7.833-6.532-17.698C483.661,202.747,497.753,205.442,497.753,205.442z"/>
					</g>
				</g>
				<g>
					<g>
						
							<polyline style="fill:none;stroke:#332437;stroke-width:3.1075;stroke-linecap:round;stroke-linejoin:round;stroke-miterlimit:10;" points="
							643.853,372.241 613.484,305.808 617.814,299.672 639.285,346.643 						"/>
						<path style="fill:#332437;" d="M681.63,453.85c0.095,3.277,2.828,5.856,6.104,5.762c3.277-0.095,5.856-2.828,5.762-6.104
							s-2.828-5.856-6.104-5.762C684.115,447.841,681.535,450.573,681.63,453.85z"/>
						<path style="fill:#332437;" d="M686.169,460.78c0.115,3.967,3.423,7.09,7.39,6.976c3.967-0.115,7.09-3.423,6.976-7.39
							c-0.115-3.967-3.423-7.09-7.39-6.976C689.177,453.504,686.054,456.813,686.169,460.78z"/>
						<path style="fill:#332437;" d="M684.138,461.824c0.115,3.967,3.423,7.09,7.39,6.976c3.967-0.115,7.09-3.423,6.976-7.39
							c-0.115-3.967-3.423-7.09-7.39-6.976C687.147,454.548,684.023,457.857,684.138,461.824z"/>
						
							<ellipse transform="matrix(0.302 -0.9533 0.9533 0.302 69.3583 978.6428)" style="fill:#332437;" cx="702.982" cy="441.957" rx="5.935" ry="5.935"/>
						<path style="fill:#332437;" d="M701.588,449.059c0.115,3.967,3.423,7.09,7.39,6.976c3.967-0.115,7.09-3.423,6.976-7.39
							c-0.115-3.967-3.423-7.09-7.39-6.976C704.597,441.783,701.474,445.092,701.588,449.059z"/>
						<path style="fill:#332437;" d="M699.557,450.102c0.115,3.967,3.423,7.09,7.39,6.976c3.967-0.115,7.09-3.423,6.976-7.39
							c-0.115-3.967-3.423-7.09-7.39-6.976C702.566,442.827,699.443,446.135,699.557,450.102z"/>
						<path style="fill:#C76C3F;" d="M689.544,448.501c8.326-3.76,25.122-11.346,33.464-15.114c2.726-1.231,3.934-4.438,2.703-7.164
							l-42.809-94.788c-1.231-2.726-4.44-3.939-7.166-2.707l-33.887,15.305c-2.735,1.235-3.945,4.459-2.697,7.189l43.241,94.593
							C683.632,448.526,686.826,449.728,689.544,448.501z"/>
						<polygon style="fill:#612911;" points="656.449,343.707 652.139,345.654 661.603,335.068 665.624,333.315 						"/>
						<polygon style="fill:#69A6AB;" points="719.976,439.673 725.436,431.207 722.51,428.622 715.628,437.353 						"/>
						<polygon style="fill:#C76C3F;" points="633.98,354.701 639.206,346.603 647.394,354.314 639.695,363.573 						"/>
						<path style="fill:#943F1A;" d="M683.888,457.325c8.326-3.76,25.122-11.346,33.464-15.114c2.726-1.231,3.934-4.438,2.703-7.164
							l-42.808-94.788c-1.231-2.727-4.44-3.939-7.166-2.707l-33.887,15.305c-2.735,1.235-3.945,4.459-2.697,7.189l43.242,94.593
							C677.976,457.35,681.17,458.552,683.888,457.325z"/>
						
							<line style="fill:none;stroke:#612911;stroke-width:4.6357;stroke-miterlimit:10;" x1="701.083" y1="449.559" x2="654.313" y2="344.672"/>
						<polygon style="fill:#612911;" points="705.379,367.726 700.498,370.498 694.457,378.369 701.457,374.541 						"/>
						<polygon style="fill:#943F1A;" points="726.891,430.119 719.976,439.673 694.457,378.369 701.457,374.541 						"/>
						<path style="fill:#C76C3F;" d="M726.891,430.119l1.72-2.823c1.988-3.263,2.226-7.301,0.636-10.775l-21.837-47.718
							c-0.68-1.485-1.429-1.472-2.031-1.076l-3.922,6.815L726.891,430.119z"/>
						
							<line style="fill:none;stroke:#332437;stroke-width:6.2151;stroke-linecap:round;stroke-linejoin:round;stroke-miterlimit:10;" x1="611.323" y1="309.135" x2="618.5" y2="299.126"/>
					</g>
					<g>
						<g>
							<g>
								<path style="fill:#FDB9A2;" d="M496.978,275.708l-0.315-3.26c-0.089-0.917,0.15-1.836,0.673-2.595l4.872-7.068
									c0.511-0.742,1.242-1.305,2.089-1.61l9.657-3.477l29.321-19.798l10.67-28.53c1.272-3.172,7.032-3.153,8.376-0.011
									l5.012,11.722l-16.158,32.539l-31.105,9.161l-4.825,5.71l-7.802,6.721l-0.357-0.568c-0.534-0.849-0.464-1.944,0.173-2.718
									l3.307-4.019c0.391-0.475-0.133-1.152-0.691-0.892l-4.568,2.128l-6.203,7.235
									C498.409,277.192,497.08,276.772,496.978,275.708z"/>
							</g>
							<g>
								<path style="fill:#E6A893;" d="M562.32,209.36c-1.344-3.143-7.104-3.162-8.376,0.011l-10.67,28.53l-2.683,1.812
									c-1.567,3.842-3.234,7.639-5.082,11.359c-1.433,2.883-2.965,5.708-4.547,8.504l20.212-5.953l16.158-32.539L562.32,209.36z"
									/>
							</g>
						</g>
						<path style="fill:#251225;" d="M558.577,165.784c0.277-6.116,8.224-10.354,20.556-7.974c0,0,14.597-1.101,13.781,21.076
							c-0.172,4.666-0.949,9.763-0.438,10.595c17.447,28.362,16.376,51.063,16.376,51.063s-4.398,3.472-37.505,6.822
							c0,0,2.74-34.964-1.109-38.135c-1.619-1.334-0.442-3.482-0.519-5.275c-0.13-3.006-1.359-6.128-3.404-8.337
							c-0.72-0.778-1.577-1.41-2.377-2.098c-0.318-0.264-0.622-0.544-0.928-0.822c0.158-2.002-0.818-3.779-2.286-4.967
							C561.709,177.849,558.351,170.775,558.577,165.784z"/>
						<g>
							<g>
								<g>
									<path style="fill:#FFAF99;" d="M555.413,441.816c-0.178,4.835-0.342,9.67-0.511,14.505c-2.89,0.086-5.779,0.17-8.669,0.254
										c-0.098-5.022-0.178-10.045-0.256-15.067C549.123,441.611,552.268,441.713,555.413,441.816z"/>
									<path style="fill:#332437;" d="M556.589,459.463c-0.085-0.839,0.038-2.028-0.084-2.788
										c-0.123-0.761-0.281-0.992-1.129-1.053c-0.848-0.061-2.398,0.098-3.351,0.068c-1.481-0.048-2.433-0.625-3.303-1.757
										c-0.286-0.372-0.276-0.701-0.614-1.101c-1.186-1.406-3.721-2.43-5.569-1.14c-1.848,1.29-2.095,3.533-4.772,4.302
										c-2.677,0.769-6.18,1.009-6.789,4.132C539.523,459.902,548.043,459.703,556.589,459.463z"/>
									<path style="fill:#C28952;" d="M531.04,462.462c8.532-0.218,17.064-0.436,25.596-0.654
										c-0.022-0.874-0.039-1.748-0.057-2.623c-8.534,0.225-17.069,0.438-25.603,0.654
										C530.997,460.714,531.018,461.588,531.04,462.462z"/>
								</g>
								<path style="fill:#332437;" d="M581.705,291.424c-9.821,16.921-11.027,51.561-23.256,75.455
									c2.002,7.489,3.145,21.204,2.365,29.134c-1.68,17.089-4.435,34.57-5.298,51.808c-3.28,0.383-6.534,0.126-9.78,0.895
									c-2.842-25.03-10.002-58.577-11.753-86.65c-0.851-13.644,7.313-44.315,11.623-59.089
									c1.591-5.452,7.283-30.854,11.312-35.398C565.387,268.013,574.178,287.524,581.705,291.424z"/>
							</g>
							<g>
								<g>
									<polygon style="fill:#FFAF99;" points="638.866,410.338 650.082,419.577 644.991,426.569 632.852,417.59 									"/>
									<path style="fill:#332437;" d="M653.612,420.171l-2.292-1.681c-0.471-0.346-1.133-0.244-1.479,0.227l-2.026,2.761
										c-0.787,1.073-2.086,1.651-3.41,1.51c-0.435-0.047-0.864-0.111-1.215-0.202c-1.233-0.318-4.309,1.676-4.43,3.64
										c-0.121,1.963,2.167,2.532,0.593,6.508c-1.574,3.976-2.902,6.227-0.875,7.861L653.612,420.171z"/>
									
										<rect x="634.086" y="429.777" transform="matrix(-0.5916 0.8062 -0.8062 -0.5916 1377.1278 164.5964)" style="fill:#C28952;" width="25.58" height="2.629"/>
								</g>
								<path style="fill:#332437;" d="M601.631,306.97c-0.31,3.063-0.683,6.079-1.082,9.017
									c-1.864,13.73-4.029,30.808-3.285,38.016c16.361,7.604,27.711,42.108,47.154,60.418l-5.61,7.895
									c-2.577-2.487-67.633-56.542-67.633-56.542s-3.805-31.565-7.515-63.17c-0.479-4.082-0.957-19.538,2.232-30.556
									c17.036-6.435,28.091,1.11,28.091,1.11S602.999,279.167,601.631,306.97z"/>
								<path style="fill:#47334D;" d="M572.841,293.56c5.217,11.843,11.364,23.244,17.552,34.6
									c2.354,4.32,4.771,8.599,7.206,12.861c0.651-7.707,1.852-16.951,2.95-25.035c0.399-2.938,0.772-5.953,1.082-9.017
									c1.368-27.803-7.649-33.812-7.649-33.812s-11.055-7.545-28.091-1.11c-0.078,0.267-0.151,0.54-0.224,0.812
									C567.854,279.817,569.882,286.841,572.841,293.56z"/>
							</g>
						</g>
						<g>
							<path style="fill:#FEFEFE;" d="M561.476,204.746c7.057-0.578,16.443,0.391,18.43,0.457c3.046,0.638,12.079,1.39,17.965,4.622
								c2.586,1.42,2.248,2.069,1.75,4.977c-0.959,5.597-4.387,13.215-4.387,13.215l2.933,49.44c0,0-13.582,3.724-28.229,3.5
								c-14.647-0.224-18.367-5.5-18.367-5.5l5.625-19.738l-3.556-12.369c0,0-3.467-1.961-5.059-6.341
								c-1.136-3.126,5.643-20.171,5.643-20.171s-0.636-7.528,0-8.394C556.447,205.417,561.476,204.746,561.476,204.746z"/>
							<path style="fill:#E4E4E6;" d="M568.532,248.784c0,0,9.496,0.217,14.577-3.667
								C583.109,245.117,578.966,254.888,568.532,248.784z"/>
							<path style="fill:#E4E4E6;" d="M563.313,248.784c-3.428-1.113-8.156-3.283-9.672-5.434l0,0l3.556,12.369l-5.625,19.738
								c0,0,3.428,4.847,16.625,5.444c-1.624-5.388-7.55-28.06-7.55-28.06S561.521,250.432,563.313,248.784z"/>
						</g>
						<g>
							<g>
								<path style="fill:#FDB9A2;" d="M607.644,307.711c-0.203-0.686-0.244-1.41-0.121-2.115l0.793-4.565
									c0.156-0.896,0.54-1.737,1.116-2.44l5.315-6.493c0,0,2.115-34.791,1.77-39.701c-2.537-4.262-14.278-9.632-30.443-30.518
									c-1.917-6.662,3.048-16.747,11.797-12.053c8.21,4.406,26.44,30.056,32.339,39.002c0.354,0.587,0.676,1.127,0.954,1.601
									c0.88,1.495,1.126,3.266,0.695,4.946l-10.01,39.019c2.298,2.725-2.622,7.302-3.53,8.497
									c-0.684,0.901-0.498,1.293,0.558,1.67c0.766,0.274,1.158,1.143,0.779,1.862c-1.082,2.055-3.534,4.447-4.571,4.863
									c-0.346,0.139-0.727,0.113-0.894-0.22l-3.236-6.199l-0.463,2.961l0.525,3.789c0.068,0.488-0.103,0.978-0.458,1.32
									c0,0-0.617,0.555-0.977,0.422C609.315,313.258,608.194,309.57,607.644,307.711z"/>
							</g>
							<g>
								<path style="fill:#E6A893;" d="M586.158,221.985c16.122,20.796,27.827,26.157,30.36,30.412
									c0.307,4.366-1.33,32.333-1.697,38.486c0.255-0.221,5.611-29.599,8.025-41.36
									C621.807,248.036,593.644,225.866,586.158,221.985z"/>
							</g>
						</g>
						<g>
							<path style="fill:#FDB9A2;" d="M581.068,184.538l-1.141,23.159c0,0-11.394,10.146-16.003,20.178
								c-2.424-9.061,2.006-20.178,2.006-20.178l1.311-15.59L581.068,184.538z"/>
							<path style="fill:#E6A893;" d="M580.555,194.943l0.513-10.405l-13.828,7.569l-1.152,13.709
								C571.097,202.443,576.042,198.949,580.555,194.943z"/>
							
								<ellipse transform="matrix(0.987 -0.1609 0.1609 0.987 -20.0918 94.5483)" style="fill:#251225;" cx="573.578" cy="171.296" rx="15.244" ry="15.244"/>
							<path style="fill:#FDB9A2;" d="M563.171,164.263c-1.935-0.163-3.635,1.274-3.798,3.209l-1.805,21.468l0,0
								c-0.355,4.223,2.78,7.933,7.003,8.288l4.128,0.347c1.181,0.099,2.35-0.3,3.224-1.102l7.206-4.366
								c1.035-0.684,6.016-19.367,6.016-19.367c0.295-3.51-5.013-7.052-8.522-7.347L563.171,164.263z"/>
							<path style="fill:#251225;" d="M557.64,165.021c1.505-6.317,8.986-10.983,18.953-8.094
								c16.771,6.409,9.254,26.375,9.254,26.375l-2.368-0.583l-1.162,3.146c-2.922-0.93-3.951-3.854-3.054-8.134
								c-1.06-0.261-2.709-0.584-4.612-0.984c-1.064-1.94-1.752-4.112-2.082-6.844c-0.794,1.953-0.682,4.048-0.518,6.275
								c-5.109,0.27-13.249,0.949-17.827-1.645C556.23,171.908,556.815,168.483,557.64,165.021z"/>
							<g>
								<g>
									<path style="fill:#340606;" d="M568.441,177.968c0.411-0.057,0.76-0.054,1.135-0.027c0.369,0.03,0.734,0.097,1.089,0.2
										c0.713,0.197,1.374,0.579,1.912,1.075c0.114,0.105,0.121,0.282,0.016,0.396c-0.099,0.108-0.263,0.12-0.377,0.033
										l-0.008-0.006c-0.508-0.392-1.094-0.669-1.72-0.787c-0.311-0.063-0.629-0.095-0.947-0.094
										c-0.31,0.001-0.651,0.034-0.917,0.095l-0.021,0.005c-0.244,0.055-0.486-0.097-0.542-0.341
										c-0.056-0.244,0.097-0.486,0.341-0.542C568.415,177.973,568.428,177.97,568.441,177.968z"/>
								</g>
								<g>
									<path style="fill:#340606;" d="M562.734,178.176c-0.141-0.107-0.363-0.223-0.563-0.301
										c-0.208-0.081-0.425-0.137-0.645-0.162c-0.442-0.059-0.895,0.039-1.306,0.259l-0.007,0.004
										c-0.104,0.055-0.233,0.016-0.288-0.088c-0.05-0.093-0.023-0.207,0.058-0.269c0.432-0.333,0.988-0.554,1.56-0.57
										c0.285-0.013,0.571,0.013,0.848,0.074c0.284,0.066,0.534,0.141,0.828,0.292c0.223,0.114,0.311,0.387,0.197,0.611
										c-0.114,0.223-0.388,0.311-0.611,0.197c-0.023-0.012-0.044-0.025-0.064-0.04L562.734,178.176z"/>
								</g>
							</g>
							<path style="fill:#251225;" d="M570.795,181.06c-0.049,0.583-0.43,1.026-0.852,0.991c-0.422-0.036-0.724-0.536-0.675-1.119
								s0.431-1.026,0.852-0.991C570.542,179.976,570.844,180.477,570.795,181.06z"/>
							<path style="fill:#251225;" d="M562.263,179.806c-0.049,0.583-0.431,1.026-0.852,0.991c-0.422-0.036-0.724-0.536-0.675-1.119
								c0.049-0.582,0.431-1.026,0.852-0.99C562.01,178.723,562.312,179.224,562.263,179.806z"/>
							
								<path style="fill:none;stroke:#FFFFFF;stroke-width:0.7975;stroke-linecap:round;stroke-linejoin:round;stroke-miterlimit:10;" d="
								M574.964,188.425c0,0,4.317-10.653,8.877-9.984c6.469,0.95-0.731,11.005-10.342,17.077"/>
							<path style="fill:#FFFFFF;" d="M556.967,183.613c0,0,8.263-1.885,18.663,3.951l-0.417,4.958
								c-0.258,3.072-2.958,5.353-6.03,5.095l-7.127-0.599c-2.898-0.244-5.124-2.672-5.114-5.58L556.967,183.613z"/>
							<path style="fill:#FDB9A2;" d="M585.635,183.613c-0.999,2.101-2.939,3.266-4.334,2.603c-1.395-0.663-1.716-2.903-0.718-5.004
								c0.998-2.101,2.939-3.266,4.333-2.603C586.312,179.272,586.633,181.512,585.635,183.613z"/>
						</g>
					</g>
				</g>
			</g>
			<g>
				<g>
					<rect x="356.815" y="-8.368" style="fill:#844E65;" width="6.718" height="27.629"/>
					<g>
						<circle style="fill:#FFFFFF;" cx="360.174" cy="32.245" r="6.731"/>
					</g>
					<path style="fill:#47334D;" d="M384.987,32.245h-49.625l8.97-12.148c1.606-2.175,4.149-3.459,6.853-3.459h17.978
						c2.704,0,5.247,1.284,6.853,3.459L384.987,32.245z"/>
					
						<linearGradient id="SVGID_00000174589818899296388570000017629429615539517326_" gradientUnits="userSpaceOnUse" x1="362.843" y1="14.467" x2="360.4482" y2="98.7668">
						<stop  offset="0" style="stop-color:#FFFFFF"/>
						<stop  offset="1" style="stop-color:#FFFFFF;stop-opacity:0"/>
					</linearGradient>
					<polygon style="opacity:0.82;fill:url(#SVGID_00000174589818899296388570000017629429615539517326_);" points="384.987,32.245 
						335.361,32.245 292.174,108.416 353.443,108.416 366.905,108.416 428.174,108.416 					"/>
				</g>
				<g>
					<rect x="216.584" y="-8.368" style="fill:#844E65;" width="6.718" height="27.629"/>
					<g>
						<circle style="fill:#FFFFFF;" cx="219.943" cy="32.245" r="6.731"/>
					</g>
					<path style="fill:#47334D;" d="M244.756,32.245h-49.625l8.97-12.148c1.606-2.175,4.149-3.459,6.853-3.459h17.978
						c2.704,0,5.247,1.284,6.853,3.459L244.756,32.245z"/>
					
						<linearGradient id="SVGID_00000042733310595006121380000000432548217664507541_" gradientUnits="userSpaceOnUse" x1="222.6124" y1="14.467" x2="220.2175" y2="98.7668">
						<stop  offset="0" style="stop-color:#FFFFFF"/>
						<stop  offset="1" style="stop-color:#FFFFFF;stop-opacity:0"/>
					</linearGradient>
					<polygon style="opacity:0.82;fill:url(#SVGID_00000042733310595006121380000000432548217664507541_);" points="244.756,32.245 
						195.131,32.245 151.943,108.416 213.212,108.416 226.674,108.416 287.944,108.416 					"/>
				</g>
				<g>
					<rect x="76.354" y="-8.368" style="fill:#844E65;" width="6.718" height="27.629"/>
					<g>
						<circle style="fill:#FFFFFF;" cx="79.713" cy="32.245" r="6.731"/>
					</g>
					<path style="fill:#47334D;" d="M104.525,32.245H54.9l8.97-12.148c1.606-2.175,4.149-3.459,6.853-3.459h17.978
						c2.704,0,5.247,1.284,6.853,3.459L104.525,32.245z"/>
					
						<linearGradient id="SVGID_00000044860923046560086400000008244890667329203619_" gradientUnits="userSpaceOnUse" x1="82.3817" y1="14.467" x2="79.9868" y2="98.7668">
						<stop  offset="0" style="stop-color:#FFFFFF"/>
						<stop  offset="1" style="stop-color:#FFFFFF;stop-opacity:0"/>
					</linearGradient>
					<polygon style="opacity:0.82;fill:url(#SVGID_00000044860923046560086400000008244890667329203619_);" points="104.525,32.245 
						54.9,32.245 11.712,108.416 72.982,108.416 86.444,108.416 147.713,108.416 					"/>
				</g>
			</g>
		</g>
	</g>
</g>
</svg>
