<svg xmlns="http://www.w3.org/2000/svg" viewBox="0 0 346.06 512.66">
  <defs>
    <style>
      .cls-1 {
        fill: #586168;
      }
    </style>
  </defs>
  <g id="Layer_2" data-name="Layer 2">
    <g id="Layer_1-2" data-name="Layer 1">
      <g>
        <path class="cls-1" d="M197.19,337.61H172.06V1.94l.76-.16a41.58,41.58,0,0,1,8.92-.93c11.71,0,27.26,4.42,34.82,25.54L218.22,31c11.72,32.3,29.42,81.08,5,198.62C204.27,321,198.71,335,197.47,337.12ZM174,335.67h22c1.41-3,7.24-19.45,25.3-106.48,24.28-117,6.69-165.46-4.94-197.54l-1.67-4.6c-7.19-20-21.91-24.25-33-24.25a42,42,0,0,0-7.73.71Z"/>
        <path class="cls-1" d="M274.06,28.05C255.77,14.66,239.5,13.49,234.5,13.49c-.88,0-1.34,0-1.34,0l-1.34.13a76.58,76.58,0,0,0-31.26-8.83A38,38,0,0,0,181.74.05,43,43,0,0,0,173,.91v0A42.07,42.07,0,0,0,164.32,0,38.12,38.12,0,0,0,145.5,4.77a76.82,76.82,0,0,0-31.27,8.83l-1.33-.12s-.47,0-1.33,0c-5,0-21.28,1.17-39.57,14.55C54.49,35.88-16,74.79,3.32,190.05c15.55,92.78,77.2,147.44,77.2,147.44l61.76,72v15.47h5.42l-1.75.26,7.28,47.72h-1.9s-3.41,37.95,21.7,39.7v0c25.11-1.75,21.69-39.69,21.69-39.69h-1.9l7.27-47.73-1.74-.26h5.42V409.51l61.77-72s61.65-54.65,77.19-147.44C362.05,74.84,291.56,35.92,274.06,28.05ZM94.72,336.59c-3.58-4.89-41.42-57.06-44.52-69.08-1-2-2.29-5.92-4.67-11.16-12.6-27.54-42.11-92.07-16.59-162C55.2,22.4,98.51,15.71,110.15,15.26c-1,.77-1.94,1.61-2.91,2.4C86.62,31,64.34,58.3,57.19,113.77a223.14,223.14,0,0,0-1.34,40.78c0,5,.15,10,.39,15.23A258.73,258.73,0,0,0,65,212.28c.79,2.55,1.54,5.07,2.42,7.67,14.31,49.51,37.7,90,49,107.75,2.3,4.2,4,7.27,4.94,8.89ZM189.34,472.7l1.74.27H173v-.05H155l1.74-.27-7.28-47.71H173v0h23.59Zm7.29-136.06H173v-.05h-23.6c-1-1.68-6.39-14.36-25.67-107.25-24.33-117.27-6.68-165.9,5-198.08l1.66-4.59c7.37-20.56,22.51-24.89,33.91-24.89a42,42,0,0,1,8.71.89v.05a41.57,41.57,0,0,1,8.71-.9c11.4,0,26.53,4.33,33.9,24.89l1.66,4.59c11.68,32.19,29.33,80.81,5,198.09C203,322.28,197.63,335,196.63,336.64Zm103.91-80.25c-2.4,5.24-3.71,9.16-4.68,11.17-3.1,12-41,64.19-44.52,69.08H224.7c.92-1.63,2.65-4.7,5-8.89,11.26-17.78,34.66-58.25,49-107.75.86-2.6,1.61-5.12,2.4-7.67a258.82,258.82,0,0,0,8.78-42.51c.26-5.19.36-10.24.4-15.22a222.33,222.33,0,0,0-1.34-40.79c-7.15-55.46-29.44-82.72-50.05-96.11-1-.79-1.91-1.62-2.91-2.4,11.63.46,55,7.14,81.2,79.09C342.63,164.32,313.13,228.86,300.54,256.39Z"/>
      </g>
    </g>
  </g>
</svg>
