<svg xmlns="http://www.w3.org/2000/svg" viewBox="0 0 355.97 234.23">
  <defs>
    <style>
      .cls-1 {
        isolation: isolate;
      }

      .cls-2 {
        mix-blend-mode: hard-light;
      }

      .cls-3 {
        fill: #586168;
      }
    </style>
  </defs>
  <g class="cls-1">
    <g id="Layer_2" data-name="Layer 2">
      <g id="Layer_1-2" data-name="Layer 1">
        <g class="cls-2">
          <path class="cls-3" d="M355.94,222.57q0-82,0-164a8.79,8.79,0,0,0-8.55-7.94c-8.42,0-16.86,0-25.26,0,0-7.8,0-15.62,0-23.43q-17.18,0-34.36,0V50.61c-11,0-22.06,0-33.08,0-3-16.84-5.93-33.75-8.94-50.62H130q-4.41,25.32-8.88,50.62-46.38,0-92.73,0a8.79,8.79,0,0,0-8.58,8v58.5H0v52.75H19.84V226.1a8.59,8.59,0,0,0,8.32,8.13H347.8a8.68,8.68,0,0,0,7.57-5.35C356.22,226.89,355.91,224.69,355.94,222.57ZM9.31,158V130.58H19.84V158Zm255.82,4.32a80.6,80.6,0,1,1,.11-46.24A80.78,80.78,0,0,1,265.13,162.31Zm29.79-65.58a14.72,14.72,0,0,1-14.35,1.41A15,15,0,0,1,272,86.5a14.73,14.73,0,0,1,10.89-15.91c7.05-2.06,15.06,2.28,17.44,9.19A14.66,14.66,0,0,1,294.92,96.73Z"/>
          <path class="cls-3" d="M208.25,96.65A47,47,0,0,0,141.2,144,47,47,0,0,0,209,181a47,47,0,0,0-.72-84.35Z"/>
        </g>
      </g>
    </g>
  </g>
</svg>
