<svg xmlns="http://www.w3.org/2000/svg" viewBox="0 0 467.27 172.42">
  <defs>
    <style>
      .cls-1 {
        isolation: isolate;
      }

      .cls-2 {
        mix-blend-mode: hard-light;
      }

      .cls-3 {
        fill: #586168;
      }
    </style>
  </defs>
  <g class="cls-1">
    <g id="Layer_2" data-name="Layer 2">
      <g id="Layer_1-2" data-name="Layer 1">
        <g class="cls-2">
          <path class="cls-3" d="M367.07.62C318.39,4.53,256.25,39.83,245,46.44c-4.94,1.71-15.84,4.29-23.12-.23h0C209.64,39.06,148.34,4.49,100.18.62,46.45-3.7,0,16,0,16V42.33s11.84,8.6,13.66,21.81S38.44,141,65.58,159.57c30.36,20.78,89,11.44,100.19,5.83,14.16-7.07,40-28,52-70.74C223,76,229.4,72.79,232.52,72.42v.06a4.17,4.17,0,0,1,1.13-.1,3.54,3.54,0,0,1,.75.13v-.06c3.19.46,9.83,3.79,15.1,22.21,12.22,42.68,37.85,63.67,52,70.74,11.23,5.61,69.83,14.95,100.19-5.83,27.14-18.56,50.1-82.21,51.92-95.43s13.67-21.81,13.67-21.81V16S420.81-3.7,367.07.62ZM208.88,89.2c-7.92,36.57-37.64,58.3-50.39,62.55S105,170.53,72.25,147.5C17,108.63,34.61,38.2,34.61,38.2s14-28.54,75.3-23.08,87.92,33.56,90,35.2C201.76,51.76,213.74,66.8,208.88,89.2ZM395,147.5c-32.74,23-73.47,8.5-86.23,4.25s-42.47-26-50.39-62.55c-4.86-22.4,7.11-37.44,8.95-38.88,2.1-1.64,28.69-29.73,90-35.2S432.66,38.2,432.66,38.2,450.25,108.63,395,147.5Z"/>
        </g>
      </g>
    </g>
  </g>
</svg>
