<svg xmlns="http://www.w3.org/2000/svg" viewBox="0 0 562.44 530.91">
  <defs>
    <style>
      .cls-1 {
        isolation: isolate;
      }

      .cls-2 {
        mix-blend-mode: hard-light;
      }

      .cls-3 {
        fill: #586168;
      }
    </style>
  </defs>
  <g class="cls-1">
    <g id="Layer_2" data-name="Layer 2">
      <g id="Layer_1-2" data-name="Layer 1">
        <g class="cls-2">
          <path class="cls-3" d="M460.26,164c22.08-43.7,4.6-77.77-43.77-93.57,8.26,17.43,15.95,35.11,32.32,49-4.42-1.86-8.83-3.7-12.4-3.61.45,13.07,2.76,26.67,7.46,37.14-.48,6-3.44.81-3.44.81-7-48.87-87.28-57-108.07-28.37,11.11,1.37,22.38,3.07,35.44,8.81,8.25-2.43,21.22-5.07,28.61-2.64-4.57,1.92-9.41,3.23-12.3,9,15.5,8,26.83,19.84,42.22,17.09a70.69,70.69,0,0,1,3.49,6.16,15.36,15.36,0,0,1,1,5.3c-5.44,5-13,5.68-18.87,6.14-46.7,3.61-78.63,70.31-62.81,116,7-13.57,13.34-28.54,21.58-39.24,1-9.15-.06-22.21,7.12-31.08-.34,5.86,0,11.43,4,15.37,9.74-14.11,25.11-20.39,26.55-42.32,5.11,2.26-1.73,9.79,2.7,12.34,4.08-4.39,8.35-8.37,13.81-9.66a25.49,25.49,0,0,1,5,6.35,5.67,5.67,0,0,0,2.94,2.08c-.85,37.65-7.2,169-53.92,199.54a135.24,135.24,0,0,0-44-9.52C342.71,222.79,219.38,135.89,178.65,112c1.27-1.38,2.47-2.67,3.45-3.69,5.24-2.21,13.1,4.75,15.24.8,1.53-5.56-6.34-8.56-4.53-12.64,15.46,20.63,35.83,26.92,56.76,31.64-1.55-6.81-4.88-14.23-5.13-20.59,8.89,10.69,18.39,19.61,25.56,35.35,16.7,6.25,29.38,24.22,46.15,30.23C291.24,94.65,235.82,52.77,167.08,81c0,0-2-2.89-2.47-9-.68-7.82,5.29-11.12,3.29-9.59,20.27,1.33,31-11.57,49.28-24.12-2.69-5.1-17.45-5.81-13.18-10.06,9.47-3,23,3.69,35.13,1C254.4,25.81,267.94,15.5,281,13.68,240.47-16.77,149.26,4.85,146.65,66.24,124.81,8.07,78-4.86,21.66,26.73,45,34,68.15,42,95.17,38.63c-5.54,2.54-11,5.07-14,8.49,12.58,10.81,27.28,20.33,41.09,24.94,5.23,5.63-2.2,3.9-2.2,3.9C68.36,40.56-8.15,108.56.7,152.54c10.84-9.22,22.1-18.29,38.68-25.54,4.83-9.8,13.5-24.17,22.12-29-2.13,5.91-5.08,11.56-2.15,19.22,20.83-7.56,41.58-8,52.22-24.75,3.15.46,8.76,2,8.76,2,4.34,2,5.84,3.59,5.84,3.59,0,9.37-5.82,17-10.47,22.9C78.93,167.74,113.8,254.85,170,279.29c-6.68-18.17-15.19-37-18.12-53.86-7.7-8.79-20.79-19-22.91-33.34,5.19,5.34,10.65,9.86,17.81,9.43-4.81-21.22,2.53-41-16.71-61.15,6.51-2.83,7.65,10,13.86,8.07-.61-7.59-.66-15,2.83-21.19a32.45,32.45,0,0,1,10.26.75c2.66.61,6.3-1.55,10.09-4.69,33.24,18.66,159.93,101.17,152.3,271.1l7.77.35a125.77,125.77,0,0,0-27.71,2.87l3.62-1.47c-13.57-33.55-51.38-59.4-73.78-72.32a16.15,16.15,0,0,1,.71-1.91c4.35-.83,8.72.67,13.09,2.54,2.37-3.28-5-6.51-2-9.8,8.1,15.39,21.24,15,32.82,22,1.68-4.15.1-8.28-2-12.41,8.06,4.1,11.51,13.88,15.17,20.17,9.41,5.08,18.83,13.85,28.24,21.41-3.28-38.11-47.85-76-82.77-63.56-4.43,1.58-10.08,3.51-15.62,1.64a11.93,11.93,0,0,1-1-4.16s.18-3.63.53-5.58c12-3,16.4-15.15,25-26-3.95-3.25-7.87-2.62-11.79-2.54,4.56-4.14,14.77-6.41,21.53-7.32,7.58-8.36,15.18-13.22,22.78-17.79-24.25-14-79.64,17.75-69,55.35,0,0-.45,4.73-2.74.52,0-9.08-2.69-19.66-6.58-29.24-2.61,1.07-5.2,3.82-7.81,6.59,7.36-15.31,7.22-30.56,7.57-45.82C165.61,255,164,285.26,194,309.73c-36.83-10.64-67.71,39-57.77,69,3.67-7.38,12.46-13.35,17.52-21.69,4-6.62,2.76-15.95,6.4-21,3.36-1.69.86,7.18,3.33,9.79,11.06-8.33,20.81-12.1,24.05-24.34-1.29.87,1.84-2,6.33-.05a12.42,12.42,0,0,1,4.8,3.24c-30.34,35-16.58,76.12,24.86,106.43-.22-11.12-8.34-22.18-8.7-33.29-7.9-7.37-11.28-14.76-15.84-22.14,3.72,1.41,7.44,4.86,11.16,7.12,1.36-13.3,1.69-26.6-7.43-39.84,2.78-.26,3,5,6.56,5.2,2.77-.49.21-6.52,2.56-9.18,3.69-1.74,11-4.7,14.59-7.82,21.53,12.63,56.71,37,69.25,67.4-77.71,20.22-89.48,115-92.94,132.29H475s-17.6-88.37-87.89-122.7c46.35-37.15,52.73-162.14,53.57-201.58,5,.42,10.61.29,14,.36,4.08,1.87,4.24,10.14,7.68,9.27,4-2.08,1.57-8.24,4.91-9.37-3.71,20,3.5,35.15,11.93,49.81,3.12-4.53,5.65-10.43,9.2-14-1.45,10.87-1.56,21.14-6.87,33.68,5.29,13,1.62,30,7.09,42.89,32.22-56.3,26.94-110.77-26.11-135.59,0,0,.63-2.67,3.89-6.21,4.17-4.56,9.28-2.86,7.32-3.21,10,12.46,23.23,11.79,40.28,15.71,1.51-4.28-6-13.22-1.2-13,6.78,3.89,10.13,15.31,18.17,20.88,10.15,7,23.34,9.39,31.39,16C558.45,174.12,497.27,132.76,460.26,164Z"/>
        </g>
      </g>
    </g>
  </g>
</svg>
