<svg xmlns="http://www.w3.org/2000/svg" viewBox="0 0 217.57 425.79">
  <defs>
    <style>
      .cls-1 {
        isolation: isolate;
      }

      .cls-2 {
        mix-blend-mode: hard-light;
      }

      .cls-3 {
        fill: #586168;
      }
    </style>
  </defs>
  <g class="cls-1">
    <g id="Layer_2" data-name="Layer 2">
      <g id="Layer_1-2" data-name="Layer 1">
        <g class="cls-2">
          <path class="cls-3" d="M108.81,138.6H17.88s87,281.77,90.93,285.32c3.18,2.87,7,2.08,8.53,0,1.81-2.58,82.34-285.32,82.34-285.32ZM115.68,382c-1.18,1.67-4.3,2.32-6.87,0-3.17-2.86-73.33-230.11-73.33-230.11H182.1S117.16,379.93,115.68,382Z"/>
          <path class="cls-3" d="M210.44,136.71c3.27-9.37-.82-38.88-1.76-49.56C204.51,39.33,161.56,0,110,0S17,39.17,11.94,86.9c-1.29,12.19-4.46,37.81-1.41,48.95a18.51,18.51,0,0,0-6.82,27.82,17.09,17.09,0,0,0,9.81,7c.29,14.82.82,50-.12,52.6-.74,2-11.91,17.88.21,22.83,10,4.11,19.76-6.56,10.7-18.35-5.44-7.16-5.44-5.49-5.44-5.49v-51a18.65,18.65,0,0,0,17.61-13.3,2.56,2.56,0,0,1,.66,1.79v.11a17,17,0,0,0-.75,4.74,16.69,16.69,0,0,0,32.46,5.53L69,170c1.62-2.78,3.48-2.08,4.48-.52a16.65,16.65,0,0,0,33.12.66c0-.12.16-.26.2-.37.59-1.79,3.15-1.82,4.5-.7a16.64,16.64,0,0,0,33.2.11,3.58,3.58,0,0,0,.15-.79c0-1.09,1.68-2.95,3.12-.53a2.42,2.42,0,0,0,.46.5,16.71,16.71,0,1,0,31.48-10.64,1.65,1.65,0,0,1,1.17-1.93,18.63,18.63,0,1,0,29.6-19Z"/>
        </g>
      </g>
    </g>
  </g>
</svg>
