<svg xmlns="http://www.w3.org/2000/svg" viewBox="0 0 273.89 195.21">
  <defs>
    <style>
      .cls-1 {
        fill: #586168;
      }
    </style>
  </defs>
  <g id="Layer_2" data-name="Layer 2">
    <g id="Layer_1-2" data-name="Layer 1">
      <g>
        <path class="cls-1" d="M142.16,38.08a156.31,156.31,0,0,1,16.8,5c19.3,7.17,51.84,25.85,73.29,50.62a113.74,113.74,0,0,1,7.23,9.12s-.15-.53-.39-1.47c-2.1-7.65-11.67-43.07-14.91-57.62-.82-3.67-1.23-6-1-6.29,1.14-1.37-11.53,5.16-20.65,3.89s-33.81-5.06-44.17-6.52c-1.3-.2-2.47-.4-3.55-.59s-1.83-.3-2.64-.39c.65-.31,1.11-.49,1.11-.49S140.83,16.57,132.53,6.81c-6-7.1-9.88-10.48-5.16-.94,11.23,22.66-8.42,29-5.36,28.78,1.23-.09,4.79.7,8.78,1.53a77.63,77.63,0,0,0,11.38,1.88Z"/>
        <path class="cls-1" d="M6.36,178.32c8.73-10,25.37-31.23,41.35-29.23,13,1.64,25.95,13,35.58,24.13,8.63,10,14.61,19.72,15.45,22,0,0,.08-1,.11-2.67.2-8.29-.51-34.54-15.74-53.63a55.07,55.07,0,0,0-6.19-6.64,61.59,61.59,0,0,0-13.63-9.4,29.34,29.34,0,0,0-5.55-2.21s3.08-22.55,31.81-24.39c15.47-1,52.23,32,52.79,32.59,0,0-.1.33-.23.86a26.15,26.15,0,0,0,.38,14.11c1.08,3.08,2.24,2.38,3.86.94,2.31-2.08,5.58-5.71,10.93-2.2,9.1,6,32.11,21.65,32.11,21.65s.56.41,1.65,1.15c-1-5.34-5.25-33.52,19.69-41.34,3.13-1,5.2,2.54,5.2,2.54s-8.33,2.66-15.48,11.72c-6,7.53-8.28,19.61-5.2,28.25a13.33,13.33,0,0,0,.62,1.71c1,.62,2.31,1.28,3.6,2a158.19,158.19,0,0,0,56.24,16.64,37.61,37.61,0,0,0,10.12,0c3.15-.52,5.17-1.49,6.4-2.63a3.18,3.18,0,0,1-1.9.4c-2.26-.16-5.93-1.78-8-2.51a94.14,94.14,0,0,1-13.78-6.67,29.07,29.07,0,0,1-4.15-2.88c-1.81-1.55-.82-2.71.16-2.82,3.17-.41,23.31,5.06,29.29,9a1.34,1.34,0,0,1-.05-.14s-2.83-38.58-38-78.29A188.68,188.68,0,0,0,213.5,78.84,166.17,166.17,0,0,0,188.88,60.5a172.39,172.39,0,0,0-27.76-14A151.69,151.69,0,0,0,129,37.82a103.64,103.64,0,0,0-32.79-.06c-61.51,10.56-49.43,77.07-50.42,79.67,0,0-15.16-.9-26.76,18.3s-20.74,42-18.8,47.2C.8,184.36,3,182.13,6.36,178.32Zm234.4-41.75A6.94,6.94,0,0,1,250,140a5.82,5.82,0,0,1,.35,1.55,6.87,6.87,0,0,1-13,4.23A6.91,6.91,0,0,1,240.76,136.57Z"/>
      </g>
    </g>
  </g>
</svg>
